<svg width="80" height="80" viewBox="0 0 80 80" fill="none" xmlns="http://www.w3.org/2000/svg">
<rect width="80" height="80" fill="#eee"/>
<path d="M69.0806 45.6198C68.3046 45.6198 67.6246 45.4638 67.0406 45.1518C66.4566 44.8478 66.0046 44.4198 65.6846 43.8678C65.3646 43.3078 65.2046 42.6678 65.2046 41.9478C65.2046 41.2358 65.3646 40.6038 65.6846 40.0518C66.0046 39.4918 66.4566 39.0598 67.0406 38.7558C67.6246 38.4438 68.3046 38.2878 69.0806 38.2878C69.8566 38.2878 70.5366 38.4438 71.1206 38.7558C71.7046 39.0598 72.1566 39.4918 72.4766 40.0518C72.7966 40.6038 72.9566 41.2358 72.9566 41.9478C72.9566 42.6678 72.7966 43.3078 72.4766 43.8678C72.1566 44.4198 71.7046 44.8478 71.1206 45.1518C70.5366 45.4638 69.8566 45.6198 69.0806 45.6198ZM67.6286 41.9478C67.6286 42.4118 67.7606 42.7918 68.0246 43.0878C68.2966 43.3758 68.6486 43.5198 69.0806 43.5198C69.5126 43.5198 69.8606 43.3758 70.1246 43.0878C70.3966 42.7918 70.5326 42.4118 70.5326 41.9478C70.5326 41.4838 70.3966 41.1078 70.1246 40.8198C69.8606 40.5318 69.5126 40.3878 69.0806 40.3878C68.6486 40.3878 68.2966 40.5318 68.0246 40.8198C67.7606 41.1078 67.6286 41.4838 67.6286 41.9478Z" fill="#222222"/>
<path d="M57.3079 45.4879C57.2439 45.4879 57.1919 45.4679 57.1519 45.4279C57.1119 45.3879 57.0919 45.3359 57.0919 45.2719V35.7199C57.0919 35.6559 57.1119 35.6039 57.1519 35.5639C57.1919 35.5239 57.2439 35.5039 57.3079 35.5039H59.2759C59.3399 35.5039 59.3919 35.5239 59.4319 35.5639C59.4719 35.6039 59.4919 35.6559 59.4919 35.7199V39.1279C59.9719 38.5679 60.6399 38.2879 61.4959 38.2879C62.3119 38.2879 62.9479 38.5159 63.4039 38.9719C63.8599 39.4279 64.0879 40.0639 64.0879 40.8799V45.2719C64.0879 45.3359 64.0679 45.3879 64.0279 45.4279C63.9879 45.4679 63.9359 45.4879 63.8719 45.4879H61.9039C61.8399 45.4879 61.7879 45.4679 61.7479 45.4279C61.7079 45.3879 61.6879 45.3359 61.6879 45.2719V41.7799C61.6879 41.2919 61.6079 40.9399 61.4479 40.7239C61.2879 40.4999 61.0319 40.3879 60.6799 40.3879C60.3199 40.3879 60.0319 40.5239 59.8159 40.7959C59.5999 41.0599 59.4919 41.4439 59.4919 41.9479V45.2719C59.4919 45.3359 59.4719 45.3879 59.4319 45.4279C59.3919 45.4679 59.3399 45.4879 59.2759 45.4879H57.3079Z" fill="#222222"/>
<path d="M54.3544 37.484C53.9784 37.484 53.6624 37.372 53.4064 37.148C53.1584 36.916 53.0344 36.616 53.0344 36.248C53.0344 35.88 53.1584 35.58 53.4064 35.348C53.6624 35.116 53.9784 35 54.3544 35C54.7304 35 55.0424 35.116 55.2904 35.348C55.5464 35.58 55.6744 35.88 55.6744 36.248C55.6744 36.616 55.5464 36.916 55.2904 37.148C55.0424 37.372 54.7304 37.484 54.3544 37.484ZM53.1544 38.624C53.1544 38.56 53.1744 38.512 53.2144 38.48C53.2544 38.44 53.3064 38.42 53.3704 38.42H55.3384C55.4024 38.42 55.4544 38.44 55.4944 38.48C55.5344 38.512 55.5544 38.56 55.5544 38.624V45.272C55.5544 45.336 55.5344 45.388 55.4944 45.428C55.4544 45.468 55.4024 45.488 55.3384 45.488H53.3704C53.3064 45.488 53.2544 45.468 53.2144 45.428C53.1744 45.388 53.1544 45.336 53.1544 45.272V38.624Z" fill="#222222"/>
<path d="M44.8978 45.4879C44.8338 45.4879 44.7818 45.4679 44.7418 45.4279C44.7018 45.3879 44.6818 45.3359 44.6818 45.2719V35.7199C44.6818 35.6559 44.7018 35.6039 44.7418 35.5639C44.7818 35.5239 44.8338 35.5039 44.8978 35.5039H46.8658C46.9298 35.5039 46.9818 35.5239 47.0218 35.5639C47.0618 35.6039 47.0818 35.6559 47.0818 35.7199V39.1279C47.5618 38.5679 48.2298 38.2879 49.0858 38.2879C49.9018 38.2879 50.5378 38.5159 50.9938 38.9719C51.4498 39.4279 51.6778 40.0639 51.6778 40.8799V45.2719C51.6778 45.3359 51.6578 45.3879 51.6178 45.4279C51.5778 45.4679 51.5258 45.4879 51.4618 45.4879H49.4938C49.4298 45.4879 49.3778 45.4679 49.3378 45.4279C49.2978 45.3879 49.2778 45.3359 49.2778 45.2719V41.7799C49.2778 41.2919 49.1978 40.9399 49.0378 40.7239C48.8778 40.4999 48.6218 40.3879 48.2698 40.3879C47.9098 40.3879 47.6218 40.5239 47.4058 40.7959C47.1898 41.0599 47.0818 41.4439 47.0818 41.9479V45.2719C47.0818 45.3359 47.0618 45.3879 47.0218 45.4279C46.9818 45.4679 46.9298 45.4879 46.8658 45.4879H44.8978Z" fill="#222222"/>
<path d="M41.9443 37.484C41.5683 37.484 41.2523 37.372 40.9963 37.148C40.7483 36.916 40.6243 36.616 40.6243 36.248C40.6243 35.88 40.7483 35.58 40.9963 35.348C41.2523 35.116 41.5683 35 41.9443 35C42.3203 35 42.6323 35.116 42.8803 35.348C43.1363 35.58 43.2643 35.88 43.2643 36.248C43.2643 36.616 43.1363 36.916 42.8803 37.148C42.6323 37.372 42.3203 37.484 41.9443 37.484ZM40.7443 38.624C40.7443 38.56 40.7643 38.512 40.8043 38.48C40.8443 38.44 40.8963 38.42 40.9603 38.42H42.9283C42.9923 38.42 43.0443 38.44 43.0843 38.48C43.1243 38.512 43.1443 38.56 43.1443 38.624V45.272C43.1443 45.336 43.1243 45.388 43.0843 45.428C43.0443 45.468 42.9923 45.488 42.9283 45.488H40.9603C40.8963 45.488 40.8443 45.468 40.8043 45.428C40.7643 45.388 40.7443 45.336 40.7443 45.272V38.624Z" fill="#222222"/>
<path d="M32.4876 45.4879C32.4236 45.4879 32.3716 45.4679 32.3316 45.4279C32.2916 45.3879 32.2716 45.3359 32.2716 45.2719V35.7199C32.2716 35.6559 32.2916 35.6039 32.3316 35.5639C32.3716 35.5239 32.4236 35.5039 32.4876 35.5039H34.4556C34.5196 35.5039 34.5716 35.5239 34.6116 35.5639C34.6516 35.6039 34.6716 35.6559 34.6716 35.7199V39.1279C35.1516 38.5679 35.8196 38.2879 36.6756 38.2879C37.4916 38.2879 38.1276 38.5159 38.5836 38.9719C39.0396 39.4279 39.2676 40.0639 39.2676 40.8799V45.2719C39.2676 45.3359 39.2476 45.3879 39.2076 45.4279C39.1676 45.4679 39.1156 45.4879 39.0516 45.4879H37.0836C37.0196 45.4879 36.9676 45.4679 36.9276 45.4279C36.8876 45.3879 36.8676 45.3359 36.8676 45.2719V41.7799C36.8676 41.2919 36.7876 40.9399 36.6276 40.7239C36.4676 40.4999 36.2116 40.3879 35.8596 40.3879C35.4996 40.3879 35.2116 40.5239 34.9956 40.7959C34.7796 41.0599 34.6716 41.4439 34.6716 41.9479V45.2719C34.6716 45.3359 34.6516 45.3879 34.6116 45.4279C34.5716 45.4679 34.5196 45.4879 34.4556 45.4879H32.4876Z" fill="#222222"/>
<path d="M28.197 45.6198C27.397 45.6198 26.725 45.4598 26.181 45.1398C25.637 44.8278 25.253 44.3718 25.029 43.7718C25.021 43.7558 25.017 43.7278 25.017 43.6878C25.017 43.6078 25.069 43.5558 25.173 43.5318L26.769 43.1958L26.841 43.1838C26.913 43.1838 26.981 43.2278 27.045 43.3158C27.157 43.4998 27.305 43.6398 27.489 43.7358C27.673 43.8318 27.881 43.8798 28.113 43.8798C28.329 43.8798 28.497 43.8478 28.617 43.7838C28.737 43.7198 28.797 43.6278 28.797 43.5078C28.797 43.4038 28.741 43.3118 28.629 43.2318C28.525 43.1518 28.333 43.0758 28.053 43.0038L27.789 42.9318C26.133 42.4998 25.305 41.6798 25.305 40.4718C25.305 40.0478 25.425 39.6718 25.665 39.3438C25.913 39.0078 26.257 38.7478 26.697 38.5638C27.137 38.3798 27.641 38.2878 28.209 38.2878C28.961 38.2878 29.577 38.4358 30.057 38.7318C30.545 39.0198 30.901 39.4638 31.125 40.0638L31.149 40.1478C31.149 40.2358 31.093 40.2918 30.981 40.3158L29.433 40.6758H29.385C29.297 40.6758 29.229 40.6278 29.181 40.5318C29.077 40.3638 28.953 40.2398 28.809 40.1598C28.673 40.0718 28.505 40.0278 28.305 40.0278C28.137 40.0278 28.001 40.0598 27.897 40.1238C27.793 40.1798 27.741 40.2678 27.741 40.3878C27.741 40.5078 27.805 40.6118 27.933 40.6998C28.061 40.7878 28.261 40.8638 28.533 40.9278L28.785 40.9878C29.689 41.2198 30.325 41.5238 30.693 41.8998C31.061 42.2678 31.245 42.7638 31.245 43.3878C31.245 43.8358 31.113 44.2278 30.849 44.5638C30.593 44.8998 30.233 45.1598 29.769 45.3438C29.313 45.5278 28.789 45.6198 28.197 45.6198Z" fill="#222222"/>
<path d="M20.4947 45.6198C19.7187 45.6198 19.0387 45.4638 18.4547 45.1518C17.8707 44.8478 17.4187 44.4198 17.0987 43.8678C16.7787 43.3078 16.6187 42.6678 16.6187 41.9478C16.6187 41.2358 16.7787 40.6038 17.0987 40.0518C17.4187 39.4918 17.8707 39.0598 18.4547 38.7558C19.0387 38.4438 19.7187 38.2878 20.4947 38.2878C21.2707 38.2878 21.9507 38.4438 22.5347 38.7558C23.1187 39.0598 23.5707 39.4918 23.8907 40.0518C24.2107 40.6038 24.3707 41.2358 24.3707 41.9478C24.3707 42.6678 24.2107 43.3078 23.8907 43.8678C23.5707 44.4198 23.1187 44.8478 22.5347 45.1518C21.9507 45.4638 21.2707 45.6198 20.4947 45.6198ZM19.0427 41.9478C19.0427 42.4118 19.1747 42.7918 19.4387 43.0878C19.7107 43.3758 20.0627 43.5198 20.4947 43.5198C20.9267 43.5198 21.2747 43.3758 21.5387 43.0878C21.8107 42.7918 21.9467 42.4118 21.9467 41.9478C21.9467 41.4838 21.8107 41.1078 21.5387 40.8198C21.2747 40.5318 20.9267 40.3878 20.4947 40.3878C20.0627 40.3878 19.7107 40.5318 19.4387 40.8198C19.1747 41.1078 19.0427 41.4838 19.0427 41.9478Z" fill="#222222"/>
<path d="M11.72 45.488C11.656 45.488 11.604 45.468 11.564 45.428C11.524 45.388 11.504 45.336 11.504 45.272V41.912L8.036 35.972C8.012 35.932 8 35.896 8 35.864C8 35.824 8.016 35.792 8.048 35.768C8.08 35.736 8.124 35.72 8.18 35.72H10.556C10.676 35.72 10.764 35.768 10.82 35.864L12.788 39.668L14.732 35.864C14.764 35.768 14.844 35.72 14.972 35.72H17.312C17.368 35.72 17.412 35.736 17.444 35.768C17.484 35.792 17.504 35.824 17.504 35.864C17.504 35.896 17.492 35.932 17.468 35.972L14 41.864V45.272C14 45.336 13.98 45.388 13.94 45.428C13.9 45.468 13.848 45.488 13.784 45.488H11.72Z" fill="#222222"/>
</svg>
