<svg width="80" height="80" viewBox="0 0 80 80" fill="none" xmlns="http://www.w3.org/2000/svg">
<rect width="80" height="80" fill="#F0F0F0"/>
<path d="M66.7059 44.636C65.9299 44.636 65.2499 44.48 64.6659 44.168C64.0819 43.864 63.6299 43.436 63.3099 42.884C62.9899 42.324 62.8299 41.684 62.8299 40.964C62.8299 40.252 62.9899 39.62 63.3099 39.068C63.6299 38.508 64.0819 38.076 64.6659 37.772C65.2499 37.46 65.9299 37.304 66.7059 37.304C67.4819 37.304 68.1619 37.46 68.7459 37.772C69.3299 38.076 69.7819 38.508 70.1019 39.068C70.4219 39.62 70.5819 40.252 70.5819 40.964C70.5819 41.684 70.4219 42.324 70.1019 42.884C69.7819 43.436 69.3299 43.864 68.7459 44.168C68.1619 44.48 67.4819 44.636 66.7059 44.636ZM65.2539 40.964C65.2539 41.428 65.3859 41.808 65.6499 42.104C65.9219 42.392 66.2739 42.536 66.7059 42.536C67.1379 42.536 67.4859 42.392 67.7499 42.104C68.0219 41.808 68.1579 41.428 68.1579 40.964C68.1579 40.5 68.0219 40.124 67.7499 39.836C67.4859 39.548 67.1379 39.404 66.7059 39.404C66.2739 39.404 65.9219 39.548 65.6499 39.836C65.3859 40.124 65.2539 40.5 65.2539 40.964Z" fill="#222222"/>
<path d="M60.1759 44.6359C59.2959 44.6359 58.6479 44.3719 58.2319 43.8439C57.8159 43.3159 57.6079 42.5359 57.6079 41.5039V39.4879H56.7679C56.7039 39.4879 56.6519 39.4679 56.6119 39.4279C56.5719 39.3879 56.5519 39.3359 56.5519 39.2719V37.6759C56.5519 37.6119 56.5719 37.5599 56.6119 37.5199C56.6519 37.4799 56.7039 37.4599 56.7679 37.4599H57.6079V35.8039C57.6079 35.7399 57.6279 35.6879 57.6679 35.6479C57.7079 35.6079 57.7599 35.5879 57.8239 35.5879H59.7919C59.8559 35.5879 59.9079 35.6079 59.9479 35.6479C59.9879 35.6879 60.0079 35.7399 60.0079 35.8039V37.4599H61.4119C61.4759 37.4599 61.5279 37.4799 61.5679 37.5199C61.6079 37.5599 61.6279 37.6119 61.6279 37.6759V39.2719C61.6279 39.3359 61.6079 39.3879 61.5679 39.4279C61.5279 39.4679 61.4759 39.4879 61.4119 39.4879H60.0079V41.7319C60.0079 42.0359 60.0479 42.2599 60.1279 42.4039C60.2159 42.5479 60.3519 42.6199 60.5359 42.6199C60.6159 42.6199 60.6839 42.5999 60.7399 42.5599C60.8039 42.5199 60.8639 42.4519 60.9199 42.3559C60.9759 42.2999 61.0239 42.2719 61.0639 42.2719C61.0959 42.2719 61.1359 42.2839 61.1839 42.3079L62.5279 42.8839C62.6159 42.9239 62.6599 42.9839 62.6599 43.0639C62.6599 43.0959 62.6439 43.1439 62.6119 43.2079C62.3719 43.6879 62.0319 44.0439 61.5919 44.2759C61.1519 44.5159 60.6799 44.6359 60.1759 44.6359Z" fill="#222222"/>
<path d="M54.5344 36.5001C54.1584 36.5001 53.8424 36.3881 53.5864 36.1641C53.3384 35.9321 53.2144 35.6321 53.2144 35.2641C53.2144 34.8961 53.3384 34.5961 53.5864 34.3641C53.8424 34.1321 54.1584 34.0161 54.5344 34.0161C54.9104 34.0161 55.2224 34.1321 55.4704 34.3641C55.7264 34.5961 55.8544 34.8961 55.8544 35.2641C55.8544 35.6321 55.7264 35.9321 55.4704 36.1641C55.2224 36.3881 54.9104 36.5001 54.5344 36.5001ZM53.3344 37.6401C53.3344 37.5761 53.3544 37.5281 53.3944 37.4961C53.4344 37.4561 53.4864 37.4361 53.5504 37.4361H55.5184C55.5824 37.4361 55.6344 37.4561 55.6744 37.4961C55.7144 37.5281 55.7344 37.5761 55.7344 37.6401V44.2881C55.7344 44.3521 55.7144 44.4041 55.6744 44.4441C55.6344 44.4841 55.5824 44.5041 55.5184 44.5041H53.5504C53.4864 44.5041 53.4344 44.4841 53.3944 44.4441C53.3544 44.4041 53.3344 44.3521 53.3344 44.2881V37.6401Z" fill="#222222"/>
<path d="M45.0778 44.504C45.0138 44.504 44.9618 44.484 44.9218 44.444C44.8818 44.404 44.8618 44.352 44.8618 44.288V34.736C44.8618 34.672 44.8818 34.62 44.9218 34.58C44.9618 34.54 45.0138 34.52 45.0778 34.52H47.0458C47.1098 34.52 47.1618 34.54 47.2018 34.58C47.2418 34.62 47.2618 34.672 47.2618 34.736V38.144C47.7418 37.584 48.4098 37.304 49.2658 37.304C50.0818 37.304 50.7178 37.532 51.1738 37.988C51.6298 38.444 51.8578 39.08 51.8578 39.896V44.288C51.8578 44.352 51.8378 44.404 51.7978 44.444C51.7578 44.484 51.7058 44.504 51.6418 44.504H49.6738C49.6098 44.504 49.5578 44.484 49.5178 44.444C49.4778 44.404 49.4578 44.352 49.4578 44.288V40.796C49.4578 40.308 49.3778 39.956 49.2178 39.74C49.0578 39.516 48.8018 39.404 48.4498 39.404C48.0898 39.404 47.8018 39.54 47.5858 39.812C47.3698 40.076 47.2618 40.46 47.2618 40.964V44.288C47.2618 44.352 47.2418 44.404 47.2018 44.444C47.1618 44.484 47.1098 44.504 47.0458 44.504H45.0778Z" fill="#222222"/>
<path d="M42.1243 36.5001C41.7483 36.5001 41.4323 36.3881 41.1763 36.1641C40.9283 35.9321 40.8043 35.6321 40.8043 35.2641C40.8043 34.8961 40.9283 34.5961 41.1763 34.3641C41.4323 34.1321 41.7483 34.0161 42.1243 34.0161C42.5003 34.0161 42.8123 34.1321 43.0603 34.3641C43.3163 34.5961 43.4443 34.8961 43.4443 35.2641C43.4443 35.6321 43.3163 35.9321 43.0603 36.1641C42.8123 36.3881 42.5003 36.5001 42.1243 36.5001ZM40.9243 37.6401C40.9243 37.5761 40.9443 37.5281 40.9843 37.4961C41.0243 37.4561 41.0763 37.4361 41.1403 37.4361H43.1083C43.1723 37.4361 43.2243 37.4561 43.2643 37.4961C43.3043 37.5281 43.3243 37.5761 43.3243 37.6401V44.2881C43.3243 44.3521 43.3043 44.4041 43.2643 44.4441C43.2243 44.4841 43.1723 44.5041 43.1083 44.5041H41.1403C41.0763 44.5041 41.0243 44.4841 40.9843 44.4441C40.9443 44.4041 40.9243 44.3521 40.9243 44.2881V37.6401Z" fill="#222222"/>
<path d="M32.6676 44.504C32.6036 44.504 32.5516 44.484 32.5116 44.444C32.4716 44.404 32.4516 44.352 32.4516 44.288V34.736C32.4516 34.672 32.4716 34.62 32.5116 34.58C32.5516 34.54 32.6036 34.52 32.6676 34.52H34.6356C34.6996 34.52 34.7516 34.54 34.7916 34.58C34.8316 34.62 34.8516 34.672 34.8516 34.736V38.144C35.3316 37.584 35.9996 37.304 36.8556 37.304C37.6716 37.304 38.3076 37.532 38.7636 37.988C39.2196 38.444 39.4476 39.08 39.4476 39.896V44.288C39.4476 44.352 39.4276 44.404 39.3876 44.444C39.3476 44.484 39.2956 44.504 39.2316 44.504H37.2636C37.1996 44.504 37.1476 44.484 37.1076 44.444C37.0676 44.404 37.0476 44.352 37.0476 44.288V40.796C37.0476 40.308 36.9676 39.956 36.8076 39.74C36.6476 39.516 36.3916 39.404 36.0396 39.404C35.6796 39.404 35.3916 39.54 35.1756 39.812C34.9596 40.076 34.8516 40.46 34.8516 40.964V44.288C34.8516 44.352 34.8316 44.404 34.7916 44.444C34.7516 44.484 34.6996 44.504 34.6356 44.504H32.6676Z" fill="#222222"/>
<path d="M28.377 44.636C27.577 44.636 26.905 44.476 26.361 44.156C25.817 43.844 25.433 43.388 25.209 42.788C25.201 42.772 25.197 42.744 25.197 42.704C25.197 42.624 25.249 42.572 25.353 42.548L26.949 42.212L27.021 42.2C27.093 42.2 27.161 42.244 27.225 42.332C27.337 42.516 27.485 42.656 27.669 42.752C27.853 42.848 28.061 42.896 28.293 42.896C28.509 42.896 28.677 42.864 28.797 42.8C28.917 42.736 28.977 42.644 28.977 42.524C28.977 42.42 28.921 42.328 28.809 42.248C28.705 42.168 28.513 42.092 28.233 42.02L27.969 41.948C26.313 41.516 25.485 40.696 25.485 39.488C25.485 39.064 25.605 38.688 25.845 38.36C26.093 38.024 26.437 37.764 26.877 37.58C27.317 37.396 27.821 37.304 28.389 37.304C29.141 37.304 29.757 37.452 30.237 37.748C30.725 38.036 31.081 38.48 31.305 39.08L31.329 39.164C31.329 39.252 31.273 39.308 31.161 39.332L29.613 39.692H29.565C29.477 39.692 29.409 39.644 29.361 39.548C29.257 39.38 29.133 39.256 28.989 39.176C28.853 39.088 28.685 39.044 28.485 39.044C28.317 39.044 28.181 39.076 28.077 39.14C27.973 39.196 27.921 39.284 27.921 39.404C27.921 39.524 27.985 39.628 28.113 39.716C28.241 39.804 28.441 39.88 28.713 39.944L28.965 40.004C29.869 40.236 30.505 40.54 30.873 40.916C31.241 41.284 31.425 41.78 31.425 42.404C31.425 42.852 31.293 43.244 31.029 43.58C30.773 43.916 30.413 44.176 29.949 44.36C29.493 44.544 28.969 44.636 28.377 44.636Z" fill="#222222"/>
<path d="M20.6746 44.636C19.8986 44.636 19.2186 44.48 18.6346 44.168C18.0506 43.864 17.5986 43.436 17.2786 42.884C16.9586 42.324 16.7986 41.684 16.7986 40.964C16.7986 40.252 16.9586 39.62 17.2786 39.068C17.5986 38.508 18.0506 38.076 18.6346 37.772C19.2186 37.46 19.8986 37.304 20.6746 37.304C21.4506 37.304 22.1306 37.46 22.7146 37.772C23.2986 38.076 23.7506 38.508 24.0706 39.068C24.3906 39.62 24.5506 40.252 24.5506 40.964C24.5506 41.684 24.3906 42.324 24.0706 42.884C23.7506 43.436 23.2986 43.864 22.7146 44.168C22.1306 44.48 21.4506 44.636 20.6746 44.636ZM19.2226 40.964C19.2226 41.428 19.3546 41.808 19.6186 42.104C19.8906 42.392 20.2426 42.536 20.6746 42.536C21.1066 42.536 21.4546 42.392 21.7186 42.104C21.9906 41.808 22.1266 41.428 22.1266 40.964C22.1266 40.5 21.9906 40.124 21.7186 39.836C21.4546 39.548 21.1066 39.404 20.6746 39.404C20.2426 39.404 19.8906 39.548 19.6186 39.836C19.3546 40.124 19.2226 40.5 19.2226 40.964Z" fill="#222222"/>
<path d="M11.9 44.5041C11.836 44.5041 11.784 44.4841 11.744 44.4441C11.704 44.4041 11.684 44.3521 11.684 44.2881V40.9281L8.21599 34.9881C8.19199 34.9481 8.17999 34.9121 8.17999 34.8801C8.17999 34.8401 8.19599 34.8081 8.22799 34.7841C8.25999 34.7521 8.30399 34.7361 8.35999 34.7361H10.736C10.856 34.7361 10.944 34.7841 11 34.8801L12.968 38.6841L14.912 34.8801C14.944 34.7841 15.024 34.7361 15.152 34.7361H17.492C17.548 34.7361 17.592 34.7521 17.624 34.7841C17.664 34.8081 17.684 34.8401 17.684 34.8801C17.684 34.9121 17.672 34.9481 17.648 34.9881L14.18 40.8801V44.2881C14.18 44.3521 14.16 44.4041 14.12 44.4441C14.08 44.4841 14.028 44.5041 13.964 44.5041H11.9Z" fill="#222222"/>
</svg>
