<svg width="80" height="80" viewBox="0 0 80 80" fill="none" xmlns="http://www.w3.org/2000/svg">
<rect width="80" height="80" fill="#F0F0F0"/>
<path d="M72.957 41.9482C72.957 41.3252 72.8349 40.7632 72.5898 40.2627L72.4766 40.0527C72.1966 39.5627 71.8161 39.17 71.334 38.876L71.1211 38.7568C70.61 38.4838 70.0253 38.33 69.3672 38.2959L69.0811 38.2881C68.3051 38.2881 67.625 38.4448 67.041 38.7568L66.8281 38.876C66.3459 39.17 65.9646 39.5627 65.6846 40.0527L65.5723 40.2627C65.3272 40.7632 65.2051 41.3252 65.2051 41.9482L65.2119 42.2148C65.2469 42.8271 65.4047 43.3783 65.6846 43.8682C66.0046 44.4202 66.457 44.8483 67.041 45.1523C67.5519 45.4253 68.1362 45.5791 68.7939 45.6133L69.0811 45.6201C69.857 45.6201 70.5371 45.4643 71.1211 45.1523C71.705 44.8483 72.1566 44.4201 72.4766 43.8682C72.7565 43.3782 72.9142 42.8272 72.9492 42.2148L72.957 41.9482ZM69.5332 41.9482C69.5332 41.6929 69.4645 41.5778 69.3975 41.5068L69.3926 41.502L69.3877 41.4961C69.3343 41.4379 69.2656 41.3887 69.0811 41.3887C68.9011 41.3887 68.8209 41.4359 68.7568 41.502C68.6943 41.5726 68.6289 41.6919 68.6289 41.9482L68.6406 42.1221C68.6622 42.2644 68.7112 42.35 68.7627 42.4111C68.8259 42.4745 68.9058 42.5205 69.0811 42.5205V43.5205L68.9229 43.5137C68.5622 43.4822 68.2625 43.3399 68.0244 43.0879C67.7936 42.8289 67.6636 42.5057 67.6348 42.1182L67.6289 41.9482C67.6289 41.4844 67.7606 41.1083 68.0244 40.8203C68.2964 40.5323 68.6491 40.3887 69.0811 40.3887L69.2393 40.3955C69.5987 40.4271 69.8941 40.5684 70.125 40.8203C70.397 41.1083 70.5332 41.4843 70.5332 41.9482L70.5264 42.1182C70.4967 42.5057 70.3629 42.8289 70.125 43.0879C69.861 43.3759 69.513 43.5205 69.0811 43.5205V42.5205C69.2653 42.5205 69.3343 42.4712 69.3877 42.4131L69.3887 42.4121C69.4651 42.329 69.5332 42.203 69.5332 41.9482ZM73.9473 42.2734C73.9041 43.0242 73.7087 43.7273 73.3447 44.3643L73.3418 44.3701C72.9236 45.0915 72.3294 45.6504 71.583 46.0391L71.582 46.0381C70.8323 46.4364 69.9893 46.6201 69.0811 46.6201C68.169 46.6201 67.3214 46.436 66.5693 46.0342V46.0332C65.9205 45.6935 65.3865 45.2256 64.9844 44.6328L64.8193 44.3701L64.8164 44.3643C64.4005 43.6362 64.2051 42.8215 64.2051 41.9482C64.2051 41.0811 64.4012 40.2722 64.8193 39.5508C65.2347 38.8262 65.8252 38.2635 66.5693 37.874C67.3214 37.4722 68.169 37.2881 69.0811 37.2881C69.989 37.2881 70.8325 37.4711 71.582 37.8691C72.3304 38.2587 72.9237 38.8234 73.3408 39.5508H73.3418C73.76 40.2722 73.957 41.081 73.957 41.9482L73.9473 42.2734Z" fill="#202020"/>
<path d="M61.6924 45.3184C61.6999 45.3617 61.7181 45.3988 61.748 45.4287C61.778 45.4586 61.815 45.4769 61.8584 45.4844L61.9043 45.4883H63.8721C63.92 45.4883 63.9616 45.4775 63.9961 45.4551L64.0283 45.4287C64.0582 45.3988 64.0764 45.3617 64.084 45.3184L64.0879 45.2725V40.8809C64.0879 40.1667 63.9137 39.5898 63.5645 39.1514L63.4043 38.9727C62.9483 38.5167 62.3121 38.2881 61.4961 38.2881C60.6403 38.2881 59.9721 38.5681 59.4922 39.1279V35.7207C59.4922 35.6568 59.4725 35.6044 59.4326 35.5645C59.4027 35.5345 59.3657 35.5153 59.3223 35.5078L59.2764 35.5039V34.5039C59.5313 34.5039 59.8076 34.5809 60.042 34.7695L60.1396 34.8574C60.3608 35.0786 60.4647 35.3507 60.4873 35.6104L60.4922 35.7207V37.4043C60.8107 37.3264 61.1468 37.2881 61.4961 37.2881C62.4404 37.2881 63.3063 37.5404 63.9795 38.1406L64.1113 38.2656C64.8013 38.9557 65.0879 39.8738 65.0879 40.8809V45.2725L65.083 45.3828C65.0604 45.6424 64.9565 45.9146 64.7354 46.1357C64.4826 46.3884 64.1633 46.4883 63.8721 46.4883H61.9043C61.6495 46.4883 61.373 46.4121 61.1387 46.2236L61.041 46.1357C60.7883 45.883 60.6885 45.5637 60.6885 45.2725V41.7803C60.6885 41.5997 60.6725 41.4732 60.6553 41.3896C60.6427 41.3905 60.634 41.3915 60.6289 41.3926C60.6217 41.3941 60.6198 41.3951 60.6211 41.3945C60.6226 41.3938 60.6231 41.3939 60.6211 41.3955C60.6187 41.3974 60.6111 41.4036 60.5996 41.418L60.5898 41.4297C60.5752 41.4478 60.4922 41.5701 60.4922 41.9482V45.2725L60.4873 45.3828C60.4647 45.6424 60.3608 45.9146 60.1396 46.1357C59.8869 46.3885 59.5676 46.4882 59.2764 46.4883H57.3086C57.0539 46.4883 56.7773 46.412 56.543 46.2236L56.4453 46.1357C56.1926 45.883 56.0918 45.5637 56.0918 45.2725V35.7207C56.0918 35.4295 56.1925 35.1102 56.4453 34.8574L56.543 34.7695C56.7773 34.5811 57.0538 34.5039 57.3086 34.5039V35.5039L57.2627 35.5078C57.2191 35.5153 57.1824 35.5344 57.1523 35.5645C57.1123 35.6045 57.0918 35.6567 57.0918 35.7207V45.2725C57.0918 45.3364 57.1124 45.3887 57.1523 45.4287C57.1823 45.4586 57.2192 45.4769 57.2627 45.4844L57.3086 45.4883H59.2764L59.3223 45.4844C59.3512 45.4793 59.3775 45.4701 59.4004 45.4551L59.4326 45.4287C59.4625 45.3988 59.4808 45.3617 59.4883 45.3184L59.4922 45.2725V41.9482C59.4922 41.5075 59.575 41.1586 59.7402 40.9014L59.8164 40.7959C60.0324 40.5242 60.3208 40.3887 60.6807 40.3887L60.8076 40.3936C61.0947 40.418 61.3082 40.5286 61.4482 40.7246C61.6082 40.9406 61.6885 41.2924 61.6885 41.7803V45.2725L61.6924 45.3184ZM59.2764 34.5039V35.5039H57.3086V34.5039H59.2764Z" fill="#202020"/>
<path d="M53.1582 45.3184C53.1657 45.3618 53.1849 45.3988 53.2148 45.4287C53.2448 45.4586 53.2817 45.4769 53.3252 45.4844L53.3711 45.4883H55.3389L55.3848 45.4844C55.4137 45.4793 55.44 45.4701 55.4629 45.4551L55.4951 45.4287C55.525 45.3988 55.5433 45.3617 55.5508 45.3184L55.5547 45.2725V38.624C55.5546 38.5604 55.5349 38.5124 55.4951 38.4805C55.4652 38.4505 55.4282 38.4314 55.3848 38.4238L55.3389 38.4199H53.3711L53.3252 38.4238C53.2816 38.4313 53.2449 38.4504 53.2148 38.4805C53.1749 38.5124 53.1544 38.5602 53.1543 38.624V45.2725L53.1582 45.3184ZM55.6748 36.248C55.6747 35.8803 55.5467 35.5805 55.291 35.3486C55.043 35.1166 54.7305 35 54.3545 35C53.9786 35 53.6622 35.1167 53.4062 35.3486C53.1586 35.5805 53.0352 35.8804 53.0352 36.248L53.041 36.3828C53.0681 36.69 53.1893 36.9454 53.4062 37.1484C53.6622 37.3724 53.9786 37.4843 54.3545 37.4844C54.6833 37.4844 54.9634 37.3988 55.1943 37.2275L55.291 37.1484C55.515 36.9454 55.641 36.6901 55.6689 36.3828L55.6748 36.248ZM56.6641 36.4814C56.6206 36.9402 56.4454 37.3622 56.1348 37.7129C56.1573 37.7323 56.1806 37.7519 56.2021 37.7734H56.2012C56.4703 38.0333 56.5546 38.3643 56.5547 38.624V45.2725L56.5498 45.3828C56.5272 45.6424 56.4233 45.9146 56.2021 46.1357C55.9494 46.3885 55.6301 46.4882 55.3389 46.4883H53.3711C53.1164 46.4883 52.8398 46.412 52.6055 46.2236L52.5078 46.1357C52.2551 45.883 52.1543 45.5637 52.1543 45.2725V38.624C52.1544 38.3644 52.2389 38.0332 52.5078 37.7734L52.5684 37.7178C52.2066 37.3044 52.0352 36.794 52.0352 36.248C52.0352 35.6292 52.2555 35.0561 52.7236 34.6182L52.7295 34.6123L52.7354 34.6074C53.1921 34.1935 53.7542 34 54.3545 34C54.9493 34 55.5093 34.1909 55.9609 34.6074H55.9619C55.9636 34.6089 55.9652 34.6108 55.9668 34.6123C55.969 34.6143 55.9714 34.6161 55.9736 34.6182H55.9727C56.4451 35.0519 56.6747 35.6235 56.6748 36.248L56.6641 36.4814Z" fill="#202020"/>
<path d="M49.2822 45.3184C49.2898 45.3617 49.308 45.3988 49.3379 45.4287C49.3679 45.4586 49.4048 45.4769 49.4482 45.4844L49.4941 45.4883H51.4619C51.5099 45.4883 51.5515 45.4775 51.5859 45.4551L51.6182 45.4287C51.6481 45.3988 51.6663 45.3617 51.6738 45.3184L51.6777 45.2725V40.8809C51.6777 40.1667 51.5036 39.5898 51.1543 39.1514L50.9941 38.9727C50.5381 38.5167 49.9019 38.2881 49.0859 38.2881C48.2301 38.2881 47.562 38.5681 47.082 39.1279V35.7207C47.082 35.6568 47.0623 35.6044 47.0225 35.5645C46.9925 35.5345 46.9555 35.5153 46.9121 35.5078L46.8662 35.5039V34.5039C47.1211 34.5039 47.3974 34.5809 47.6318 34.7695L47.7295 34.8574C47.9506 35.0786 48.0546 35.3507 48.0771 35.6104L48.082 35.7207V37.4043C48.4006 37.3264 48.7366 37.2881 49.0859 37.2881C50.0302 37.2881 50.8962 37.5404 51.5693 38.1406L51.7012 38.2656C52.3911 38.9557 52.6777 39.8738 52.6777 40.8809V45.2725L52.6729 45.3828C52.6502 45.6424 52.5463 45.9146 52.3252 46.1357C52.0724 46.3884 51.7531 46.4883 51.4619 46.4883H49.4941C49.2393 46.4883 48.9629 46.4121 48.7285 46.2236L48.6309 46.1357C48.3781 45.883 48.2783 45.5637 48.2783 45.2725V41.7803C48.2783 41.5997 48.2623 41.4732 48.2451 41.3896C48.2326 41.3905 48.2238 41.3915 48.2188 41.3926C48.2116 41.3941 48.2096 41.3951 48.2109 41.3945C48.2125 41.3938 48.213 41.3939 48.2109 41.3955C48.2086 41.3974 48.2009 41.4036 48.1895 41.418L48.1797 41.4297C48.165 41.4478 48.0821 41.5701 48.082 41.9482V45.2725L48.0771 45.3828C48.0545 45.6424 47.9506 45.9146 47.7295 46.1357C47.4768 46.3885 47.1574 46.4882 46.8662 46.4883H44.8984C44.6437 46.4883 44.3671 46.412 44.1328 46.2236L44.0352 46.1357C43.7824 45.883 43.6817 45.5637 43.6816 45.2725V35.7207C43.6816 35.4295 43.7824 35.1102 44.0352 34.8574L44.1328 34.7695C44.3672 34.5811 44.6436 34.5039 44.8984 34.5039V35.5039L44.8525 35.5078C44.8089 35.5153 44.7722 35.5344 44.7422 35.5645C44.7022 35.6045 44.6816 35.6567 44.6816 35.7207V45.2725C44.6817 45.3364 44.7022 45.3887 44.7422 45.4287C44.7722 45.4586 44.8091 45.4769 44.8525 45.4844L44.8984 45.4883H46.8662L46.9121 45.4844C46.941 45.4793 46.9673 45.4701 46.9902 45.4551L47.0225 45.4287C47.0524 45.3988 47.0706 45.3617 47.0781 45.3184L47.082 45.2725V41.9482C47.082 41.5075 47.1648 41.1586 47.3301 40.9014L47.4062 40.7959C47.6222 40.5242 47.9107 40.3887 48.2705 40.3887L48.3975 40.3936C48.6845 40.418 48.8981 40.5286 49.0381 40.7246C49.198 40.9406 49.2783 41.2924 49.2783 41.7803V45.2725L49.2822 45.3184ZM46.8662 34.5039V35.5039H44.8984V34.5039H46.8662Z" fill="#202020"/>
<path d="M40.748 45.3184C40.7556 45.3618 40.7747 45.3988 40.8047 45.4287C40.8347 45.4586 40.8716 45.4769 40.915 45.4844L40.9609 45.4883H42.9287L42.9746 45.4844C43.0035 45.4793 43.0298 45.4701 43.0527 45.4551L43.085 45.4287C43.1149 45.3988 43.1331 45.3617 43.1406 45.3184L43.1445 45.2725V38.624C43.1445 38.5604 43.1247 38.5124 43.085 38.4805C43.055 38.4505 43.018 38.4314 42.9746 38.4238L42.9287 38.4199H40.9609L40.915 38.4238C40.8714 38.4313 40.8347 38.4504 40.8047 38.4805C40.7648 38.5124 40.7442 38.5602 40.7441 38.624V45.2725L40.748 45.3184ZM43.2646 36.248C43.2646 35.8803 43.1366 35.5805 42.8809 35.3486C42.6329 35.1166 42.3203 35 41.9443 35C41.5684 35 41.252 35.1167 40.9961 35.3486C40.7484 35.5805 40.6251 35.8804 40.625 36.248L40.6309 36.3828C40.6579 36.69 40.7792 36.9454 40.9961 37.1484C41.252 37.3724 41.5684 37.4843 41.9443 37.4844C42.2731 37.4844 42.5533 37.3988 42.7842 37.2275L42.8809 37.1484C43.1049 36.9454 43.2309 36.6901 43.2588 36.3828L43.2646 36.248ZM44.2539 36.4814C44.2104 36.9402 44.0352 37.3622 43.7246 37.7129C43.7471 37.7323 43.7704 37.7519 43.792 37.7734H43.791C44.0601 38.0333 44.1445 38.3643 44.1445 38.624V45.2725L44.1396 45.3828C44.117 45.6424 44.0131 45.9146 43.792 46.1357C43.5393 46.3885 43.2199 46.4882 42.9287 46.4883H40.9609C40.7062 46.4883 40.4296 46.412 40.1953 46.2236L40.0977 46.1357C39.8449 45.883 39.7442 45.5637 39.7441 45.2725V38.624C39.7442 38.3644 39.8288 38.0332 40.0977 37.7734L40.1582 37.7178C39.7965 37.3044 39.625 36.794 39.625 36.248C39.6251 35.6292 39.8453 35.0561 40.3135 34.6182L40.3193 34.6123L40.3252 34.6074C40.782 34.1935 41.344 34 41.9443 34C42.5391 34 43.0991 34.1909 43.5508 34.6074H43.5518C43.5534 34.6089 43.555 34.6108 43.5566 34.6123C43.5588 34.6143 43.5613 34.6161 43.5635 34.6182H43.5625C44.035 35.0519 44.2646 35.6235 44.2646 36.248L44.2539 36.4814Z" fill="#202020"/>
<path d="M36.8721 45.3184C36.8796 45.3617 36.8978 45.3988 36.9277 45.4287C36.9577 45.4586 36.9947 45.4769 37.0381 45.4844L37.084 45.4883H39.0518C39.0997 45.4883 39.1413 45.4775 39.1758 45.4551L39.208 45.4287C39.2379 45.3988 39.2561 45.3617 39.2637 45.3184L39.2676 45.2725V40.8809C39.2676 40.1667 39.0934 39.5898 38.7441 39.1514L38.584 38.9727C38.128 38.5167 37.4918 38.2881 36.6758 38.2881C35.82 38.2881 35.1518 38.5681 34.6719 39.1279V35.7207C34.6719 35.6568 34.6521 35.6044 34.6123 35.5645C34.5824 35.5345 34.5454 35.5153 34.502 35.5078L34.4561 35.5039V34.5039C34.7109 34.5039 34.9873 34.5809 35.2217 34.7695L35.3193 34.8574C35.5404 35.0786 35.6444 35.3507 35.667 35.6104L35.6719 35.7207V37.4043C35.9904 37.3264 36.3265 37.2881 36.6758 37.2881C37.6201 37.2881 38.486 37.5404 39.1592 38.1406L39.291 38.2656C39.981 38.9557 40.2676 39.8738 40.2676 40.8809V45.2725L40.2627 45.3828C40.2401 45.6424 40.1362 45.9146 39.915 46.1357C39.6623 46.3884 39.343 46.4883 39.0518 46.4883H37.084C36.8292 46.4883 36.5527 46.4121 36.3184 46.2236L36.2207 46.1357C35.9679 45.883 35.8682 45.5637 35.8682 45.2725V41.7803C35.8682 41.5997 35.8522 41.4732 35.835 41.3896C35.8224 41.3905 35.8136 41.3915 35.8086 41.3926C35.8014 41.3941 35.7995 41.3951 35.8008 41.3945C35.8023 41.3938 35.8028 41.3939 35.8008 41.3955C35.7984 41.3974 35.7908 41.4036 35.7793 41.418L35.7695 41.4297C35.7548 41.4478 35.6719 41.5701 35.6719 41.9482V45.2725L35.667 45.3828C35.6444 45.6424 35.5405 45.9146 35.3193 46.1357C35.0666 46.3885 34.7473 46.4882 34.4561 46.4883H32.4883C32.2335 46.4883 31.957 46.412 31.7227 46.2236L31.625 46.1357C31.3722 45.883 31.2715 45.5637 31.2715 45.2725V35.7207C31.2715 35.4295 31.3722 35.1102 31.625 34.8574L31.7227 34.7695C31.957 34.5811 32.2335 34.5039 32.4883 34.5039V35.5039L32.4424 35.5078C32.3988 35.5153 32.3621 35.5344 32.332 35.5645C32.292 35.6045 32.2715 35.6567 32.2715 35.7207V45.2725C32.2715 45.3364 32.292 45.3887 32.332 45.4287C32.362 45.4586 32.3989 45.4769 32.4424 45.4844L32.4883 45.4883H34.4561L34.502 45.4844C34.5309 45.4793 34.5571 45.4701 34.5801 45.4551L34.6123 45.4287C34.6422 45.3988 34.6604 45.3617 34.668 45.3184L34.6719 45.2725V41.9482C34.6719 41.5075 34.7547 41.1586 34.9199 40.9014L34.9961 40.7959C35.2121 40.5242 35.5005 40.3887 35.8604 40.3887L35.9873 40.3936C36.2744 40.418 36.4879 40.5286 36.6279 40.7246C36.7878 40.9406 36.8682 41.2924 36.8682 41.7803V45.2725L36.8721 45.3184ZM34.4561 34.5039V35.5039H32.4883V34.5039H34.4561Z" fill="#202020"/>
<path d="M31.125 40.0645C30.901 39.4646 30.5455 39.0204 30.0576 38.7324C29.5776 38.4364 28.961 38.2881 28.209 38.2881C27.6411 38.2881 27.1372 38.3805 26.6973 38.5645L26.5371 38.6367C26.173 38.8144 25.8821 39.0506 25.665 39.3447C25.4252 39.6726 25.3057 40.0488 25.3057 40.4727L25.3154 40.6943C25.4125 41.7813 26.2367 42.5276 27.7891 42.9326L28.0537 43.0039L28.1133 43.0205V43.8809L27.9434 43.8711C27.7786 43.8531 27.6271 43.8083 27.4893 43.7363C27.3053 43.6403 27.1569 43.5004 27.0449 43.3164C26.9811 43.2287 26.9136 43.1848 26.8418 43.1846L26.7695 43.1963L25.1738 43.5322C25.0698 43.5562 25.0176 43.6085 25.0176 43.6885C25.0176 43.7284 25.0213 43.7565 25.0293 43.7725C25.2533 44.3724 25.6377 44.8286 26.1816 45.1406C26.7256 45.4605 27.3975 45.6201 28.1973 45.6201C28.7893 45.6201 29.3135 45.5287 29.7695 45.3447C30.1755 45.1837 30.5013 44.9639 30.748 44.6865L30.8496 44.5645C31.0806 44.2705 31.2104 43.9334 31.2393 43.5537L31.2451 43.3887C31.2451 42.8424 31.1043 42.394 30.8223 42.0439L30.6934 41.9004C30.3254 41.5244 29.6892 41.2203 28.7852 40.9883L28.5332 40.9287C28.3292 40.8807 28.166 40.8252 28.043 40.7637L27.9336 40.7002C27.8057 40.6123 27.7413 40.5085 27.7412 40.3887C27.7412 40.2687 27.7935 40.18 27.8975 40.124C28.0014 40.0601 28.1378 40.0283 28.3057 40.0283L28.3916 40.0332C28.5541 40.0443 28.6936 40.0851 28.8096 40.1602C28.9535 40.2402 29.0777 40.3643 29.1816 40.5322C29.2296 40.6282 29.2977 40.6768 29.3857 40.6768H29.4336L30.9814 40.3164C31.0655 40.2984 31.1177 40.2621 31.1387 40.208L31.1494 40.1484L31.125 40.0645ZM28.7861 43.5928C28.7637 43.6724 28.7073 43.7361 28.6172 43.7842C28.4972 43.8482 28.3293 43.8809 28.1133 43.8809V43.0205C28.3607 43.0877 28.5325 43.1583 28.6289 43.2324C28.7409 43.3124 28.7969 43.4048 28.7969 43.5088L28.7861 43.5928ZM32.1445 40.2529C32.1226 40.4994 32.0221 40.7562 31.8145 40.9639C31.6889 41.0893 31.5502 41.1668 31.4248 41.2188C31.9991 41.8074 32.2451 42.5677 32.2451 43.3887L32.2363 43.6338C32.1924 44.2005 31.993 44.7257 31.6348 45.1816C31.2509 45.6804 30.735 46.0376 30.1377 46.2744L30.1367 46.2734C29.542 46.5123 28.8895 46.6201 28.1973 46.6201C27.2697 46.6201 26.4153 46.4347 25.6836 46.0068V46.0078C24.947 45.5853 24.4179 44.9594 24.1113 44.168C24.0663 44.0639 24.0424 43.9635 24.0303 43.8809L24.0176 43.6885L24.0205 43.6152C24.1103 43.4233 24.1822 43.2229 24.2373 43.0137C24.2707 42.9682 24.3079 42.9235 24.3496 42.8818C24.5549 42.6767 24.7916 42.5938 24.9482 42.5576L24.9678 42.5537L25.0625 42.5332C24.5582 41.9571 24.3057 41.2537 24.3057 40.4727C24.3057 39.8461 24.4873 39.261 24.8584 38.7539L24.8604 38.751C25.2302 38.2499 25.7289 37.8852 26.3115 37.6416C26.8946 37.3978 27.5335 37.2881 28.209 37.2881C29.0788 37.2881 29.8859 37.4582 30.5645 37.8711H30.5654C30.567 37.872 30.5687 37.8731 30.5703 37.874C30.5742 37.8764 30.5782 37.8785 30.582 37.8809H30.5811C31.1949 38.2476 31.6455 38.7784 31.9434 39.4268L32.0625 39.7148L32.0762 39.752L32.0869 39.79L32.1113 39.874L32.1494 40.0088V40.1484L32.1445 40.2529Z" fill="#202020"/>
<path d="M24.3711 41.9482C24.3711 41.3252 24.2489 40.7632 24.0039 40.2627L23.8906 40.0527C23.6106 39.5627 23.2302 39.17 22.748 38.876L22.5352 38.7568C22.0241 38.4838 21.4393 38.33 20.7812 38.2959L20.4951 38.2881C19.7191 38.2881 19.0391 38.4448 18.4551 38.7568L18.2422 38.876C17.76 39.17 17.3787 39.5627 17.0986 40.0527L16.9863 40.2627C16.7412 40.7632 16.6192 41.3252 16.6191 41.9482L16.626 42.2148C16.661 42.8271 16.8188 43.3783 17.0986 43.8682C17.4186 44.4202 17.8711 44.8483 18.4551 45.1523C18.9659 45.4253 19.5502 45.5791 20.208 45.6133L20.4951 45.6201C21.271 45.6201 21.9512 45.4643 22.5352 45.1523C23.1191 44.8483 23.5707 44.4201 23.8906 43.8682C24.1706 43.3782 24.3283 42.8272 24.3633 42.2148L24.3711 41.9482ZM20.9473 41.9482C20.9472 41.6929 20.8785 41.5778 20.8115 41.5068L20.8066 41.502L20.8018 41.4961C20.7484 41.4379 20.6796 41.3887 20.4951 41.3887C20.3152 41.3887 20.2349 41.4359 20.1709 41.502C20.1084 41.5726 20.043 41.6919 20.043 41.9482L20.0547 42.1221C20.0762 42.2644 20.1253 42.35 20.1768 42.4111C20.24 42.4745 20.3199 42.5205 20.4951 42.5205V43.5205L20.3369 43.5137C19.9763 43.4822 19.6765 43.3399 19.4385 43.0879C19.2077 42.8289 19.0776 42.5057 19.0488 42.1182L19.043 41.9482C19.043 41.4844 19.1746 41.1083 19.4385 40.8203C19.7105 40.5323 20.0631 40.3887 20.4951 40.3887L20.6533 40.3955C21.0128 40.4271 21.3081 40.5684 21.5391 40.8203C21.811 41.1083 21.9472 41.4843 21.9473 41.9482L21.9404 42.1182C21.9107 42.5057 21.7769 42.8289 21.5391 43.0879C21.2751 43.3759 20.927 43.5205 20.4951 43.5205V42.5205C20.6794 42.5205 20.7484 42.4712 20.8018 42.4131L20.8027 42.4121C20.8791 42.329 20.9473 42.203 20.9473 41.9482ZM25.3613 42.2734C25.3358 42.7169 25.2562 43.1434 25.1211 43.5498C25.0522 43.5778 25.0176 43.6234 25.0176 43.6885C25.0176 43.7284 25.0213 43.7565 25.0293 43.7725C25.0311 43.7774 25.0333 43.7822 25.0352 43.7871C24.957 43.9848 24.8655 44.1775 24.7588 44.3643L24.7559 44.3701C24.3376 45.0915 23.7434 45.6504 22.9971 46.0391L22.9961 46.0381C22.2464 46.4364 21.4033 46.6201 20.4951 46.6201C19.5831 46.6201 18.7355 46.436 17.9834 46.0342V46.0332C17.3346 45.6935 16.8006 45.2256 16.3984 44.6328L16.2334 44.3701L16.2305 44.3643C15.8145 43.6362 15.6191 42.8215 15.6191 41.9482C15.6192 41.0811 15.8152 40.2722 16.2334 39.5508C16.6487 38.8262 17.2393 38.2635 17.9834 37.874C18.7355 37.4722 19.5831 37.2881 20.4951 37.2881C21.4031 37.2881 22.2466 37.4711 22.9961 37.8691C23.7445 38.2587 24.3378 38.8234 24.7549 39.5508H24.7559C25.1741 40.2722 25.3711 41.081 25.3711 41.9482L25.3613 42.2734Z" fill="#202020"/>
<path d="M11.5078 45.3184C11.5153 45.3618 11.5345 45.3988 11.5645 45.4287C11.5945 45.4586 11.6313 45.4769 11.6748 45.4844L11.7207 45.4883H13.7842C13.8321 45.4883 13.8737 45.4775 13.9082 45.4551L13.9404 45.4287C13.9704 45.3988 13.9886 45.3617 13.9961 45.3184L14 45.2725V41.8643L17.4688 35.9727C17.4928 35.9327 17.5039 35.8963 17.5039 35.8643C17.5039 35.8243 17.4842 35.7925 17.4443 35.7686C17.4284 35.7526 17.4095 35.7404 17.3877 35.7324L17.3125 35.7207V34.7207C17.5369 34.7207 17.8137 34.7825 18.0557 34.9766C18.2982 35.1585 18.5039 35.462 18.5039 35.8643C18.5039 36.1421 18.4024 36.3577 18.3252 36.4863L15 42.1377V45.2725L14.9951 45.3828C14.9725 45.6424 14.8686 45.9146 14.6475 46.1357C14.3947 46.3884 14.0754 46.4883 13.7842 46.4883H11.7207C11.466 46.4883 11.1894 46.412 10.9551 46.2236L10.8574 46.1357C10.6047 45.883 10.5039 45.5637 10.5039 45.2725V42.1826L7.17285 36.4766L7.17383 36.4756C7.10737 36.3626 7.02474 36.188 7.00488 35.9658L7 35.8643L7.00781 35.7324C7.0404 35.4531 7.1774 35.1996 7.39258 35.0156C7.64477 34.7912 7.94215 34.7207 8.18066 34.7207V35.7207L8.10547 35.7324C8.08342 35.7404 8.06388 35.7525 8.04785 35.7686C8.01614 35.7925 8.00003 35.8245 8 35.8643C8 35.8963 8.01213 35.9327 8.03613 35.9727L11.5039 41.9121V45.2725L11.5078 45.3184ZM14.9727 34.7207V35.7207L14.8857 35.7295C14.8076 35.7474 14.7565 35.7922 14.7324 35.8643L12.7881 39.668L10.8203 35.8643C10.7784 35.7924 10.7184 35.7475 10.6406 35.7295L10.5566 35.7207V34.7207C10.9425 34.7208 11.3231 34.88 11.5811 35.209L11.6846 35.3604L11.6973 35.3828L11.708 35.4053L12.7822 37.4805L13.8271 35.4385C13.921 35.2269 14.0775 35.033 14.3018 34.8984C14.5446 34.7528 14.7922 34.7207 14.9727 34.7207ZM17.3125 34.7207V35.7207H14.9727V34.7207H17.3125ZM10.5566 34.7207V35.7207H8.18066V34.7207H10.5566Z" fill="#202020"/>
</svg>
