<svg width="80" height="80" viewBox="0 0 80 80" fill="none" xmlns="http://www.w3.org/2000/svg">
<rect width="80" height="80" fill="#222222"/>
<path d="M72.2568 41.248C72.2568 40.625 72.1347 40.063 71.8896 39.5625L71.7764 39.3525C71.4964 38.8626 71.1159 38.4698 70.6338 38.1758L70.4209 38.0566C69.9099 37.7836 69.3251 37.6298 68.667 37.5957L68.3809 37.5879C67.6049 37.5879 66.9248 37.7446 66.3408 38.0566L66.1279 38.1758C65.6457 38.4698 65.2644 38.8625 64.9844 39.3525L64.8721 39.5625C64.627 40.063 64.5049 40.625 64.5049 41.248L64.5117 41.5146C64.5467 42.127 64.7045 42.6781 64.9844 43.168C65.3044 43.72 65.7568 44.1481 66.3408 44.4521C66.8517 44.7251 67.436 44.8789 68.0938 44.9131L68.3809 44.9199C69.1568 44.9199 69.8369 44.7641 70.4209 44.4521C71.0048 44.1482 71.4564 43.7199 71.7764 43.168C72.0563 42.678 72.214 42.127 72.249 41.5146L72.2568 41.248ZM69.5322 41.248C69.5322 40.8968 69.4444 40.6249 69.2812 40.4131L69.207 40.3262L69.2031 40.3232C69.0023 40.1042 68.7386 39.9883 68.3809 39.9883C68.0248 39.9883 67.7553 40.1031 67.5459 40.3232L67.4736 40.4102C67.3154 40.6219 67.2285 40.8948 67.2285 41.248C67.2285 41.6511 67.3416 41.9557 67.5479 42.1875C67.757 42.4062 68.026 42.5205 68.3809 42.5205V42.8203L68.2227 42.8135C67.8621 42.782 67.5623 42.6397 67.3242 42.3877C67.0934 42.1287 66.9634 41.8055 66.9346 41.418L66.9287 41.248C66.9287 40.7842 67.0604 40.4081 67.3242 40.1201C67.5962 39.8321 67.9489 39.6885 68.3809 39.6885L68.5391 39.6953C68.8985 39.7269 69.1939 39.8682 69.4248 40.1201C69.6968 40.4081 69.833 40.7841 69.833 41.248L69.8262 41.418C69.7965 41.8055 69.6627 42.1287 69.4248 42.3877L69.3213 42.4893C69.072 42.7096 68.7587 42.8203 68.3809 42.8203V42.5205C68.7384 42.5205 69.0024 42.4044 69.2031 42.1855H69.2041L69.2793 42.0947C69.4443 41.8756 69.5322 41.5991 69.5322 41.248ZM72.5566 41.248C72.5566 42.014 72.3859 42.707 72.0371 43.3174L72.0361 43.3184C71.6866 43.9212 71.1914 44.3884 70.5586 44.7178C69.9249 45.0556 69.1963 45.2197 68.3809 45.2197C67.5652 45.2197 66.836 45.0558 66.2021 44.7178C65.6485 44.4295 65.2007 44.0359 64.8633 43.5381L64.7256 43.3184L64.7246 43.3174C64.3758 42.707 64.2051 42.014 64.2051 41.248C64.2051 40.4896 64.3762 39.8049 64.7256 39.2021C65.0747 38.5918 65.5687 38.1198 66.2021 37.79C66.8359 37.4521 67.5653 37.2881 68.3809 37.2881C69.1962 37.2881 69.925 37.4523 70.5586 37.79C71.1921 38.1198 71.687 38.5917 72.0361 39.2021C72.3855 39.8049 72.5566 40.4896 72.5566 41.248Z" fill="#CCCCCC"/>
<path d="M60.9922 44.6182C60.9997 44.6615 61.0179 44.6986 61.0479 44.7285C61.0778 44.7584 61.1148 44.7767 61.1582 44.7842L61.2041 44.7881H63.1719C63.2198 44.7881 63.2614 44.7773 63.2959 44.7549L63.3281 44.7285C63.3581 44.6986 63.3763 44.6615 63.3838 44.6182L63.3877 44.5723V40.1807C63.3877 39.4665 63.2135 38.8896 62.8643 38.4512L62.7041 38.2725C62.2481 37.8165 61.6119 37.5879 60.7959 37.5879C59.9401 37.5879 59.272 37.8679 58.792 38.4277V35.0205C58.792 34.9566 58.7723 34.9042 58.7324 34.8643C58.7025 34.8343 58.6655 34.8151 58.6221 34.8076L58.5762 34.8037V34.5039C58.6752 34.5039 58.7742 34.5289 58.8613 34.585L58.9443 34.6523C59.0222 34.7303 59.0668 34.824 59.084 34.9219L59.0918 35.0205V37.7617C59.5643 37.4436 60.1369 37.2881 60.7959 37.2881C61.6691 37.2881 62.3898 37.5336 62.916 38.0596C63.4422 38.5858 63.6885 39.3073 63.6885 40.1807V44.5723L63.6797 44.6709C63.6624 44.7687 63.6179 44.8626 63.54 44.9404C63.4362 45.0442 63.304 45.0879 63.1719 45.0879H61.2041C61.105 45.0879 61.0061 45.063 60.9189 45.0068L60.8359 44.9404C60.7321 44.8366 60.6885 44.7044 60.6885 44.5723V41.0801C60.6885 40.6695 60.627 40.4107 60.5439 40.2607L60.5068 40.2031L60.5039 40.1982C60.4157 40.0748 60.2651 39.9884 59.9805 39.9883C59.7081 39.9883 59.5073 40.0858 59.3506 40.2832L59.3486 40.2861C59.1932 40.4761 59.0918 40.7814 59.0918 41.248V44.5723L59.084 44.6709C59.0667 44.7687 59.0222 44.8625 58.9443 44.9404C58.8405 45.0442 58.7083 45.0879 58.5762 45.0879H56.6084C56.5091 45.0879 56.4095 45.0632 56.3223 45.0068L56.2402 44.9404C56.1364 44.8366 56.0918 44.7044 56.0918 44.5723V35.0205C56.0918 34.8883 56.1364 34.7562 56.2402 34.6523L56.3223 34.585C56.4095 34.5287 56.5092 34.5039 56.6084 34.5039V34.8037L56.5625 34.8076C56.5189 34.8151 56.4822 34.8342 56.4521 34.8643C56.4121 34.9043 56.3916 34.9565 56.3916 35.0205V44.5723C56.3916 44.6362 56.4122 44.6885 56.4521 44.7285C56.4821 44.7584 56.519 44.7767 56.5625 44.7842L56.6084 44.7881H58.5762L58.6221 44.7842C58.651 44.7792 58.6773 44.7699 58.7002 44.7549L58.7324 44.7285C58.7623 44.6986 58.7806 44.6615 58.7881 44.6182L58.792 44.5723V41.248C58.792 40.8073 58.8748 40.4584 59.04 40.2012L59.1162 40.0957C59.3322 39.824 59.6206 39.6885 59.9805 39.6885L60.1074 39.6934C60.3945 39.7178 60.608 39.8284 60.748 40.0244C60.908 40.2404 60.9883 40.5923 60.9883 41.0801V44.5723L60.9922 44.6182ZM58.5762 34.5039V34.8037H56.6084V34.5039H58.5762Z" fill="#CCCCCC"/>
<path d="M52.458 44.6182C52.4655 44.6616 52.4847 44.6986 52.5146 44.7285C52.5446 44.7584 52.5815 44.7767 52.625 44.7842L52.6709 44.7881H54.6387L54.6846 44.7842C54.7135 44.7792 54.7398 44.7699 54.7627 44.7549L54.7949 44.7285C54.8248 44.6986 54.8431 44.6615 54.8506 44.6182L54.8545 44.5723V37.9238C54.8544 37.8602 54.8347 37.8122 54.7949 37.7803C54.765 37.7503 54.728 37.7312 54.6846 37.7236L54.6387 37.7197V37.4199C54.7606 37.42 54.8808 37.4595 54.9805 37.5469L54.9814 37.5459C55.1099 37.6487 55.1542 37.7937 55.1543 37.9238V44.5723L55.1465 44.6709C55.1292 44.7687 55.0847 44.8625 55.0068 44.9404C54.903 45.0442 54.7708 45.0879 54.6387 45.0879H52.6709C52.5716 45.0879 52.472 45.0632 52.3848 45.0068L52.3027 44.9404C52.1989 44.8366 52.1543 44.7044 52.1543 44.5723V37.9238C52.1544 37.7937 52.1987 37.6487 52.3271 37.5459L52.3281 37.5469C52.4279 37.4593 52.5488 37.4199 52.6709 37.4199V37.7197L52.625 37.7236C52.5814 37.7311 52.5447 37.7502 52.5146 37.7803C52.4747 37.8122 52.4542 37.86 52.4541 37.9238V44.5723L52.458 44.6182ZM54.6387 37.4199V37.7197H52.6709V37.4199H54.6387ZM54.9746 35.5479C54.9745 35.226 54.8766 34.9561 54.6807 34.7383L54.5908 34.6484C54.3428 34.4164 54.0303 34.2998 53.6543 34.2998C53.2784 34.2999 52.962 34.4165 52.7061 34.6484C52.4584 34.8803 52.335 35.1802 52.335 35.5479L52.3408 35.6826C52.3679 35.9898 52.4891 36.2452 52.7061 36.4482C52.962 36.6722 53.2784 36.7841 53.6543 36.7842C53.9831 36.7842 54.2632 36.6986 54.4941 36.5273L54.5908 36.4482C54.8148 36.2452 54.9408 35.9899 54.9688 35.6826L54.9746 35.5479ZM55.2744 35.5479C55.2744 35.9943 55.1152 36.378 54.792 36.6709C54.4819 36.951 54.0946 37.084 53.6543 37.084C53.214 37.0839 52.8253 36.9508 52.5088 36.6738L52.501 36.667V36.666C52.1875 36.3723 52.0342 35.9907 52.0342 35.5479C52.0343 35.1047 52.188 34.7224 52.502 34.4287L52.5049 34.4258C52.8211 34.1392 53.2111 34 53.6543 34C54.0975 34 54.4862 34.139 54.7959 34.4287H54.7949C55.116 34.7212 55.2743 35.1029 55.2744 35.5479Z" fill="#CCCCCC"/>
<path d="M48.582 44.6182C48.5896 44.6615 48.6078 44.6986 48.6377 44.7285C48.6677 44.7584 48.7046 44.7767 48.748 44.7842L48.7939 44.7881H50.7617C50.8097 44.7881 50.8513 44.7773 50.8857 44.7549L50.918 44.7285C50.9479 44.6986 50.9661 44.6615 50.9736 44.6182L50.9775 44.5723V40.1807C50.9775 39.4665 50.8034 38.8896 50.4541 38.4512L50.2939 38.2725C49.8379 37.8165 49.2017 37.5879 48.3857 37.5879C47.5299 37.5879 46.8618 37.8679 46.3818 38.4277V35.0205C46.3818 34.9566 46.3621 34.9042 46.3223 34.8643C46.2923 34.8343 46.2553 34.8151 46.2119 34.8076L46.166 34.8037V34.5039C46.265 34.5039 46.3641 34.5289 46.4512 34.585L46.5342 34.6523C46.612 34.7303 46.6566 34.824 46.6738 34.9219L46.6816 35.0205V37.7617C47.1541 37.4436 47.7268 37.2881 48.3857 37.2881C49.2589 37.2881 49.9797 37.5336 50.5059 38.0596C51.0321 38.5858 51.2783 39.3073 51.2783 40.1807V44.5723L51.2695 44.6709C51.2523 44.7687 51.2078 44.8626 51.1299 44.9404C51.0261 45.0442 50.8938 45.0879 50.7617 45.0879H48.7939C48.6948 45.0879 48.5959 45.063 48.5088 45.0068L48.4258 44.9404C48.322 44.8366 48.2783 44.7044 48.2783 44.5723V41.0801C48.2783 40.6695 48.2168 40.4107 48.1338 40.2607L48.0967 40.2031L48.0938 40.1982C48.0055 40.0748 47.855 39.9884 47.5703 39.9883C47.298 39.9883 47.0972 40.0858 46.9404 40.2832L46.9385 40.2861C46.783 40.4761 46.6817 40.7814 46.6816 41.248V44.5723L46.6738 44.6709C46.6566 44.7687 46.612 44.8625 46.5342 44.9404C46.4304 45.0442 46.2981 45.0879 46.166 45.0879H44.1982C44.0989 45.0879 43.9994 45.0632 43.9121 45.0068L43.8301 44.9404C43.7263 44.8366 43.6817 44.7044 43.6816 44.5723V35.0205C43.6816 34.8883 43.7262 34.7562 43.8301 34.6523L43.9121 34.585C43.9993 34.5287 44.099 34.5039 44.1982 34.5039V34.8037L44.1523 34.8076C44.1087 34.8151 44.0721 34.8342 44.042 34.8643C44.002 34.9043 43.9814 34.9565 43.9814 35.0205V44.5723C43.9815 44.6362 44.002 44.6885 44.042 44.7285C44.072 44.7584 44.1089 44.7767 44.1523 44.7842L44.1982 44.7881H46.166L46.2119 44.7842C46.2408 44.7792 46.2671 44.7699 46.29 44.7549L46.3223 44.7285C46.3522 44.6986 46.3704 44.6615 46.3779 44.6182L46.3818 44.5723V41.248C46.3819 40.8073 46.4646 40.4584 46.6299 40.2012L46.7061 40.0957C46.922 39.824 47.2105 39.6885 47.5703 39.6885L47.6973 39.6934C47.9843 39.7178 48.1979 39.8284 48.3379 40.0244C48.4978 40.2404 48.5781 40.5923 48.5781 41.0801V44.5723L48.582 44.6182ZM46.166 34.5039V34.8037H44.1982V34.5039H46.166Z" fill="#CCCCCC"/>
<path d="M40.0479 44.6182C40.0554 44.6616 40.0745 44.6986 40.1045 44.7285C40.1345 44.7584 40.1714 44.7767 40.2148 44.7842L40.2607 44.7881H42.2285L42.2744 44.7842C42.3033 44.7792 42.3296 44.7699 42.3525 44.7549L42.3848 44.7285C42.4147 44.6986 42.4329 44.6615 42.4404 44.6182L42.4443 44.5723V37.9238C42.4443 37.8602 42.4245 37.8122 42.3848 37.7803C42.3548 37.7503 42.3178 37.7312 42.2744 37.7236L42.2285 37.7197V37.4199C42.3504 37.42 42.4707 37.4595 42.5703 37.5469L42.5713 37.5459C42.6998 37.6487 42.7441 37.7937 42.7441 37.9238V44.5723L42.7363 44.6709C42.7191 44.7687 42.6745 44.8625 42.5967 44.9404C42.4929 45.0442 42.3606 45.0879 42.2285 45.0879H40.2607C40.1614 45.0879 40.0619 45.0632 39.9746 45.0068L39.8926 44.9404C39.7888 44.8366 39.7442 44.7044 39.7441 44.5723V37.9238C39.7442 37.7937 39.7885 37.6487 39.917 37.5459L39.918 37.5469C40.0177 37.4593 40.1387 37.4199 40.2607 37.4199V37.7197L40.2148 37.7236C40.1712 37.7311 40.1346 37.7502 40.1045 37.7803C40.0646 37.8122 40.044 37.86 40.0439 37.9238V44.5723L40.0479 44.6182ZM42.2285 37.4199V37.7197H40.2607V37.4199H42.2285ZM42.5645 35.5479C42.5644 35.226 42.4664 34.9561 42.2705 34.7383L42.1807 34.6484C41.9327 34.4164 41.6201 34.2998 41.2441 34.2998C40.8682 34.2999 40.5518 34.4165 40.2959 34.6484C40.0482 34.8803 39.9249 35.1802 39.9248 35.5479L39.9307 35.6826C39.9577 35.9898 40.079 36.2452 40.2959 36.4482C40.5518 36.6722 40.8682 36.7841 41.2441 36.7842C41.5729 36.7842 41.8531 36.6986 42.084 36.5273L42.1807 36.4482C42.4047 36.2452 42.5307 35.9899 42.5586 35.6826L42.5645 35.5479ZM42.8643 35.5479C42.8643 35.9943 42.7051 36.378 42.3818 36.6709C42.0717 36.951 41.6844 37.084 41.2441 37.084C40.8038 37.0839 40.4152 36.9508 40.0986 36.6738L40.0908 36.667V36.666C39.7774 36.3723 39.624 35.9907 39.624 35.5479C39.6241 35.1047 39.7778 34.7224 40.0918 34.4287L40.0947 34.4258C40.4109 34.1392 40.8009 34 41.2441 34C41.6874 34 42.076 34.139 42.3857 34.4287H42.3848C42.7059 34.7212 42.8642 35.1029 42.8643 35.5479Z" fill="#CCCCCC"/>
<path d="M36.1719 44.6182C36.1794 44.6615 36.1976 44.6986 36.2275 44.7285C36.2575 44.7584 36.2945 44.7767 36.3379 44.7842L36.3838 44.7881H38.3516C38.3995 44.7881 38.4411 44.7773 38.4756 44.7549L38.5078 44.7285C38.5377 44.6986 38.5559 44.6615 38.5635 44.6182L38.5674 44.5723V40.1807C38.5674 39.4665 38.3932 38.8896 38.0439 38.4512L37.8838 38.2725C37.4278 37.8165 36.7916 37.5879 35.9756 37.5879C35.1198 37.5879 34.4516 37.8679 33.9717 38.4277V35.0205C33.9717 34.9566 33.952 34.9042 33.9121 34.8643C33.8822 34.8343 33.8452 34.8151 33.8018 34.8076L33.7559 34.8037V34.5039C33.8549 34.5039 33.9539 34.5289 34.041 34.585L34.124 34.6523C34.2019 34.7303 34.2465 34.824 34.2637 34.9219L34.2715 35.0205V37.7617C34.7439 37.4436 35.3166 37.2881 35.9756 37.2881C36.8488 37.2881 37.5695 37.5336 38.0957 38.0596C38.6219 38.5858 38.8682 39.3073 38.8682 40.1807V44.5723L38.8594 44.6709C38.8421 44.7687 38.7976 44.8626 38.7197 44.9404C38.6159 45.0442 38.4837 45.0879 38.3516 45.0879H36.3838C36.2847 45.0879 36.1858 45.063 36.0986 45.0068L36.0156 44.9404C35.9118 44.8366 35.8682 44.7044 35.8682 44.5723V41.0801C35.8682 40.6695 35.8067 40.4107 35.7236 40.2607L35.6865 40.2031L35.6836 40.1982C35.5954 40.0748 35.4448 39.9884 35.1602 39.9883C34.8878 39.9883 34.687 40.0858 34.5303 40.2832L34.5283 40.2861C34.3729 40.4761 34.2715 40.7814 34.2715 41.248V44.5723L34.2637 44.6709C34.2464 44.7687 34.2019 44.8625 34.124 44.9404C34.0202 45.0442 33.888 45.0879 33.7559 45.0879H31.7881C31.6888 45.0879 31.5892 45.0632 31.502 45.0068L31.4199 44.9404C31.3161 44.8366 31.2715 44.7044 31.2715 44.5723V35.0205C31.2715 34.8883 31.3161 34.7562 31.4199 34.6523L31.502 34.585C31.5892 34.5287 31.6889 34.5039 31.7881 34.5039V34.8037L31.7422 34.8076C31.6986 34.8151 31.6619 34.8342 31.6318 34.8643C31.5918 34.9043 31.5713 34.9565 31.5713 35.0205V44.5723C31.5713 44.6362 31.5919 44.6885 31.6318 44.7285C31.6618 44.7584 31.6987 44.7767 31.7422 44.7842L31.7881 44.7881H33.7559L33.8018 44.7842C33.8307 44.7792 33.8569 44.7699 33.8799 44.7549L33.9121 44.7285C33.942 44.6986 33.9602 44.6615 33.9678 44.6182L33.9717 44.5723V41.248C33.9717 40.8073 34.0545 40.4584 34.2197 40.2012L34.2959 40.0957C34.5119 39.824 34.8003 39.6885 35.1602 39.6885L35.2871 39.6934C35.5742 39.7178 35.7877 39.8284 35.9277 40.0244C36.0876 40.2404 36.168 40.5923 36.168 41.0801V44.5723L36.1719 44.6182ZM33.7559 34.5039V34.8037H31.7881V34.5039H33.7559Z" fill="#CCCCCC"/>
<path d="M30.5449 42.6885C30.5449 42.0645 30.3612 41.5682 29.9932 41.2002C29.6252 40.8242 28.989 40.5201 28.085 40.2881L27.833 40.2285C27.629 40.1805 27.4658 40.125 27.3428 40.0635L27.2334 40C27.1374 39.934 27.0768 39.8594 27.0527 39.7754L27.041 39.6885C27.041 39.5986 27.0706 39.5266 27.1289 39.4727L27.1973 39.4238C27.3012 39.3599 27.4376 39.3281 27.6055 39.3281L27.749 39.3369C27.8871 39.3534 28.0074 39.394 28.1094 39.46C28.2533 39.54 28.3775 39.6641 28.4814 39.832C28.5175 39.904 28.5645 39.9488 28.623 39.9668L28.6855 39.9766H28.7334L30.2812 39.6162C30.3653 39.5982 30.4176 39.5619 30.4385 39.5078L30.4492 39.4482L30.4248 39.3643C30.2288 38.8393 29.9322 38.4336 29.5342 38.1475L29.3574 38.0322C28.8774 37.7362 28.2608 37.5879 27.5088 37.5879C26.9409 37.5879 26.437 37.6803 25.9971 37.8643L25.8369 37.9365C25.4728 38.1142 25.1819 38.3505 24.9648 38.6445C24.725 38.9724 24.6055 39.3486 24.6055 39.7725L24.6152 39.9941C24.7123 41.0811 25.5365 41.8274 27.0889 42.2324L27.3535 42.3037C27.6332 42.3756 27.8247 42.4523 27.9287 42.5322L27.7461 42.7695C27.6942 42.7297 27.5545 42.6658 27.2783 42.5947L27.2744 42.5938L27.0098 42.5215V42.5205C26.8447 42.4773 26.6866 42.4293 26.5352 42.3779L26.5879 42.4395L26.5947 42.4492L26.6016 42.46C26.665 42.5642 26.7414 42.6476 26.832 42.7119L26.9277 42.7705C27.064 42.8416 27.2237 42.8799 27.4131 42.8799V43.1807L27.2432 43.1709C27.0784 43.1529 26.9269 43.1081 26.7891 43.0361C26.6051 42.9401 26.4567 42.8002 26.3447 42.6162C26.2809 42.5285 26.2134 42.4846 26.1416 42.4844L26.0693 42.4961L24.4736 42.832C24.3696 42.856 24.3174 42.9083 24.3174 42.9883L24.3203 43.0391C24.3223 43.0531 24.3251 43.0642 24.3291 43.0723C24.5531 43.6722 24.9375 44.1284 25.4814 44.4404C26.0254 44.7603 26.6973 44.9199 27.4971 44.9199C28.0891 44.9199 28.6133 44.8285 29.0693 44.6445C29.4753 44.4835 29.8011 44.2637 30.0479 43.9863L30.1494 43.8643C30.3804 43.5703 30.5102 43.2332 30.5391 42.8535L30.5449 42.6885ZM28.0029 42.5947C28.0657 42.6591 28.0967 42.7307 28.0967 42.8086L28.0859 42.8926C28.0635 42.9722 28.0071 43.0359 27.917 43.084C27.797 43.148 27.6291 43.1807 27.4131 43.1807V42.8799C27.6059 42.8799 27.7181 42.8504 27.7764 42.8193C27.7824 42.8161 27.7864 42.812 27.79 42.8096L27.7549 42.7764L27.7461 42.7705L27.9287 42.5322L28.0029 42.5947ZM27.6055 39.6279C27.473 39.6279 27.3966 39.6538 27.3545 39.6797L27.3467 39.6846L27.3408 39.6875V39.6885L27.3447 39.6992L27.4033 39.7529C27.4648 39.7951 27.5682 39.8428 27.7256 39.8896L27.9023 39.9365L28.1543 39.9961L28.1602 39.9971V39.998C28.1897 40.0056 28.2189 40.0137 28.248 40.0215C28.241 40.0101 28.2328 39.9998 28.2266 39.9883L28.2256 39.9902C28.1637 39.8904 28.0986 39.8178 28.0312 39.7666L27.9639 39.7227L27.9551 39.7178L27.9463 39.7119C27.8692 39.662 27.7611 39.628 27.6055 39.6279ZM30.7412 39.5332C30.726 39.6181 30.6873 39.7004 30.6191 39.7686C30.5371 39.8505 30.4353 39.8879 30.3477 39.9072L30.3486 39.9082L28.9316 40.2373C29.4785 40.44 29.9107 40.6865 30.208 40.9902H30.207C30.6409 41.4252 30.8447 42.0029 30.8447 42.6885L30.8379 42.8779C30.8046 43.3121 30.654 43.7033 30.3867 44.0449L30.3877 44.0459C30.0933 44.4323 29.6855 44.7215 29.1807 44.9219C28.6826 45.1228 28.1197 45.2197 27.4971 45.2197C26.6578 45.2197 25.9299 45.0526 25.3291 44.6992V44.6982C24.7246 44.3507 24.2953 43.8397 24.0479 43.1768L24.0488 43.1758C24.0196 43.1007 24.0176 43.0259 24.0176 42.9883C24.0176 42.8765 24.0561 42.7642 24.1436 42.6768C24.2233 42.597 24.3219 42.5593 24.4053 42.54L24.4111 42.5381L26.0078 42.2021L26.0195 42.2002L26.0596 42.1934C25.6415 42.0065 25.2905 41.779 25.0146 41.5059C24.5418 41.0374 24.3048 40.4529 24.3047 39.7725C24.3047 39.2877 24.4434 38.8485 24.7227 38.4668L24.7236 38.4658C25.0082 38.0803 25.3991 37.7898 25.8818 37.5879C26.3646 37.386 26.9087 37.2881 27.5088 37.2881C28.2959 37.2881 28.97 37.4422 29.5098 37.7734C30.0645 38.1008 30.4613 38.6035 30.7061 39.2588L30.7139 39.2822L30.7373 39.3662L30.749 39.4062V39.4482L30.7412 39.5332Z" fill="#CCCCCC"/>
<path d="M23.6709 41.248C23.6709 40.625 23.5487 40.063 23.3037 39.5625L23.1904 39.3525C22.9104 38.8626 22.53 38.4698 22.0479 38.1758L21.835 38.0566C21.3239 37.7836 20.7391 37.6298 20.0811 37.5957L19.7949 37.5879C19.0189 37.5879 18.3389 37.7446 17.7549 38.0566L17.542 38.1758C17.0598 38.4698 16.6785 38.8625 16.3984 39.3525L16.2861 39.5625C16.0411 40.063 15.919 40.625 15.9189 41.248L15.9258 41.5146C15.9608 42.127 16.1186 42.6781 16.3984 43.168C16.7184 43.72 17.1709 44.1481 17.7549 44.4521C18.2658 44.7251 18.85 44.8789 19.5078 44.9131L19.7949 44.9199C20.5708 44.9199 21.251 44.7641 21.835 44.4521C22.4189 44.1482 22.8705 43.7199 23.1904 43.168C23.4704 42.678 23.6281 42.127 23.6631 41.5146L23.6709 41.248ZM20.9463 41.248C20.9463 40.8968 20.8585 40.6249 20.6953 40.4131L20.6211 40.3262L20.6172 40.3232C20.4164 40.1042 20.1526 39.9883 19.7949 39.9883C19.4388 39.9883 19.1694 40.1031 18.96 40.3232L18.8877 40.4102C18.7294 40.6219 18.6426 40.8948 18.6426 41.248C18.6426 41.6511 18.7556 41.9557 18.9619 42.1875C19.1711 42.4062 19.44 42.5205 19.7949 42.5205V42.8203L19.6367 42.8135C19.2761 42.782 18.9763 42.6397 18.7383 42.3877C18.5075 42.1287 18.3774 41.8055 18.3486 41.418L18.3428 41.248C18.3428 40.7842 18.4744 40.4081 18.7383 40.1201C19.0103 39.8321 19.3629 39.6885 19.7949 39.6885L19.9531 39.6953C20.3126 39.7269 20.6079 39.8682 20.8389 40.1201C21.1108 40.4081 21.247 40.7841 21.2471 41.248L21.2402 41.418C21.2105 41.8055 21.0767 42.1287 20.8389 42.3877L20.7354 42.4893C20.486 42.7096 20.1728 42.8203 19.7949 42.8203V42.5205C20.1525 42.5205 20.4164 42.4044 20.6172 42.1855H20.6182L20.6934 42.0947C20.8584 41.8756 20.9463 41.5991 20.9463 41.248ZM23.9707 41.248C23.9707 42.014 23.8 42.707 23.4512 43.3174L23.4502 43.3184C23.1007 43.9212 22.6055 44.3884 21.9727 44.7178C21.339 45.0556 20.6103 45.2197 19.7949 45.2197C18.9792 45.2197 18.25 45.0558 17.6162 44.7178C17.0626 44.4295 16.6148 44.0359 16.2773 43.5381L16.1396 43.3184L16.1387 43.3174C15.7899 42.707 15.6191 42.014 15.6191 41.248C15.6192 40.4896 15.7902 39.8049 16.1396 39.2021C16.4888 38.5918 16.9828 38.1198 17.6162 37.79C18.25 37.4521 18.9793 37.2881 19.7949 37.2881C20.6102 37.2881 21.3391 37.4523 21.9727 37.79C22.6061 38.1198 23.1011 38.5917 23.4502 39.2021C23.7995 39.8049 23.9707 40.4896 23.9707 41.248Z" fill="#CCCCCC"/>
<path d="M10.8076 44.6182C10.8151 44.6616 10.8343 44.6986 10.8643 44.7285C10.8943 44.7584 10.9311 44.7767 10.9746 44.7842L11.0205 44.7881H13.084C13.1319 44.7881 13.1735 44.7773 13.208 44.7549L13.2402 44.7285C13.2702 44.6986 13.2884 44.6615 13.2959 44.6182L13.2998 44.5723V41.1641L16.7686 35.2725C16.7926 35.2325 16.8037 35.1961 16.8037 35.1641C16.8037 35.1241 16.784 35.0923 16.7441 35.0684C16.7282 35.0524 16.7094 35.0402 16.6875 35.0322L16.6123 35.0205V34.7197C16.7107 34.7198 16.8162 34.7475 16.9082 34.8174C17.0023 34.8772 17.0809 34.9747 17.0996 35.1045L17.1045 35.1641L17.0977 35.2402C17.0851 35.3124 17.055 35.3742 17.0254 35.4238L17.0264 35.4248L13.6006 41.2441V44.5723L13.5918 44.6709C13.5745 44.7687 13.53 44.8626 13.4521 44.9404C13.3483 45.0442 13.2161 45.0879 13.084 45.0879H11.0205C10.9212 45.0879 10.8216 45.0632 10.7344 45.0068L10.6523 44.9404C10.5485 44.8366 10.5039 44.7044 10.5039 44.5723V41.293L7.07715 35.4238L7.07812 35.4229C7.04877 35.3734 7.01935 35.3119 7.00684 35.2402L7 35.1641L7.01172 35.0664C7.0306 34.9855 7.07425 34.9146 7.13672 34.8574L7.13574 34.8564C7.14024 34.8519 7.14579 34.848 7.15039 34.8438C7.15637 34.8387 7.16166 34.8329 7.16797 34.8281L7.16895 34.8291C7.26419 34.7501 7.37664 34.7197 7.48047 34.7197V35.0205L7.40527 35.0322C7.38322 35.0402 7.36369 35.0523 7.34766 35.0684C7.31594 35.0923 7.29984 35.1243 7.2998 35.1641C7.2998 35.1961 7.31194 35.2325 7.33594 35.2725L10.8037 41.2119V44.5723L10.8076 44.6182ZM14.2725 34.7197V35.0205L14.1855 35.0293C14.1074 35.0472 14.0563 35.092 14.0322 35.1641L12.0879 38.9678L10.1201 35.1641C10.0782 35.0922 10.0182 35.0473 9.94043 35.0293L9.85645 35.0205V34.7197C10.0725 34.7198 10.2642 34.8163 10.3789 35.0127L10.3867 35.0264L12.0859 38.3115L13.7646 35.0273C13.8043 34.9353 13.8691 34.8545 13.9619 34.7988C14.0627 34.7384 14.1736 34.7197 14.2725 34.7197ZM16.6123 34.7197V35.0205H14.2725V34.7197H16.6123ZM9.85645 34.7197V35.0205H7.48047V34.7197H9.85645Z" fill="#CCCCCC"/>
</svg>
