<svg width="80" height="80" viewBox="0 0 80 80" fill="none" xmlns="http://www.w3.org/2000/svg">
<rect width="80" height="80" fill="#F0F0F0"/>
<path d="M69.2578 41.7441C69.2578 41.1492 69.1445 40.6124 68.918 40.1338L68.8135 39.9326C68.5544 39.4635 68.2036 39.086 67.7607 38.8008L67.5654 38.6846C67.0966 38.4256 66.5606 38.2795 65.957 38.2471L65.6934 38.2402C64.9815 38.2403 64.3572 38.3886 63.8213 38.6846L63.626 38.8008C63.1833 39.086 62.8322 39.4637 62.5732 39.9326L62.4697 40.1338C62.2431 40.6124 62.1299 41.1492 62.1299 41.7441L62.1367 41.9951C62.169 42.5737 62.3142 43.0945 62.5732 43.5566C62.8692 44.0844 63.2855 44.496 63.8213 44.792C64.2903 45.051 64.827 45.1971 65.4307 45.2295L65.6934 45.2363C66.4053 45.2363 67.0295 45.0879 67.5654 44.792C68.0344 44.533 68.412 44.1856 68.6973 43.749L68.8135 43.5566C69.0725 43.0945 69.2187 42.5737 69.251 41.9951L69.2578 41.7441ZM67.2178 41.7441C67.2178 41.288 67.1015 40.9302 66.8838 40.6504L66.7852 40.5352L66.7803 40.5303C66.5058 40.2296 66.1522 40.0762 65.6934 40.0762C65.2346 40.0762 64.876 40.2302 64.5928 40.5332C64.3182 40.8275 64.1699 41.2213 64.1699 41.7441L64.1768 41.9316C64.2088 42.354 64.3514 42.6894 64.5928 42.9551C64.8751 43.2494 65.2336 43.4003 65.6934 43.4004V43.7002L65.4971 43.6914C65.1131 43.6576 64.7828 43.5233 64.5068 43.2871L64.374 43.1602C64.08 42.8381 63.9147 42.4364 63.8779 41.9551L63.8701 41.7441C63.8701 41.2332 63.9987 40.8082 64.2559 40.4688L64.374 40.3281C64.7179 39.9603 65.1576 39.7764 65.6934 39.7764L65.8896 39.7852C66.3369 39.8253 66.7079 40.006 67.002 40.3281C67.3459 40.6881 67.5176 41.1602 67.5176 41.7441C67.5176 42.3201 67.3459 42.7922 67.002 43.1602L66.8711 43.2871C66.5552 43.5627 66.1623 43.7002 65.6934 43.7002V43.4004C66.1544 43.4004 66.5083 43.2485 66.7822 42.9551C67.0668 42.6507 67.2178 42.2558 67.2178 41.7441ZM69.5576 41.7441C69.5576 42.4691 69.3993 43.125 69.0752 43.7031C68.7516 44.2803 68.2951 44.7321 67.7109 45.0547C67.1238 45.3789 66.4478 45.5361 65.6934 45.5361C65.0336 45.5361 64.4341 45.4161 63.9014 45.1689L63.6768 45.0547C63.1654 44.7723 62.7517 44.3909 62.4395 43.9131L62.3115 43.7031C61.9874 43.125 61.8301 42.4691 61.8301 41.7441C61.8301 41.0192 61.9874 40.3633 62.3115 39.7852C62.6348 39.2005 63.0919 38.7449 63.6768 38.4219C64.2638 38.0977 64.9391 37.9405 65.6934 37.9404C66.3534 37.9404 66.9534 38.0604 67.4863 38.3076L67.7109 38.4219C68.2956 38.7448 68.752 39.2007 69.0752 39.7852C69.3993 40.3633 69.5576 41.0192 69.5576 41.7441Z" fill="#222222"/>
<path d="M57.1484 40.1846H56.4639C56.3773 40.1845 56.284 40.1646 56.2002 40.1123L56.1201 40.0479L56.1055 40.0332L56.0918 40.0166C56.0215 39.9229 55.9961 39.8154 55.9961 39.7158V38.54C55.9961 38.4378 56.022 38.3062 56.126 38.2021C56.23 38.0982 56.3617 38.0723 56.4639 38.0723V38.3721C56.3521 38.3722 56.2959 38.4282 56.2959 38.54V39.7158C56.2959 39.7637 56.3081 39.804 56.332 39.8359C56.364 39.8679 56.408 39.8837 56.4639 39.8838H57.4482V42.5L57.457 42.8291C57.4991 43.5718 57.6885 44.1458 58.0244 44.5518C58.3604 44.9508 58.831 45.1757 59.4365 45.2256L59.7041 45.2363C60.112 45.2363 60.4881 45.1402 60.832 44.9482C61.184 44.7563 61.4723 44.4483 61.6963 44.0244C61.7124 44.0043 61.7244 43.983 61.7324 43.9609L61.7441 43.8926C61.7441 43.8366 61.7124 43.788 61.6484 43.748L60.6279 43.292C60.5321 43.2442 60.4563 43.2723 60.4004 43.376L60.3506 43.4521C60.2299 43.6175 60.0784 43.7001 59.8965 43.7002V43.4004C59.975 43.4003 60.0556 43.3703 60.1426 43.2236C60.1903 43.1387 60.2686 43.0429 60.3955 42.9961C60.5285 42.9471 60.6544 42.9736 60.75 43.0186H60.751L60.7627 43.0234H60.7617L61.7705 43.4746L61.79 43.4824L61.8076 43.4941C61.9104 43.5585 62.0146 43.6665 62.0391 43.8223L62.0439 43.8926L62.0361 43.9805C62.0237 44.0503 61.9955 44.1141 61.957 44.1719C61.7114 44.6338 61.3865 44.9878 60.9756 45.2119L60.9746 45.2109C60.5852 45.4276 60.1601 45.5361 59.7041 45.5361C58.9522 45.5361 58.3308 45.315 57.8818 44.8428L57.7949 44.7451L57.793 44.7432C57.347 44.2042 57.1484 43.4401 57.1484 42.5V40.1846ZM59.1406 42.6084V39.8838H60.7363L60.8086 39.8721C60.8183 39.8681 60.8271 39.8633 60.835 39.8574L60.8564 39.8359C60.8723 39.82 60.8846 39.8022 60.8926 39.7822L60.9043 39.7158V38.54C60.9043 38.4561 60.8726 38.4038 60.8096 38.3828L60.7363 38.3721V38.0723C60.8386 38.0723 60.9702 38.0981 61.0742 38.2021C61.1783 38.3062 61.2041 38.4378 61.2041 38.54V39.7158C61.2041 39.8245 61.167 39.928 61.0947 40.0146L61.0967 40.0166C60.9956 40.1513 60.8465 40.1845 60.7363 40.1846H59.4404V42.6084L59.4502 42.8418C59.4697 43.0477 59.5154 43.184 59.5693 43.2686C59.62 43.3419 59.7061 43.4004 59.8965 43.4004V43.7002L59.8008 43.6963C59.5856 43.6771 59.4254 43.5904 59.3203 43.4365C59.2303 43.2986 59.1739 43.1086 59.1514 42.8672L59.1406 42.6084ZM59.1406 36.5605C59.1406 36.5125 59.1238 36.4724 59.0918 36.4404C59.0758 36.4244 59.0581 36.4123 59.0381 36.4043L58.9727 36.3926V36.0918C59.064 36.0919 59.153 36.117 59.2305 36.168L59.3047 36.2275C59.3737 36.2965 59.415 36.3807 59.4316 36.4697L59.4404 36.5605V38.0723H60.7363V38.3721H59.1406V36.5605ZM57.1484 36.5605C57.1484 36.461 57.1739 36.3534 57.2441 36.2598L57.2568 36.2432L57.2725 36.2275C57.3734 36.1269 57.5008 36.0918 57.6162 36.0918V36.3926L57.541 36.4043C57.5191 36.4123 57.5003 36.4245 57.4844 36.4404C57.4604 36.4724 57.4482 36.5126 57.4482 36.5605V38.3721H56.4639V38.0723H57.1484V36.5605ZM58.9727 36.0918V36.3926H57.6162V36.0918H58.9727Z" fill="#222222"/>
<path d="M53.6309 44.9238C53.6309 45.0138 53.6627 45.0702 53.7256 45.0928L53.7988 45.1045H55.1787L55.2529 45.0928C55.3157 45.0702 55.3467 45.0137 55.3467 44.9238V38.54C55.3467 38.4921 55.3308 38.4519 55.2988 38.4199C55.2748 38.3881 55.2345 38.3721 55.1787 38.3721V38.0723C55.2793 38.0723 55.4115 38.1007 55.5107 38.208C55.5146 38.2119 55.5178 38.2168 55.5215 38.2207C55.5271 38.2273 55.5337 38.2331 55.5391 38.2402H55.5381C55.5903 38.3025 55.6244 38.3733 55.6387 38.4492L55.6475 38.54V44.9238L55.6416 45.0049C55.6304 45.0897 55.599 45.1837 55.5244 45.2637C55.4213 45.3741 55.2865 45.4043 55.1787 45.4043H53.7988C53.6911 45.4042 53.5571 45.374 53.4541 45.2637C53.3546 45.1571 53.3311 45.0251 53.3311 44.9238V38.54C53.3311 38.4406 53.3567 38.3338 53.4268 38.2402L53.4404 38.2227L53.4551 38.208C53.556 38.1071 53.6834 38.0723 53.7988 38.0723V38.3721C53.743 38.3721 53.6989 38.388 53.667 38.4199C53.643 38.4519 53.6309 38.4921 53.6309 38.54V44.9238ZM55.1787 38.0723V38.3721H53.7988V38.0723H55.1787ZM55.4551 36.2363C55.4551 35.9644 55.359 35.7404 55.167 35.5645C54.983 35.3885 54.7507 35.2998 54.4707 35.2998C54.1909 35.2999 53.9546 35.3885 53.7627 35.5645C53.579 35.7404 53.4873 35.9645 53.4873 36.2363L53.4912 36.3389C53.5113 36.5723 53.6019 36.766 53.7627 36.9199C53.9466 37.0878 54.1829 37.1718 54.4707 37.1719C54.7586 37.1719 54.9947 37.0878 55.1787 36.9199C55.3397 36.7659 55.431 36.5724 55.4512 36.3389L55.4551 36.2363ZM55.75 36.3662C55.7238 36.6651 55.6049 36.928 55.3867 37.1367L55.3818 37.1416C55.134 37.3679 54.8211 37.4717 54.4707 37.4717C54.1205 37.4716 53.8083 37.3678 53.5605 37.1416L53.5557 37.1367C53.3064 36.8982 53.1875 36.589 53.1875 36.2363C53.1875 35.8888 53.3083 35.5844 53.5557 35.3477L53.5605 35.3428C53.8121 35.1123 54.1221 35.0001 54.4707 35C54.8171 35 55.1244 35.1112 55.3691 35.3428C55.6262 35.5784 55.7549 35.8844 55.7549 36.2363L55.75 36.3662Z" fill="#222222"/>
<path d="M50.2334 45.0098C50.2474 45.0517 50.2753 45.0798 50.3174 45.0938L50.3906 45.1045H51.7471L51.8125 45.0918C51.8323 45.0839 51.8503 45.0724 51.8662 45.0566C51.8823 45.0446 51.8943 45.0279 51.9023 45.0078L51.915 44.9365V40.7246C51.915 40.0458 51.7495 39.495 51.4189 39.0732L51.2666 38.9004C50.8885 38.5153 50.3788 38.2981 49.7373 38.25L49.4551 38.2402C49.0311 38.2402 48.6308 38.3242 48.2549 38.4922L48.1191 38.5557C47.8104 38.7122 47.548 38.9273 47.3311 39.2002V35.5283C47.3311 35.4444 47.2992 35.3921 47.2363 35.3711L47.1631 35.3604V35.0605C47.2653 35.0606 47.397 35.0865 47.501 35.1904C47.579 35.2686 47.6129 35.3622 47.625 35.4473L47.6309 35.5283V38.5029C47.7855 38.3919 47.9522 38.2961 48.1318 38.2178C48.5475 38.0321 48.9902 37.9404 49.4551 37.9404C50.2375 37.9405 50.8922 38.1499 51.3848 38.5977L51.4805 38.6904C51.9808 39.2001 52.2148 39.8914 52.2148 40.7246V44.9365L52.207 45.0244C52.1932 45.1068 52.1563 45.1954 52.0781 45.2676C52.0747 45.271 52.0709 45.274 52.0674 45.2773C52.0605 45.2833 52.0544 45.2903 52.0469 45.2959L52.0459 45.2949C51.9593 45.3673 51.8557 45.4042 51.7471 45.4043H50.3906C50.2884 45.4043 50.1568 45.3784 50.0527 45.2744C49.9488 45.1704 49.9229 45.0387 49.9229 44.9365V41.4082C49.9229 40.8745 49.8213 40.5434 49.6748 40.3574C49.5403 40.187 49.317 40.0762 48.9385 40.0762C48.5737 40.0762 48.2716 40.2055 48.0156 40.4746C47.7728 40.7299 47.6309 41.114 47.6309 41.6719V44.9365L47.625 45.0176C47.6129 45.1026 47.579 45.1964 47.501 45.2744C47.397 45.3784 47.2653 45.4042 47.1631 45.4043H45.8184C45.7162 45.4042 45.5845 45.3784 45.4805 45.2744C45.3765 45.1704 45.3506 45.0387 45.3506 44.9365V35.5283C45.3506 35.4262 45.3766 35.2945 45.4805 35.1904C45.5845 35.0864 45.7162 35.0606 45.8184 35.0605V35.3604L45.7451 35.3711C45.6823 35.3921 45.6504 35.4444 45.6504 35.5283V44.9365C45.6505 45.0203 45.6822 45.0728 45.7451 45.0938L45.8184 45.1045H47.1631L47.2363 45.0938C47.2783 45.0797 47.3063 45.0517 47.3203 45.0098L47.3311 44.9365V41.6719C47.3311 41.1398 47.4504 40.7151 47.6895 40.3975L47.7988 40.2686C48.1108 39.9406 48.4906 39.7764 48.9385 39.7764L49.0986 39.7822C49.4581 39.8112 49.7292 39.941 49.9111 40.1719C50.1191 40.4359 50.2227 40.8482 50.2227 41.4082V44.9365L50.2334 45.0098ZM47.1631 35.0605V35.3604H45.8184V35.0605H47.1631Z" fill="#222222"/>
<path d="M42.1934 44.9238C42.1934 45.0138 42.2252 45.0702 42.2881 45.0928L42.3613 45.1045H43.7412L43.8154 45.0928C43.8782 45.0702 43.9092 45.0137 43.9092 44.9238V38.54C43.9092 38.4921 43.8933 38.4519 43.8613 38.4199C43.8373 38.3881 43.797 38.3721 43.7412 38.3721V38.0723C43.8418 38.0723 43.974 38.1007 44.0732 38.208C44.0771 38.2119 44.0803 38.2168 44.084 38.2207C44.0896 38.2273 44.0962 38.2331 44.1016 38.2402H44.1006C44.1528 38.3025 44.1869 38.3733 44.2012 38.4492L44.21 38.54V44.9238L44.2041 45.0049C44.1929 45.0897 44.1615 45.1837 44.0869 45.2637C43.9838 45.3741 43.849 45.4043 43.7412 45.4043H42.3613C42.2536 45.4042 42.1196 45.374 42.0166 45.2637C41.9171 45.1571 41.8936 45.0251 41.8936 44.9238V38.54C41.8936 38.4406 41.9192 38.3338 41.9893 38.2402L42.0029 38.2227L42.0176 38.208C42.1185 38.1071 42.2459 38.0723 42.3613 38.0723V38.3721C42.3055 38.3721 42.2614 38.388 42.2295 38.4199C42.2055 38.4519 42.1934 38.4921 42.1934 38.54V44.9238ZM43.7412 38.0723V38.3721H42.3613V38.0723H43.7412ZM44.0176 36.2363C44.0176 35.9644 43.9215 35.7404 43.7295 35.5645C43.5455 35.3885 43.3132 35.2998 43.0332 35.2998C42.7534 35.2999 42.5171 35.3885 42.3252 35.5645C42.1415 35.7404 42.0498 35.9645 42.0498 36.2363L42.0537 36.3389C42.0738 36.5723 42.1644 36.766 42.3252 36.9199C42.5091 37.0878 42.7454 37.1718 43.0332 37.1719C43.3211 37.1719 43.5572 37.0878 43.7412 36.9199C43.9022 36.7659 43.9935 36.5724 44.0137 36.3389L44.0176 36.2363ZM44.3125 36.3662C44.2863 36.6651 44.1674 36.928 43.9492 37.1367L43.9443 37.1416C43.6965 37.3679 43.3836 37.4717 43.0332 37.4717C42.683 37.4716 42.3708 37.3678 42.123 37.1416L42.1182 37.1367C41.8689 36.8982 41.75 36.589 41.75 36.2363C41.75 35.8888 41.8708 35.5844 42.1182 35.3477L42.123 35.3428C42.3746 35.1123 42.6846 35.0001 43.0332 35C43.3796 35 43.6869 35.1112 43.9316 35.3428C44.1887 35.5784 44.3174 35.8844 44.3174 36.2363L44.3125 36.3662Z" fill="#222222"/>
<path d="M38.7959 45.0098C38.8099 45.0517 38.8378 45.0798 38.8799 45.0938L38.9531 45.1045H40.3096L40.375 45.0918L40.4287 45.0566C40.4448 45.0446 40.4568 45.0279 40.4648 45.0078L40.4775 44.9365V40.7246C40.4775 40.0458 40.312 39.495 39.9814 39.0732L39.8291 38.9004C39.451 38.5153 38.9413 38.2981 38.2998 38.25L38.0176 38.2402C37.5936 38.2402 37.1933 38.3242 36.8174 38.4922L36.6816 38.5557C36.3729 38.7122 36.1105 38.9273 35.8936 39.2002V35.5283C35.8936 35.4444 35.8617 35.3921 35.7988 35.3711L35.7256 35.3604V35.0605C35.8278 35.0606 35.9595 35.0865 36.0635 35.1904C36.1415 35.2686 36.1754 35.3622 36.1875 35.4473L36.1934 35.5283V38.5029C36.348 38.3919 36.5147 38.2961 36.6943 38.2178C37.11 38.0321 37.5527 37.9404 38.0176 37.9404C38.8 37.9405 39.4547 38.1499 39.9473 38.5977L40.043 38.6904C40.5433 39.2001 40.7773 39.8914 40.7773 40.7246V44.9365L40.7695 45.0244C40.7557 45.1068 40.7188 45.1954 40.6406 45.2676C40.6372 45.271 40.6334 45.274 40.6299 45.2773C40.623 45.2833 40.6169 45.2903 40.6094 45.2959L40.6084 45.2949C40.5218 45.3673 40.4182 45.4042 40.3096 45.4043H38.9531C38.8509 45.4043 38.7193 45.3784 38.6152 45.2744C38.5113 45.1704 38.4854 45.0387 38.4854 44.9365V41.4082C38.4854 40.8745 38.3838 40.5434 38.2373 40.3574C38.1028 40.187 37.8795 40.0762 37.501 40.0762C37.1362 40.0762 36.8341 40.2055 36.5781 40.4746C36.3353 40.7299 36.1934 41.114 36.1934 41.6719V44.9365L36.1875 45.0176C36.1754 45.1026 36.1415 45.1964 36.0635 45.2744C35.9595 45.3784 35.8278 45.4042 35.7256 45.4043H34.3809C34.2787 45.4042 34.147 45.3784 34.043 45.2744C33.939 45.1704 33.9131 45.0387 33.9131 44.9365V35.5283C33.9131 35.4262 33.9391 35.2945 34.043 35.1904C34.147 35.0864 34.2787 35.0606 34.3809 35.0605V35.3604L34.3076 35.3711C34.2448 35.3921 34.2129 35.4444 34.2129 35.5283V44.9365C34.213 45.0203 34.2447 45.0728 34.3076 45.0938L34.3809 45.1045H35.7256L35.7988 45.0938C35.8408 45.0797 35.8688 45.0517 35.8828 45.0098L35.8936 44.9365V41.6719C35.8936 41.1398 36.0129 40.7151 36.252 40.3975L36.3613 40.2686C36.6733 39.9406 37.0531 39.7764 37.501 39.7764L37.6611 39.7822C38.0206 39.8112 38.2917 39.941 38.4736 40.1719C38.6816 40.4359 38.7852 40.8482 38.7852 41.4082V44.9365L38.7959 45.0098ZM35.7256 35.0605V35.3604H34.3809V35.0605H35.7256Z" fill="#222222"/>
<path d="M28.6895 42.5957C28.7807 42.5957 28.8825 42.6199 28.9717 42.6885C29.0414 42.7421 29.0852 42.8104 29.1133 42.8779C29.2394 43.0853 29.3843 43.22 29.5439 43.2998C29.7183 43.387 29.9349 43.4365 30.2021 43.4365V43.7363L29.9814 43.7256C29.8393 43.7116 29.7071 43.6837 29.585 43.6416L29.4102 43.5684C29.1862 43.4564 28.9977 43.2725 28.8457 43.0166C28.8217 42.9366 28.7695 42.8965 28.6895 42.8965L27.4541 43.2324C27.3662 43.2564 27.3223 43.3041 27.3223 43.376C27.3303 43.392 27.334 43.4125 27.334 43.4365C27.55 44.0204 27.9064 44.4646 28.4023 44.7686C28.8432 45.0413 29.3729 45.1944 29.9912 45.2285L30.2617 45.2363C30.7737 45.2363 31.2299 45.1523 31.6299 44.9844C31.9869 44.8374 32.2731 44.6378 32.4893 44.3867L32.5781 44.2764C32.8101 43.9724 32.9258 43.616 32.9258 43.208C32.9258 42.6321 32.7578 42.1684 32.4219 41.8164C32.1278 41.5014 31.6562 41.2472 31.0068 41.0547L30.4062 40.8926C30.1243 40.8266 29.9027 40.7557 29.7422 40.6807L29.6016 40.6045C29.4617 40.5136 29.3828 40.404 29.3652 40.2764L29.3623 40.2197C29.3624 40.0939 29.4024 39.9948 29.4834 39.9229L29.5781 39.8604C29.7301 39.7804 29.9223 39.7402 30.1543 39.7402L30.3398 39.751C30.7608 39.8008 31.0873 40.0248 31.3184 40.4238C31.3485 40.478 31.3827 40.512 31.4219 40.5254L31.4619 40.5322C31.4779 40.5322 31.4919 40.5313 31.5039 40.5293L31.5342 40.5205L32.7217 40.1357C32.7816 40.1237 32.819 40.0985 32.834 40.0596L32.8418 40.0166C32.8339 39.9848 32.8263 39.9565 32.8184 39.9326C32.6184 39.3726 32.2937 38.9519 31.8457 38.6719C31.4537 38.4199 30.9819 38.2785 30.4307 38.2471L30.1895 38.2402C29.6856 38.2403 29.2376 38.3242 28.8457 38.4922C28.4619 38.6602 28.1622 38.8963 27.9463 39.2002L27.8701 39.3135C27.7049 39.582 27.6221 39.884 27.6221 40.2197L27.6299 40.418C27.6684 40.8702 27.8425 41.2647 28.1504 41.6006C28.5104 41.9764 29.0825 42.2761 29.8662 42.5L30.1895 42.5957C30.5575 42.6997 30.814 42.8005 30.958 42.8965C31.1099 42.9925 31.1855 43.1082 31.1855 43.2441C31.1855 43.4281 31.0978 43.5559 30.9219 43.6279C30.7539 43.6999 30.514 43.7363 30.2021 43.7363V43.4365C30.498 43.4365 30.6905 43.401 30.8037 43.3525L30.8086 43.3506C30.8543 43.3319 30.8688 43.3147 30.873 43.3086C30.8767 43.3033 30.8857 43.2869 30.8857 43.2441C30.8857 43.2358 30.8845 43.2298 30.8779 43.2197C30.8736 43.2132 30.8663 43.2033 30.8535 43.1914L30.7979 43.1494L30.791 43.1455C30.7146 43.0947 30.5739 43.0319 30.3545 42.96L30.1084 42.8848L30.1045 42.8838L29.7832 42.7891C29.0756 42.5869 28.5052 42.3165 28.0977 41.9639L27.9336 41.8076L27.9287 41.8027C27.5245 41.3617 27.3223 40.8283 27.3223 40.2197C27.3223 39.7757 27.448 39.3732 27.7031 39.0234C27.9542 38.6712 28.2993 38.4043 28.7256 38.2178L28.7275 38.2168C29.1629 38.0302 29.6523 37.9405 30.1895 37.9404C30.8882 37.9404 31.499 38.0937 32.0049 38.418C32.4534 38.6983 32.788 39.0992 33.0117 39.6074L33.1006 39.8311L33.1025 39.8369C33.1136 39.87 33.1235 39.906 33.1328 39.9434L33.1416 39.9795V40.0166L33.1357 40.0918C33.1223 40.1679 33.0874 40.2437 33.0244 40.3066C32.9589 40.3721 32.8806 40.4034 32.8135 40.4209L31.626 40.8057L31.625 40.8047C31.561 40.8274 31.5007 40.832 31.4619 40.832C31.2504 40.832 31.1211 40.688 31.0557 40.5703C30.8437 40.2072 30.5534 40.0401 30.1543 40.04C29.9547 40.04 29.8143 40.0752 29.7178 40.126L29.7119 40.1289C29.6835 40.1431 29.6753 40.1541 29.6729 40.1582C29.67 40.163 29.6622 40.1795 29.6621 40.2197L29.6641 40.2422C29.6679 40.2591 29.6786 40.2807 29.707 40.3076L29.7656 40.3525C29.8512 40.4082 29.9992 40.4708 30.2236 40.5352L30.4746 40.5996L30.4844 40.6025L30.7959 40.6865C31.6161 40.8921 32.2483 41.1899 32.6416 41.6113C33.0391 42.0289 33.2256 42.5711 33.2256 43.208C33.2256 43.6753 33.0909 44.0941 32.8184 44.4531L32.8193 44.4541C32.5577 44.8092 32.1932 45.0754 31.7432 45.2607C31.301 45.446 30.8055 45.5361 30.2617 45.5361C29.4839 45.5361 28.8066 45.3707 28.2451 45.0234C27.7574 44.7245 27.3922 44.3049 27.1494 43.7744L27.0527 43.54L27.0342 43.4902V43.4717L27.0215 43.4473V43.376C27.0215 43.2736 27.0556 43.1683 27.1338 43.083C27.2064 43.0039 27.2974 42.9635 27.375 42.9424L28.6113 42.6064L28.6494 42.5957H28.6895Z" fill="#222222"/>
<path d="M26.4727 41.7441C26.4727 41.1492 26.3594 40.6124 26.1328 40.1338L26.0283 39.9326C25.7693 39.4635 25.4184 39.086 24.9756 38.8008L24.7803 38.6846C24.3114 38.4256 23.7754 38.2795 23.1719 38.2471L22.9082 38.2402C22.1963 38.2403 21.572 38.3886 21.0361 38.6846L20.8408 38.8008C20.3982 39.086 20.047 39.4637 19.7881 39.9326L19.6846 40.1338C19.458 40.6124 19.3447 41.1492 19.3447 41.7441L19.3516 41.9951C19.3839 42.5737 19.529 43.0945 19.7881 43.5566C20.084 44.0844 20.5004 44.496 21.0361 44.792C21.5051 45.051 22.0418 45.1971 22.6455 45.2295L22.9082 45.2363C23.6201 45.2363 24.2443 45.0879 24.7803 44.792C25.2492 44.533 25.6269 44.1856 25.9121 43.749L26.0283 43.5566C26.2874 43.0945 26.4335 42.5737 26.4658 41.9951L26.4727 41.7441ZM24.4326 41.7441C24.4326 41.288 24.3164 40.9302 24.0986 40.6504L24 40.5352L23.9951 40.5303C23.7206 40.2296 23.367 40.0762 22.9082 40.0762C22.4495 40.0762 22.0909 40.2302 21.8076 40.5332C21.5331 40.8275 21.3848 41.2213 21.3848 41.7441L21.3916 41.9316C21.4236 42.354 21.5662 42.6894 21.8076 42.9551C22.09 43.2494 22.4485 43.4003 22.9082 43.4004V43.7002L22.7119 43.6914C22.328 43.6576 21.9976 43.5233 21.7217 43.2871L21.5889 43.1602C21.2948 42.8381 21.1295 42.4364 21.0928 41.9551L21.085 41.7441C21.085 41.2332 21.2135 40.8082 21.4707 40.4688L21.5889 40.3281C21.9328 39.9603 22.3724 39.7764 22.9082 39.7764L23.1045 39.7852C23.5518 39.8253 23.9227 40.006 24.2168 40.3281C24.5607 40.6881 24.7324 41.1602 24.7324 41.7441C24.7324 42.3201 24.5607 42.7922 24.2168 43.1602L24.0859 43.2871C23.7701 43.5627 23.3771 43.7002 22.9082 43.7002V43.4004C23.3692 43.4004 23.7232 43.2485 23.9971 42.9551C24.2816 42.6507 24.4326 42.2558 24.4326 41.7441ZM26.7725 41.7441C26.7725 42.4691 26.6141 43.125 26.29 43.7031C25.9664 44.2803 25.5099 44.7321 24.9258 45.0547C24.3386 45.3789 23.6626 45.5361 22.9082 45.5361C22.2484 45.5361 21.649 45.4161 21.1162 45.1689L20.8916 45.0547C20.3802 44.7723 19.9665 44.3909 19.6543 43.9131L19.5264 43.7031C19.2023 43.125 19.0449 42.4691 19.0449 41.7441C19.0449 41.0192 19.2023 40.3633 19.5264 39.7852C19.8496 39.2005 20.3067 38.7449 20.8916 38.4219C21.4787 38.0977 22.1539 37.9405 22.9082 37.9404C23.5683 37.9404 24.1683 38.0604 24.7012 38.3076L24.9258 38.4219C25.5105 38.7448 25.9668 39.2007 26.29 39.7852C26.6141 40.3633 26.7725 41.0192 26.7725 41.7441Z" fill="#222222"/>
<path d="M14.8027 45.0098C14.8168 45.0518 14.8446 45.0798 14.8867 45.0938L14.96 45.1045H16.376L16.4492 45.0938C16.4913 45.0798 16.5192 45.0517 16.5332 45.0098L16.5439 44.9365V41.4678L20 35.7686C20.032 35.7126 20.0357 35.664 20.0117 35.624C19.9937 35.5941 19.9644 35.5758 19.9238 35.5684L19.8799 35.5645V35.2637C19.9897 35.2637 20.1307 35.2971 20.2295 35.4141L20.2695 35.4697L20.2998 35.5322C20.3575 35.6784 20.3155 35.8211 20.2607 35.917L20.2568 35.9238L16.8438 41.5527V44.9365L16.8379 45.0176C16.8257 45.1026 16.7919 45.1964 16.7139 45.2744C16.6098 45.3784 16.4782 45.4043 16.376 45.4043H14.96C14.8578 45.4043 14.7261 45.3783 14.6221 45.2744C14.5181 45.1704 14.4922 45.0387 14.4922 44.9365V41.5645L11.0791 35.9238L11.0781 35.9229C11.0624 35.8966 11.0466 35.8661 11.0332 35.835C11.0281 35.8231 11.0197 35.8031 11.0127 35.7773L11 35.6846L11.0078 35.5986C11.0245 35.5119 11.0692 35.4234 11.1562 35.3564C11.2575 35.2787 11.374 35.2637 11.4561 35.2637V35.5645L11.3877 35.5713C11.3291 35.5863 11.2998 35.6245 11.2998 35.6846C11.3 35.7006 11.3121 35.7289 11.3359 35.7686L14.792 41.4805V44.9365L14.8027 45.0098ZM18.2715 35.2637V35.5645L18.2061 35.5713C18.1459 35.5862 18.1041 35.6245 18.0801 35.6846L15.6914 39.8965L13.2803 35.6846C13.2563 35.6247 13.2141 35.5863 13.1543 35.5713L13.0879 35.5645V35.2637C13.177 35.2637 13.2761 35.2829 13.3672 35.3398C13.4472 35.3899 13.5027 35.4596 13.54 35.5352L15.6895 39.2891L17.8193 35.5361C17.8567 35.4601 17.9127 35.3901 17.9932 35.3398C18.0841 35.2831 18.1825 35.2637 18.2715 35.2637ZM19.8799 35.2637V35.5645H18.2715V35.2637H19.8799ZM13.0879 35.2637V35.5645H11.4561V35.2637H13.0879Z" fill="#222222"/>
</svg>
