<svg width="65" height="11" viewBox="0 0 65 11" fill="none" xmlns="http://www.w3.org/2000/svg">
<path d="M61.0806 10.6198C60.3046 10.6198 59.6246 10.4638 59.0406 10.1518C58.4566 9.84784 58.0046 9.41984 57.6846 8.86784C57.3646 8.30784 57.2046 7.66784 57.2046 6.94784C57.2046 6.23584 57.3646 5.60384 57.6846 5.05184C58.0046 4.49184 58.4566 4.05984 59.0406 3.75584C59.6246 3.44384 60.3046 3.28784 61.0806 3.28784C61.8566 3.28784 62.5366 3.44384 63.1206 3.75584C63.7046 4.05984 64.1566 4.49184 64.4766 5.05184C64.7966 5.60384 64.9566 6.23584 64.9566 6.94784C64.9566 7.66784 64.7966 8.30784 64.4766 8.86784C64.1566 9.41984 63.7046 9.84784 63.1206 10.1518C62.5366 10.4638 61.8566 10.6198 61.0806 10.6198ZM59.6286 6.94784C59.6286 7.41184 59.7606 7.79184 60.0246 8.08784C60.2966 8.37584 60.6486 8.51984 61.0806 8.51984C61.5126 8.51984 61.8606 8.37584 62.1246 8.08784C62.3966 7.79184 62.5326 7.41184 62.5326 6.94784C62.5326 6.48384 62.3966 6.10784 62.1246 5.81984C61.8606 5.53184 61.5126 5.38784 61.0806 5.38784C60.6486 5.38784 60.2966 5.53184 60.0246 5.81984C59.7606 6.10784 59.6286 6.48384 59.6286 6.94784Z" fill="#222222"/>
<path d="M49.3079 10.4879C49.2439 10.4879 49.1919 10.4679 49.1519 10.4279C49.1119 10.3879 49.0919 10.3359 49.0919 10.2719V0.719907C49.0919 0.655907 49.1119 0.603907 49.1519 0.563907C49.1919 0.523907 49.2439 0.503906 49.3079 0.503906H51.2759C51.3399 0.503906 51.3919 0.523907 51.4319 0.563907C51.4719 0.603907 51.4919 0.655907 51.4919 0.719907V4.12791C51.9719 3.56791 52.6399 3.28791 53.4959 3.28791C54.3119 3.28791 54.9479 3.51591 55.4039 3.97191C55.8599 4.42791 56.0879 5.06391 56.0879 5.87991V10.2719C56.0879 10.3359 56.0679 10.3879 56.0279 10.4279C55.9879 10.4679 55.9359 10.4879 55.8719 10.4879H53.9039C53.8399 10.4879 53.7879 10.4679 53.7479 10.4279C53.7079 10.3879 53.6879 10.3359 53.6879 10.2719V6.77991C53.6879 6.29191 53.6079 5.93991 53.4479 5.72391C53.2879 5.49991 53.0319 5.38791 52.6799 5.38791C52.3199 5.38791 52.0319 5.52391 51.8159 5.79591C51.5999 6.05991 51.4919 6.44391 51.4919 6.94791V10.2719C51.4919 10.3359 51.4719 10.3879 51.4319 10.4279C51.3919 10.4679 51.3399 10.4879 51.2759 10.4879H49.3079Z" fill="#222222"/>
<path d="M46.3544 2.484C45.9784 2.484 45.6624 2.372 45.4064 2.148C45.1584 1.916 45.0344 1.616 45.0344 1.248C45.0344 0.88 45.1584 0.579999 45.4064 0.348C45.6624 0.116 45.9784 0 46.3544 0C46.7304 0 47.0424 0.116 47.2904 0.348C47.5464 0.579999 47.6744 0.88 47.6744 1.248C47.6744 1.616 47.5464 1.916 47.2904 2.148C47.0424 2.372 46.7304 2.484 46.3544 2.484ZM45.1544 3.624C45.1544 3.56 45.1744 3.512 45.2144 3.48C45.2544 3.44 45.3064 3.42 45.3704 3.42H47.3384C47.4024 3.42 47.4544 3.44 47.4944 3.48C47.5344 3.512 47.5544 3.56 47.5544 3.624V10.272C47.5544 10.336 47.5344 10.388 47.4944 10.428C47.4544 10.468 47.4024 10.488 47.3384 10.488H45.3704C45.3064 10.488 45.2544 10.468 45.2144 10.428C45.1744 10.388 45.1544 10.336 45.1544 10.272V3.624Z" fill="#222222"/>
<path d="M36.8978 10.4879C36.8338 10.4879 36.7818 10.4679 36.7418 10.4279C36.7018 10.3879 36.6818 10.3359 36.6818 10.2719V0.719907C36.6818 0.655907 36.7018 0.603907 36.7418 0.563907C36.7818 0.523907 36.8338 0.503906 36.8978 0.503906H38.8658C38.9298 0.503906 38.9818 0.523907 39.0218 0.563907C39.0618 0.603907 39.0818 0.655907 39.0818 0.719907V4.12791C39.5618 3.56791 40.2298 3.28791 41.0858 3.28791C41.9018 3.28791 42.5378 3.51591 42.9938 3.97191C43.4498 4.42791 43.6778 5.06391 43.6778 5.87991V10.2719C43.6778 10.3359 43.6578 10.3879 43.6178 10.4279C43.5778 10.4679 43.5258 10.4879 43.4618 10.4879H41.4938C41.4298 10.4879 41.3778 10.4679 41.3378 10.4279C41.2978 10.3879 41.2778 10.3359 41.2778 10.2719V6.77991C41.2778 6.29191 41.1978 5.93991 41.0378 5.72391C40.8778 5.49991 40.6218 5.38791 40.2698 5.38791C39.9098 5.38791 39.6218 5.52391 39.4058 5.79591C39.1898 6.05991 39.0818 6.44391 39.0818 6.94791V10.2719C39.0818 10.3359 39.0618 10.3879 39.0218 10.4279C38.9818 10.4679 38.9298 10.4879 38.8658 10.4879H36.8978Z" fill="#222222"/>
<path d="M33.9443 2.484C33.5683 2.484 33.2523 2.372 32.9963 2.148C32.7483 1.916 32.6243 1.616 32.6243 1.248C32.6243 0.88 32.7483 0.579999 32.9963 0.348C33.2523 0.116 33.5683 0 33.9443 0C34.3203 0 34.6323 0.116 34.8803 0.348C35.1363 0.579999 35.2643 0.88 35.2643 1.248C35.2643 1.616 35.1363 1.916 34.8803 2.148C34.6323 2.372 34.3203 2.484 33.9443 2.484ZM32.7443 3.624C32.7443 3.56 32.7643 3.512 32.8043 3.48C32.8443 3.44 32.8963 3.42 32.9603 3.42H34.9283C34.9923 3.42 35.0443 3.44 35.0843 3.48C35.1243 3.512 35.1443 3.56 35.1443 3.624V10.272C35.1443 10.336 35.1243 10.388 35.0843 10.428C35.0443 10.468 34.9923 10.488 34.9283 10.488H32.9603C32.8963 10.488 32.8443 10.468 32.8043 10.428C32.7643 10.388 32.7443 10.336 32.7443 10.272V3.624Z" fill="#222222"/>
<path d="M24.4876 10.4879C24.4236 10.4879 24.3716 10.4679 24.3316 10.4279C24.2916 10.3879 24.2716 10.3359 24.2716 10.2719V0.719907C24.2716 0.655907 24.2916 0.603907 24.3316 0.563907C24.3716 0.523907 24.4236 0.503906 24.4876 0.503906H26.4556C26.5196 0.503906 26.5716 0.523907 26.6116 0.563907C26.6516 0.603907 26.6716 0.655907 26.6716 0.719907V4.12791C27.1516 3.56791 27.8196 3.28791 28.6756 3.28791C29.4916 3.28791 30.1276 3.51591 30.5836 3.97191C31.0396 4.42791 31.2676 5.06391 31.2676 5.87991V10.2719C31.2676 10.3359 31.2476 10.3879 31.2076 10.4279C31.1676 10.4679 31.1156 10.4879 31.0516 10.4879H29.0836C29.0196 10.4879 28.9676 10.4679 28.9276 10.4279C28.8876 10.3879 28.8676 10.3359 28.8676 10.2719V6.77991C28.8676 6.29191 28.7876 5.93991 28.6276 5.72391C28.4676 5.49991 28.2116 5.38791 27.8596 5.38791C27.4996 5.38791 27.2116 5.52391 26.9956 5.79591C26.7796 6.05991 26.6716 6.44391 26.6716 6.94791V10.2719C26.6716 10.3359 26.6516 10.3879 26.6116 10.4279C26.5716 10.4679 26.5196 10.4879 26.4556 10.4879H24.4876Z" fill="#222222"/>
<path d="M20.197 10.6198C19.397 10.6198 18.725 10.4598 18.181 10.1398C17.637 9.82784 17.253 9.37184 17.029 8.77184C17.021 8.75584 17.017 8.72784 17.017 8.68784C17.017 8.60784 17.069 8.55584 17.173 8.53184L18.769 8.19584L18.841 8.18384C18.913 8.18384 18.981 8.22784 19.045 8.31584C19.157 8.49984 19.305 8.63984 19.489 8.73584C19.673 8.83184 19.881 8.87984 20.113 8.87984C20.329 8.87984 20.497 8.84784 20.617 8.78384C20.737 8.71984 20.797 8.62784 20.797 8.50784C20.797 8.40384 20.741 8.31184 20.629 8.23184C20.525 8.15184 20.333 8.07584 20.053 8.00384L19.789 7.93184C18.133 7.49984 17.305 6.67984 17.305 5.47184C17.305 5.04784 17.425 4.67184 17.665 4.34384C17.913 4.00784 18.257 3.74784 18.697 3.56384C19.137 3.37984 19.641 3.28784 20.209 3.28784C20.961 3.28784 21.577 3.43584 22.057 3.73184C22.545 4.01984 22.901 4.46384 23.125 5.06384L23.149 5.14784C23.149 5.23584 23.093 5.29184 22.981 5.31584L21.433 5.67584H21.385C21.297 5.67584 21.229 5.62784 21.181 5.53184C21.077 5.36384 20.953 5.23984 20.809 5.15984C20.673 5.07184 20.505 5.02784 20.305 5.02784C20.137 5.02784 20.001 5.05984 19.897 5.12384C19.793 5.17984 19.741 5.26784 19.741 5.38784C19.741 5.50784 19.805 5.61184 19.933 5.69984C20.061 5.78784 20.261 5.86384 20.533 5.92784L20.785 5.98784C21.689 6.21984 22.325 6.52384 22.693 6.89984C23.061 7.26784 23.245 7.76384 23.245 8.38784C23.245 8.83584 23.113 9.22784 22.849 9.56384C22.593 9.89984 22.233 10.1598 21.769 10.3438C21.313 10.5278 20.789 10.6198 20.197 10.6198Z" fill="#222222"/>
<path d="M12.4946 10.6198C11.7186 10.6198 11.0386 10.4638 10.4546 10.1518C9.87064 9.84784 9.41864 9.41984 9.09864 8.86784C8.77864 8.30784 8.61864 7.66784 8.61864 6.94784C8.61864 6.23584 8.77864 5.60384 9.09864 5.05184C9.41864 4.49184 9.87064 4.05984 10.4546 3.75584C11.0386 3.44384 11.7186 3.28784 12.4946 3.28784C13.2706 3.28784 13.9506 3.44384 14.5346 3.75584C15.1186 4.05984 15.5706 4.49184 15.8906 5.05184C16.2106 5.60384 16.3706 6.23584 16.3706 6.94784C16.3706 7.66784 16.2106 8.30784 15.8906 8.86784C15.5706 9.41984 15.1186 9.84784 14.5346 10.1518C13.9506 10.4638 13.2706 10.6198 12.4946 10.6198ZM11.0426 6.94784C11.0426 7.41184 11.1746 7.79184 11.4386 8.08784C11.7106 8.37584 12.0626 8.51984 12.4946 8.51984C12.9266 8.51984 13.2746 8.37584 13.5386 8.08784C13.8106 7.79184 13.9466 7.41184 13.9466 6.94784C13.9466 6.48384 13.8106 6.10784 13.5386 5.81984C13.2746 5.53184 12.9266 5.38784 12.4946 5.38784C12.0626 5.38784 11.7106 5.53184 11.4386 5.81984C11.1746 6.10784 11.0426 6.48384 11.0426 6.94784Z" fill="#222222"/>
<path d="M3.72 10.488C3.656 10.488 3.604 10.468 3.564 10.428C3.524 10.388 3.504 10.336 3.504 10.272V6.91197L0.036 0.97197C0.012 0.93197 0 0.89597 0 0.86397C0 0.82397 0.016 0.79197 0.048 0.767971C0.08 0.73597 0.124 0.719971 0.18 0.719971H2.556C2.676 0.719971 2.764 0.76797 2.82 0.86397L4.788 4.66797L6.732 0.86397C6.764 0.76797 6.844 0.719971 6.972 0.719971H9.312C9.368 0.719971 9.412 0.73597 9.444 0.767971C9.484 0.79197 9.504 0.82397 9.504 0.86397C9.504 0.89597 9.492 0.93197 9.468 0.97197L6 6.86397V10.272C6 10.336 5.98 10.388 5.94 10.428C5.9 10.468 5.848 10.488 5.784 10.488H3.72Z" fill="#222222"/>
</svg>
