<svg width="55" height="11" viewBox="0 0 55 11" fill="none" xmlns="http://www.w3.org/2000/svg">
<path d="M53.6553 6.71191C53.6552 6.07203 53.519 5.50002 53.2471 4.99609C53.0091 4.55529 52.6857 4.2001 52.2764 3.93066L52.0957 3.82031C51.6688 3.56835 51.1803 3.42606 50.6309 3.39453L50.3916 3.38867C49.7437 3.38867 49.1717 3.53243 48.6758 3.82031L48.4971 3.93066C48.0938 4.20013 47.7731 4.55522 47.5352 4.99609C47.2712 5.50002 47.1397 6.07203 47.1396 6.71191L47.1455 6.94922C47.1744 7.49408 47.3043 7.9869 47.5352 8.42773C47.8072 8.93173 48.1878 9.32821 48.6758 9.61621C49.1098 9.86815 49.6019 10.0096 50.1523 10.041L50.3916 10.0479C51.0395 10.0478 51.6078 9.90417 52.0957 9.61621C52.5916 9.32822 52.9751 8.93164 53.2471 8.42773C53.519 7.9238 53.6553 7.3518 53.6553 6.71191ZM52.1992 6.71191C52.1992 6.34526 52.137 6.03026 52.0205 5.75977L51.9668 5.64648C51.8347 5.38808 51.6587 5.18521 51.4365 5.03125L51.3389 4.96777C51.0712 4.80843 50.7592 4.72465 50.3916 4.72461C50.024 4.72461 49.712 4.80853 49.4443 4.96777C49.1754 5.12788 48.9664 5.35118 48.8154 5.64648C48.6648 5.94128 48.583 6.29284 48.583 6.71191C48.583 7.07893 48.646 7.39435 48.7627 7.66504L48.8154 7.77832C48.9475 8.03663 49.1236 8.23962 49.3457 8.39355L49.4443 8.45605C49.7121 8.61539 50.0239 8.7002 50.3916 8.7002V9.10059L50.2314 9.0957C49.864 9.07381 49.5332 8.97479 49.2393 8.7998C48.9034 8.59981 48.6429 8.31988 48.459 7.95996C48.2981 7.64508 48.2076 7.28727 48.1875 6.88672L48.1836 6.71191C48.1836 6.24004 48.275 5.82379 48.459 5.46387C48.643 5.10393 48.9033 4.824 49.2393 4.62402C49.5753 4.42404 49.9596 4.32422 50.3916 4.32422L50.5508 4.3291C50.9182 4.35093 51.249 4.44911 51.543 4.62402C51.8789 4.82397 52.1393 5.10401 52.3232 5.46387C52.5072 5.82379 52.5996 6.24004 52.5996 6.71191L52.5947 6.88672C52.5746 7.28734 52.4842 7.64504 52.3232 7.95996C52.1392 8.31996 51.879 8.5998 51.543 8.7998C51.2071 8.99973 50.8235 9.10054 50.3916 9.10059V8.7002C50.7592 8.70015 51.0712 8.6154 51.3389 8.45605C51.6076 8.29601 51.8159 8.07339 51.9668 7.77832C52.1175 7.48341 52.1992 7.13122 52.1992 6.71191ZM54.0479 6.97168C54.0151 7.56935 53.8682 8.12047 53.5996 8.61816C53.2929 9.18645 52.8565 9.63507 52.2979 9.95996C51.74 10.2891 51.1004 10.4482 50.3916 10.4482C49.7709 10.4482 49.2006 10.3272 48.6895 10.0771L48.4746 9.96191L48.4717 9.96094C47.9892 9.67614 47.5989 9.29589 47.3037 8.8252L47.1836 8.61816L47.1807 8.61426C46.8831 8.04616 46.7393 7.40839 46.7393 6.71191C46.7393 6.01559 46.8832 5.37854 47.1807 4.81055L47.1836 4.80664C47.4903 4.23834 47.9228 3.79139 48.4766 3.47363C49.0407 3.14652 49.6832 2.98828 50.3916 2.98828C51.0977 2.98832 51.7356 3.14509 52.292 3.47168C52.7838 3.74933 53.18 4.12683 53.4775 4.59863L53.5996 4.80664C53.9065 5.37542 54.0556 6.0138 54.0557 6.71191L54.0479 6.97168Z" fill="#222222"/>
<path d="M42.7158 4.82031H41.9873C41.8932 4.82024 41.7909 4.79693 41.6982 4.73828L41.6094 4.66699C41.5154 4.57303 41.4561 4.44483 41.4561 4.2998V3.64062C41.4561 3.51492 41.4971 3.37401 41.6094 3.26172L41.6982 3.19043C41.7909 3.13172 41.8932 3.10847 41.9873 3.1084V3.50781C41.9475 3.5079 41.9155 3.52007 41.8916 3.54395C41.8676 3.56795 41.8555 3.60063 41.8555 3.64062V4.2998C41.8555 4.33167 41.8678 4.35985 41.8916 4.38379C41.9155 4.4077 41.9475 4.41983 41.9873 4.41992H43.1162V7.69629L43.123 7.9834C43.158 8.63287 43.3156 9.12958 43.5957 9.47266C43.8757 9.80849 44.26 9.99705 44.748 10.0391L44.9639 10.0479C45.7318 10.0478 46.3037 9.66815 46.6797 8.9082C46.7277 8.81221 46.7118 8.7441 46.6318 8.7041L46.0557 8.45215C45.9837 8.41223 45.9277 8.43646 45.8877 8.52441C45.7037 8.90829 45.4275 9.10059 45.0596 9.10059V8.7002C45.17 8.7002 45.2498 8.67288 45.3145 8.62793C45.3824 8.58065 45.4574 8.49744 45.5273 8.35156C45.5668 8.26733 45.646 8.1391 45.8018 8.07227C45.9619 8.00365 46.1111 8.03817 46.2148 8.08691L46.2158 8.08594L46.792 8.33789L46.8018 8.3418L46.8105 8.34668C46.9245 8.40367 47.0502 8.51306 47.0928 8.69336C47.1309 8.85521 47.0813 8.996 47.0371 9.08496L47.0381 9.08594C46.8262 9.51414 46.5472 9.85962 46.1904 10.0967C45.8313 10.3353 45.4169 10.4482 44.9639 10.4482C44.3632 10.4482 43.8452 10.2738 43.4502 9.90039L43.2881 9.72852L43.2861 9.72559C42.8829 9.23164 42.7158 8.53125 42.7158 7.69629V4.82031ZM44.1357 7.71973V4.41992H45.9121L45.9639 4.41309C45.9942 4.40312 46.0144 4.38281 46.0244 4.35254L46.0322 4.2998V3.64062C46.0322 3.57448 46.0091 3.53303 45.9639 3.5166L45.9121 3.50781V3.1084C46.0241 3.10847 46.1785 3.14122 46.2979 3.27246C46.3824 3.36559 46.4156 3.47157 46.4268 3.55957L46.4316 3.64062V4.2998C46.4316 4.40146 46.4057 4.55138 46.2842 4.67285C46.1629 4.79409 46.0137 4.82025 45.9121 4.82031H44.5361V7.71973L44.5479 8.02637C44.5712 8.29083 44.6256 8.45713 44.6846 8.55273C44.7457 8.63562 44.8448 8.70016 45.0596 8.7002V9.10059L44.9434 9.09473C44.6819 9.07103 44.4845 8.96527 44.3516 8.77637C44.2076 8.55237 44.1357 8.19973 44.1357 7.71973ZM44.1357 1.54004C44.1357 1.50811 44.1198 1.48001 44.0879 1.45605C44.076 1.44413 44.0618 1.43568 44.0459 1.42969L43.9922 1.41992V1.02051C44.1024 1.02059 44.2222 1.05422 44.3262 1.1377L44.3281 1.13574C44.3389 1.14383 44.3478 1.15476 44.3584 1.16406C44.3621 1.16754 44.3675 1.17021 44.3711 1.17383H44.3701C44.4454 1.24338 44.5134 1.34242 44.5312 1.47168L44.5361 1.54004V3.1084H45.9121V3.50781H44.1357V1.54004ZM42.7158 1.54004C42.7159 1.42805 42.7486 1.27367 42.8799 1.1543C43.004 1.0415 43.1513 1.02051 43.248 1.02051V1.41992L43.1904 1.42773C43.1407 1.44264 43.1163 1.47999 43.1162 1.54004V3.50781H41.9873V3.1084H42.7158V1.54004ZM43.9922 1.02051V1.41992H43.248V1.02051H43.9922Z" fill="#222222"/>
<path d="M39.7881 9.83496C39.8 9.87111 39.8243 9.89518 39.8604 9.90723L39.9238 9.91602H40.6191C40.6913 9.91602 40.737 9.88919 40.7549 9.83496L40.7637 9.77246V3.65234C40.7637 3.55634 40.7151 3.50781 40.6191 3.50781V3.1084C40.7288 3.1084 40.8853 3.13625 41.0107 3.26172C41.1046 3.35573 41.1436 3.4667 41.1572 3.5625L41.1631 3.65234V9.77246L41.1572 9.8623C41.1435 9.95809 41.1046 10.0692 41.0107 10.1631C40.8853 10.2886 40.7288 10.3164 40.6191 10.3164H39.9238C39.8142 10.3164 39.6577 10.2886 39.5322 10.1631C39.407 10.0377 39.3799 9.88205 39.3799 9.77246V3.65234C39.3799 3.5428 39.4071 3.38712 39.5322 3.26172C39.6577 3.13625 39.8142 3.1084 39.9238 3.1084V3.50781L39.8604 3.51758C39.8065 3.53563 39.7793 3.58045 39.7793 3.65234V9.77246L39.7881 9.83496ZM40.6191 3.1084V3.50781H39.9238V3.1084H40.6191ZM40.9434 1.41992C40.9433 1.2761 40.9078 1.15223 40.8359 1.04883L40.752 0.952148C40.6559 0.862072 40.5413 0.805665 40.4092 0.783203L40.2715 0.772461C40.0795 0.772461 39.919 0.832149 39.791 0.952148C39.6632 1.07206 39.5997 1.22816 39.5996 1.41992L39.6113 1.55762C39.6353 1.68805 39.6951 1.7987 39.791 1.88867C39.8871 1.97873 40.0017 2.03417 40.1338 2.05664L40.2715 2.06836C40.4155 2.06836 40.5414 2.03431 40.6494 1.9668L40.752 1.88867C40.8799 1.76867 40.9434 1.61191 40.9434 1.41992ZM41.3389 1.52832C41.3164 1.77663 41.2148 2.002 41.0254 2.17969C40.816 2.37602 40.5547 2.46777 40.2715 2.46777C39.9883 2.46777 39.727 2.37602 39.5176 2.17969C39.3011 1.97653 39.1992 1.71074 39.1992 1.41992C39.1993 1.12909 39.3009 0.863281 39.5176 0.660156C39.727 0.463825 39.9883 0.37207 40.2715 0.37207C40.5193 0.37207 40.7502 0.442595 40.9443 0.591797L41.0254 0.660156C41.242 0.863281 41.3437 1.12909 41.3438 1.41992L41.3389 1.52832Z" fill="#222222"/>
<path d="M36.8125 9.83496C36.8245 9.87113 36.8487 9.89519 36.8848 9.90723L36.9482 9.91602H37.6914C37.7515 9.91602 37.7898 9.88919 37.8047 9.83496L37.8115 9.77246V5.75195C37.8115 5.10092 37.6553 4.57564 37.3428 4.17578L37.2002 4.0127C36.8502 3.64869 36.3772 3.44394 35.7822 3.39844L35.5195 3.38867C35.0716 3.38871 34.6433 3.49223 34.2354 3.7002C33.8276 3.90815 33.5036 4.20408 33.2637 4.58789V0.532227C33.2637 0.466167 33.239 0.424673 33.1895 0.408203L33.1318 0.400391V0C33.2375 1.18281e-05 33.3902 0.0269464 33.5137 0.150391C33.6062 0.242957 33.6439 0.352033 33.6572 0.445312L33.6641 0.532227V3.58301C33.7861 3.49466 33.9156 3.4142 34.0537 3.34375C34.5166 3.10776 35.007 2.98832 35.5195 2.98828C36.3183 2.98828 36.9924 3.22137 37.4854 3.73242C37.9853 4.2423 38.2119 4.93373 38.2119 5.75195V9.77246L38.207 9.85059C38.1971 9.93677 38.1675 10.0424 38.0889 10.1367C37.9726 10.276 37.8141 10.3164 37.6914 10.3164H36.9482C36.8386 10.3164 36.6821 10.2886 36.5566 10.1631C36.4314 10.0377 36.4034 9.88207 36.4033 9.77246V6.17188C36.4033 5.67249 36.3114 5.34251 36.1748 5.13281L36.1143 5.0498L36.1064 5.04102C35.9574 4.85358 35.7043 4.72463 35.2559 4.72461C35.0089 4.72461 34.7572 4.78866 34.4971 4.92871L34.4941 4.93066C34.2642 5.05174 34.0631 5.24303 33.8955 5.52441C33.7485 5.77668 33.6641 6.1061 33.6641 6.53223V9.77246L33.6582 9.85645C33.6464 9.94752 33.6121 10.0558 33.5254 10.1504C33.4038 10.283 33.2469 10.3164 33.1318 10.3164H32.3877C32.2781 10.3164 32.1225 10.2885 31.9971 10.1631C31.8717 10.0377 31.8438 9.88211 31.8438 9.77246V0.532227C31.8438 0.417184 31.877 0.260337 32.0098 0.138672C32.1359 0.0230727 32.2862 1.04062e-05 32.3877 0V0.400391L32.3252 0.408203C32.2709 0.424608 32.2441 0.466038 32.2441 0.532227V9.77246C32.2442 9.86827 32.2918 9.91599 32.3877 9.91602H33.1318L33.1895 9.90723C33.2226 9.8952 33.2449 9.87116 33.2559 9.83496L33.2637 9.77246V6.53223C33.2637 6.05227 33.3598 5.6483 33.5518 5.32031C33.7517 4.98435 34.0037 4.73617 34.3076 4.57617C34.6196 4.40817 34.9359 4.32422 35.2559 4.32422L35.4473 4.33105C35.8786 4.36518 36.2029 4.51903 36.4199 4.79199C36.6759 5.09594 36.8037 5.55604 36.8037 6.17188V9.77246L36.8125 9.83496ZM33.1318 0V0.400391H32.3877V0H33.1318Z" fill="#222222"/>
<path d="M29.2881 9.83496C29.3 9.87111 29.3243 9.89518 29.3604 9.90723L29.4238 9.91602H30.1191C30.1913 9.91602 30.237 9.88919 30.2549 9.83496L30.2637 9.77246V3.65234C30.2637 3.55634 30.2151 3.50781 30.1191 3.50781V3.1084C30.2288 3.1084 30.3853 3.13625 30.5107 3.26172C30.6046 3.35573 30.6436 3.4667 30.6572 3.5625L30.6631 3.65234V9.77246L30.6572 9.8623C30.6435 9.95809 30.6046 10.0692 30.5107 10.1631C30.3853 10.2886 30.2288 10.3164 30.1191 10.3164H29.4238C29.3142 10.3164 29.1577 10.2886 29.0322 10.1631C28.907 10.0377 28.8799 9.88205 28.8799 9.77246V3.65234C28.8799 3.5428 28.9071 3.38712 29.0322 3.26172C29.1577 3.13625 29.3142 3.1084 29.4238 3.1084V3.50781L29.3604 3.51758C29.3065 3.53563 29.2793 3.58045 29.2793 3.65234V9.77246L29.2881 9.83496ZM30.1191 3.1084V3.50781H29.4238V3.1084H30.1191ZM30.4434 1.41992C30.4433 1.2761 30.4078 1.15223 30.3359 1.04883L30.252 0.952148C30.1559 0.862072 30.0413 0.805665 29.9092 0.783203L29.7715 0.772461C29.5795 0.772461 29.419 0.832149 29.291 0.952148C29.1632 1.07206 29.0997 1.22816 29.0996 1.41992L29.1113 1.55762C29.1353 1.68805 29.1951 1.7987 29.291 1.88867C29.3871 1.97873 29.5017 2.03417 29.6338 2.05664L29.7715 2.06836C29.9155 2.06836 30.0414 2.03431 30.1494 1.9668L30.252 1.88867C30.3799 1.76867 30.4434 1.61191 30.4434 1.41992ZM30.8389 1.52832C30.8164 1.77663 30.7148 2.002 30.5254 2.17969C30.316 2.37602 30.0547 2.46777 29.7715 2.46777C29.4883 2.46777 29.227 2.37602 29.0176 2.17969C28.8011 1.97653 28.6992 1.71074 28.6992 1.41992C28.6993 1.12909 28.8009 0.863281 29.0176 0.660156C29.227 0.463825 29.4883 0.37207 29.7715 0.37207C30.0193 0.37207 30.2502 0.442595 30.4443 0.591797L30.5254 0.660156C30.742 0.863281 30.8437 1.12909 30.8438 1.41992L30.8389 1.52832Z" fill="#222222"/>
<path d="M26.3125 9.83496C26.3245 9.87113 26.3487 9.89519 26.3848 9.90723L26.4482 9.91602H27.1914C27.2515 9.91602 27.2898 9.88919 27.3047 9.83496L27.3115 9.77246V5.75195C27.3115 5.10092 27.1553 4.57564 26.8428 4.17578L26.7002 4.0127C26.3502 3.64869 25.8772 3.44394 25.2822 3.39844L25.0195 3.38867C24.5716 3.38871 24.1433 3.49223 23.7354 3.7002C23.3276 3.90815 23.0036 4.20408 22.7637 4.58789V0.532227C22.7637 0.466167 22.739 0.424673 22.6895 0.408203L22.6318 0.400391V0C22.7375 1.18281e-05 22.8902 0.0269464 23.0137 0.150391C23.1062 0.242957 23.1439 0.352033 23.1572 0.445312L23.1641 0.532227V3.58301C23.2861 3.49466 23.4156 3.4142 23.5537 3.34375C24.0166 3.10776 24.507 2.98832 25.0195 2.98828C25.8183 2.98828 26.4924 3.22137 26.9854 3.73242C27.4853 4.2423 27.7119 4.93373 27.7119 5.75195V9.77246L27.707 9.85059C27.6971 9.93677 27.6675 10.0424 27.5889 10.1367C27.4726 10.276 27.3141 10.3164 27.1914 10.3164H26.4482C26.3386 10.3164 26.1821 10.2886 26.0566 10.1631C25.9314 10.0377 25.9034 9.88207 25.9033 9.77246V6.17188C25.9033 5.67249 25.8114 5.34251 25.6748 5.13281L25.6143 5.0498L25.6064 5.04102C25.4574 4.85358 25.2043 4.72463 24.7559 4.72461C24.5089 4.72461 24.2572 4.78866 23.9971 4.92871L23.9941 4.93066C23.7642 5.05174 23.5631 5.24303 23.3955 5.52441C23.2485 5.77668 23.1641 6.1061 23.1641 6.53223V9.77246L23.1582 9.85645C23.1464 9.94752 23.1121 10.0558 23.0254 10.1504C22.9038 10.283 22.7469 10.3164 22.6318 10.3164H21.8877C21.7781 10.3164 21.6225 10.2885 21.4971 10.1631C21.3717 10.0377 21.3438 9.88211 21.3438 9.77246V0.532227C21.3438 0.417184 21.377 0.260337 21.5098 0.138672C21.6359 0.0230727 21.7862 1.04062e-05 21.8877 0V0.400391L21.8252 0.408203C21.7709 0.424608 21.7441 0.466038 21.7441 0.532227V9.77246C21.7442 9.86827 21.7918 9.91599 21.8877 9.91602H22.6318L22.6895 9.90723C22.7226 9.8952 22.7449 9.87116 22.7559 9.83496L22.7637 9.77246V6.53223C22.7637 6.05227 22.8598 5.6483 23.0518 5.32031C23.2517 4.98435 23.5037 4.73617 23.8076 4.57617C24.1196 4.40817 24.4359 4.32422 24.7559 4.32422L24.9473 4.33105C25.3786 4.36518 25.7029 4.51903 25.9199 4.79199C26.1759 5.09594 26.3037 5.55604 26.3037 6.17188V9.77246L26.3125 9.83496ZM22.6318 0V0.400391H21.8877V0H22.6318Z" fill="#222222"/>
<path d="M16.0195 7.58398C16.1418 7.58398 16.2577 7.62818 16.3486 7.70898C16.421 7.77328 16.4621 7.85002 16.4893 7.91406H16.4912C16.6343 8.22759 16.8062 8.41819 16.9893 8.52637C17.1914 8.64104 17.4723 8.71188 17.8555 8.71191V9.1123L17.6973 9.1084C17.3876 9.0934 17.1207 9.03364 16.8965 8.92871L16.7881 8.87207C16.5161 8.71207 16.2959 8.44808 16.1279 8.08008C16.1039 8.01612 16.0675 7.98438 16.0195 7.98438L15.96 7.99609L15.2998 8.17578C15.2359 8.19974 15.2042 8.24006 15.2041 8.2959L15.2158 8.34375C15.4158 8.91167 15.7396 9.33621 16.1875 9.61621C16.6435 9.90419 17.2117 10.0478 17.8916 10.0479C18.4867 10.0479 18.9838 9.91942 19.3828 9.66211L19.5479 9.54395C19.9717 9.20796 20.1836 8.76384 20.1836 8.21191C20.1835 7.78526 20.0674 7.42589 19.835 7.13379L19.7275 7.0127C19.4615 6.73967 19.0457 6.51485 18.4795 6.33984L18.2275 6.26855L17.8682 6.17188C17.3883 6.0439 17.0477 5.90861 16.8477 5.76465C16.6726 5.63164 16.5746 5.4614 16.5527 5.25488L16.5479 5.16406C16.5479 4.92608 16.6305 4.734 16.7959 4.58789L16.8721 4.52832C17.088 4.37641 17.3718 4.29982 17.7236 4.2998C18.4116 4.2998 18.8958 4.60861 19.1758 5.22461C19.1998 5.26655 19.2264 5.29232 19.2549 5.30273L19.2842 5.30859C19.3159 5.30856 19.3395 5.30383 19.3555 5.2959L20.0156 5.0918C20.0277 5.08779 20.0388 5.08317 20.0488 5.07715L20.0762 5.05664C20.0922 5.04064 20.0996 5.02009 20.0996 4.99609C20.0996 4.9723 20.0958 4.95245 20.0879 4.93652C19.9269 4.48846 19.6802 4.13775 19.3477 3.88574L19.2002 3.78418C18.8433 3.55323 18.4247 3.42344 17.9453 3.39453L17.7354 3.38867C17.2955 3.38872 16.9035 3.46426 16.5596 3.61621C16.2236 3.76821 15.9633 3.98 15.7793 4.25195C15.5953 4.5159 15.5039 4.82014 15.5039 5.16406L15.5117 5.33789C15.5467 5.73503 15.7035 6.07731 15.9834 6.36426C16.3034 6.69226 16.8081 6.95253 17.4961 7.14453L17.8799 7.24023C18.3197 7.3522 18.6398 7.48381 18.8398 7.63574C19.0398 7.78774 19.1396 7.98833 19.1396 8.23633L19.1338 8.34082C19.1076 8.57802 18.9893 8.76345 18.7793 8.89648L18.6895 8.94727C18.4698 9.05752 18.1915 9.1123 17.8555 9.1123V8.71191C18.1935 8.71191 18.4204 8.6483 18.5684 8.55664C18.6887 8.47957 18.7402 8.3884 18.7402 8.23633C18.7402 8.14562 18.7172 8.07629 18.6631 8.01465L18.5977 7.95508C18.462 7.85196 18.2044 7.73565 17.7812 7.62793V7.62695L17.3984 7.53223L17.3887 7.5293C16.7577 7.3532 16.2343 7.11278 15.8525 6.78809L15.6973 6.64355C15.302 6.2384 15.1035 5.73691 15.1035 5.16406C15.1035 4.74435 15.2172 4.35918 15.4512 4.02344C15.6813 3.68519 16.0015 3.4298 16.3945 3.25195L16.3984 3.25C16.8011 3.07217 17.2494 2.98833 17.7354 2.98828C18.3671 2.98828 18.934 3.13573 19.417 3.44824H19.416C19.9075 3.75789 20.2543 4.21766 20.4639 4.80078C20.475 4.82962 20.4838 4.85762 20.4893 4.88477L20.5 4.99609L20.4912 5.08789C20.474 5.17922 20.4304 5.26686 20.3584 5.33887C20.2936 5.40364 20.2184 5.44638 20.1426 5.47168L20.1338 5.47461L19.4736 5.67871L19.4727 5.67773C19.3958 5.70361 19.3258 5.70799 19.2842 5.70801C19.0916 5.70801 18.9636 5.60408 18.8877 5.50977L18.8281 5.42285L18.8193 5.40625L18.8115 5.38965C18.6978 5.1394 18.5533 4.9745 18.3877 4.86914C18.2217 4.7635 18.0069 4.7002 17.7236 4.7002C17.4271 4.70021 17.231 4.76439 17.1016 4.85547C16.996 4.92986 16.9483 5.01786 16.9482 5.16406L16.9561 5.24805C16.9719 5.32519 17.0122 5.38584 17.0869 5.44336C17.1913 5.51697 17.3734 5.60227 17.6523 5.69238L17.9707 5.78613L18.3311 5.88184H18.3301C18.9645 6.04957 19.4892 6.27851 19.8633 6.59277L20.0146 6.7334C20.4001 7.12921 20.5839 7.63358 20.584 8.21191L20.5713 8.45898C20.5133 9.0215 20.2526 9.49554 19.7959 9.85742C19.2847 10.2625 18.6381 10.4482 17.8916 10.4482C17.1561 10.4482 16.5101 10.2914 15.9756 9.9541V9.95508C15.5071 9.66221 15.1601 9.24107 14.9297 8.71094L14.8389 8.47754L14.832 8.45898L14.8281 8.44141L14.8154 8.39355L14.8037 8.3457V8.2959C14.8038 8.18632 14.8372 8.0721 14.915 7.97461C14.9887 7.88259 15.0816 7.83087 15.1592 7.80176L15.1768 7.79492L15.1943 7.79004L15.8545 7.61035L15.8682 7.60645L15.8809 7.60352L15.9414 7.5918L15.9805 7.58398H16.0195Z" fill="#222222"/>
<path d="M14.2451 6.71191C14.2451 6.07203 14.1089 5.50002 13.8369 4.99609C13.599 4.55529 13.2755 4.2001 12.8662 3.93066L12.6855 3.82031C12.2586 3.56835 11.7701 3.42606 11.2207 3.39453L10.9814 3.38867C10.3336 3.38867 9.76156 3.53243 9.26562 3.82031L9.08691 3.93066C8.68369 4.20013 8.36294 4.55522 8.125 4.99609C7.86104 5.50002 7.72953 6.07203 7.72949 6.71191L7.73535 6.94922C7.76424 7.49408 7.89417 7.9869 8.125 8.42773C8.397 8.93173 8.77763 9.32821 9.26562 9.61621C9.69965 9.86815 10.1918 10.0096 10.7422 10.041L10.9814 10.0479C11.6293 10.0478 12.1976 9.90417 12.6855 9.61621C13.1814 9.32822 13.565 8.93164 13.8369 8.42773C14.1088 7.9238 14.2451 7.3518 14.2451 6.71191ZM12.7891 6.71191C12.789 6.34526 12.7268 6.03026 12.6104 5.75977L12.5566 5.64648C12.4246 5.38808 12.2485 5.18521 12.0264 5.03125L11.9287 4.96777C11.661 4.80843 11.3491 4.72465 10.9814 4.72461C10.6139 4.72461 10.3019 4.80853 10.0342 4.96777C9.7652 5.12788 9.55621 5.35118 9.40527 5.64648C9.25465 5.94128 9.17289 6.29284 9.17285 6.71191C9.17285 7.07893 9.23589 7.39435 9.35254 7.66504L9.40527 7.77832C9.53732 8.03663 9.71345 8.23962 9.93555 8.39355L10.0342 8.45605C10.3019 8.61539 10.6138 8.7002 10.9814 8.7002V9.10059L10.8213 9.0957C10.4538 9.07381 10.1231 8.97479 9.8291 8.7998C9.49321 8.59981 9.23279 8.31988 9.04883 7.95996C8.88795 7.64508 8.79747 7.28727 8.77734 6.88672L8.77344 6.71191C8.77348 6.24004 8.86487 5.82379 9.04883 5.46387C9.23282 5.10393 9.49314 4.824 9.8291 4.62402C10.1651 4.42404 10.5495 4.32422 10.9814 4.32422L11.1406 4.3291C11.5081 4.35093 11.8388 4.44911 12.1328 4.62402C12.4687 4.82397 12.7291 5.10401 12.9131 5.46387C13.097 5.82379 13.1894 6.24004 13.1895 6.71191L13.1846 6.88672C13.1644 7.28734 13.074 7.64504 12.9131 7.95996C12.7291 8.31996 12.4688 8.5998 12.1328 8.7998C11.7969 8.99973 11.4133 9.10054 10.9814 9.10059V8.7002C11.3491 8.70015 11.661 8.6154 11.9287 8.45605C12.1975 8.29601 12.4058 8.07339 12.5566 7.77832C12.7074 7.48341 12.7891 7.13122 12.7891 6.71191ZM14.6377 6.97168C14.6049 7.56935 14.458 8.12047 14.1895 8.61816C13.8828 9.18645 13.4463 9.63507 12.8877 9.95996C12.3298 10.2891 11.6903 10.4482 10.9814 10.4482C10.3608 10.4482 9.7904 10.3272 9.2793 10.0771L9.06445 9.96191L9.06152 9.96094C8.57901 9.67614 8.18872 9.29589 7.89355 8.8252L7.77344 8.61816L7.77051 8.61426C7.47293 8.04616 7.3291 7.40839 7.3291 6.71191C7.32914 6.01559 7.47301 5.37854 7.77051 4.81055L7.77344 4.80664C8.08014 4.23834 8.51259 3.79139 9.06641 3.47363C9.63057 3.14652 10.273 2.98828 10.9814 2.98828C11.6876 2.98832 12.3255 3.14509 12.8818 3.47168C13.3737 3.74933 13.7698 4.12683 14.0674 4.59863L14.1895 4.80664C14.4963 5.37542 14.6455 6.0138 14.6455 6.71191L14.6377 6.97168Z" fill="#222222"/>
<path d="M3.86426 9.83496C3.87519 9.87093 3.89685 9.89516 3.92969 9.90723L3.98828 9.91602H4.78027L4.83789 9.90723C4.87081 9.89519 4.89236 9.87096 4.90332 9.83496L4.91211 9.77246V6.23242L8.24805 0.923828L8.34375 0.772461C8.36775 0.732461 8.36775 0.696063 8.34375 0.664062C8.3318 0.634313 8.31096 0.615957 8.28125 0.608398L8.24805 0.604492V0.204102C8.32677 0.204123 8.42489 0.221164 8.51953 0.280273C8.6004 0.330818 8.6564 0.399357 8.69336 0.470703C8.73424 0.539911 8.76165 0.622293 8.76172 0.714844C8.76172 0.823702 8.72497 0.913398 8.68652 0.977539L8.68262 0.985352L5.31152 6.34863V9.77246L5.30664 9.85645C5.29489 9.9475 5.26046 10.0558 5.17383 10.1504C5.0523 10.283 4.89528 10.3163 4.78027 10.3164H3.98828C3.87324 10.3164 3.71542 10.2831 3.59375 10.1504C3.47838 10.0244 3.45609 9.87386 3.45605 9.77246V6.37109L0.0976562 1.00488C0.0332493 0.918735 0.0113617 0.825644 0.00390625 0.756836L0 0.688477L0.00878906 0.59375C0.0274918 0.495297 0.0782619 0.389976 0.181641 0.30957C0.300114 0.217502 0.431023 0.20411 0.507812 0.204102V0.604492L0.460938 0.609375C0.420238 0.619823 0.399414 0.646373 0.399414 0.688477C0.399449 0.728335 0.407864 0.756497 0.423828 0.772461L3.85547 6.25586V9.77246L3.86426 9.83496ZM7.36035 0.204102V0.604492L7.30469 0.610352C7.25547 0.622419 7.22205 0.652392 7.2041 0.700195L4.39551 5.30859L1.57617 0.700195C1.55817 0.652196 1.52411 0.622352 1.47461 0.610352L1.41992 0.604492V0.204102C1.51141 0.204106 1.62282 0.22213 1.72852 0.287109C1.81911 0.342862 1.88279 0.420483 1.9248 0.503906L4.39453 4.54004L6.85449 0.50293C6.89649 0.419777 6.96047 0.342724 7.05078 0.287109C7.15655 0.22202 7.26879 0.204102 7.36035 0.204102ZM8.24805 0.204102V0.604492H7.36035V0.204102H8.24805ZM1.41992 0.204102V0.604492H0.507812V0.204102H1.41992Z" fill="#222222"/>
</svg>
