<svg width="58" height="10" viewBox="0 0 58 10" fill="none" xmlns="http://www.w3.org/2000/svg">
<path d="M54.3938 9.93619C53.6818 9.93619 53.0578 9.78819 52.5218 9.49219C51.9858 9.19619 51.5698 8.78419 51.2738 8.25619C50.9778 7.72819 50.8298 7.12419 50.8298 6.44419C50.8298 5.76419 50.9778 5.16019 51.2738 4.63218C51.5698 4.09618 51.9858 3.68019 52.5218 3.38419C53.0578 3.08819 53.6818 2.94019 54.3938 2.94019C55.1058 2.94019 55.7298 3.08819 56.2658 3.38419C56.8018 3.68019 57.2178 4.09618 57.5138 4.63218C57.8098 5.16019 57.9578 5.76419 57.9578 6.44419C57.9578 7.12419 57.8098 7.72819 57.5138 8.25619C57.2178 8.78419 56.8018 9.19619 56.2658 9.49219C55.7298 9.78819 55.1058 9.93619 54.3938 9.93619ZM52.5698 6.44419C52.5698 7.02019 52.7378 7.49219 53.0738 7.86019C53.4178 8.22019 53.8578 8.40019 54.3938 8.40019C54.9298 8.40019 55.3658 8.22019 55.7018 7.86019C56.0458 7.49219 56.2178 7.02019 56.2178 6.44419C56.2178 5.86019 56.0458 5.38819 55.7018 5.02818C55.3658 4.66019 54.9298 4.47619 54.3938 4.47619C53.8578 4.47619 53.4178 4.66019 53.0738 5.02818C52.7378 5.38819 52.5698 5.86019 52.5698 6.44419Z" fill="url(#paint0_linear_66_52)"/>
<path d="M48.4043 9.93604C47.6683 9.93604 47.1083 9.70804 46.7243 9.25204C46.3403 8.78804 46.1483 8.10404 46.1483 7.20004V4.58404H45.1643C45.1083 4.58404 45.0643 4.56804 45.0323 4.53604C45.0083 4.50404 44.9963 4.46404 44.9963 4.41604V3.24004C44.9963 3.12804 45.0523 3.07204 45.1643 3.07204H46.1483V1.26004C46.1483 1.21204 46.1603 1.17204 46.1843 1.14004C46.2163 1.10804 46.2603 1.09204 46.3163 1.09204H47.6723C47.7203 1.09204 47.7603 1.10804 47.7923 1.14004C47.8243 1.17204 47.8403 1.21204 47.8403 1.26004V3.07204H49.4363C49.5483 3.07204 49.6043 3.12804 49.6043 3.24004V4.41604C49.6043 4.46404 49.5883 4.50404 49.5563 4.53604C49.5323 4.56804 49.4923 4.58404 49.4363 4.58404H47.8403V7.30804C47.8403 7.67604 47.9003 7.95204 48.0203 8.13604C48.1403 8.31204 48.3323 8.40004 48.5963 8.40004C48.8043 8.40004 48.9723 8.29204 49.1003 8.07604C49.1563 7.97204 49.2323 7.94404 49.3283 7.99204L50.3483 8.44804C50.4123 8.48804 50.4443 8.53604 50.4443 8.59204C50.4443 8.64004 50.4283 8.68404 50.3963 8.72404C50.1723 9.14804 49.8843 9.45604 49.5323 9.64804C49.1883 9.84004 48.8123 9.93604 48.4043 9.93604Z" fill="url(#paint1_linear_66_52)"/>
<path d="M42.3313 3.24C42.3313 3.192 42.3433 3.152 42.3673 3.12C42.3993 3.088 42.4433 3.072 42.4993 3.072H43.8793C43.9353 3.072 43.9753 3.088 43.9993 3.12C44.0313 3.152 44.0473 3.192 44.0473 3.24V9.624C44.0473 9.744 43.9913 9.804 43.8793 9.804H42.4993C42.3873 9.804 42.3313 9.744 42.3313 9.624V3.24ZM43.1713 1.872C42.8833 1.872 42.6473 1.788 42.4633 1.62C42.2793 1.444 42.1873 1.216 42.1873 0.936C42.1873 0.664 42.2793 0.44 42.4633 0.264C42.6553 0.0880003 42.8913 0 43.1713 0C43.4513 0 43.6833 0.0880003 43.8673 0.264C44.0593 0.44 44.1553 0.664 44.1553 0.936C44.1553 1.216 44.0633 1.444 43.8793 1.62C43.6953 1.788 43.4593 1.872 43.1713 1.872Z" fill="url(#paint2_linear_66_52)"/>
<path d="M34.5188 9.80406C34.4068 9.80406 34.3508 9.74806 34.3508 9.63606V0.228058C34.3508 0.116058 34.4068 0.0600586 34.5188 0.0600586H35.8628C35.9748 0.0600586 36.0308 0.116058 36.0308 0.228058V3.90006C36.2788 3.58806 36.5868 3.35206 36.9548 3.19206C37.3308 3.02406 37.7308 2.94006 38.1548 2.94006C38.9308 2.94006 39.5348 3.16006 39.9668 3.60006C40.3988 4.04006 40.6148 4.64806 40.6148 5.42406V9.63606C40.6148 9.69206 40.5988 9.73206 40.5668 9.75606C40.5348 9.78806 40.4948 9.80406 40.4468 9.80406H39.0908C38.9788 9.80406 38.9228 9.74806 38.9228 9.63606V6.10806C38.9228 5.54806 38.8188 5.13606 38.6108 4.87206C38.4028 4.60806 38.0788 4.47606 37.6388 4.47606C37.1908 4.47606 36.8108 4.64006 36.4988 4.96806C36.1868 5.29606 36.0308 5.76406 36.0308 6.37206V9.63606C36.0308 9.74806 35.9748 9.80406 35.8628 9.80406H34.5188Z" fill="url(#paint3_linear_66_52)"/>
<path d="M30.8938 3.24C30.8938 3.192 30.9058 3.152 30.9298 3.12C30.9618 3.088 31.0058 3.072 31.0618 3.072H32.4418C32.4978 3.072 32.5378 3.088 32.5618 3.12C32.5938 3.152 32.6098 3.192 32.6098 3.24V9.624C32.6098 9.744 32.5538 9.804 32.4418 9.804H31.0618C30.9498 9.804 30.8938 9.744 30.8938 9.624V3.24ZM31.7338 1.872C31.4458 1.872 31.2098 1.788 31.0258 1.62C30.8418 1.444 30.7498 1.216 30.7498 0.936C30.7498 0.664 30.8418 0.44 31.0258 0.264C31.2178 0.0880003 31.4538 0 31.7338 0C32.0138 0 32.2458 0.0880003 32.4298 0.264C32.6218 0.44 32.7178 0.664 32.7178 0.936C32.7178 1.216 32.6258 1.444 32.4418 1.62C32.2578 1.788 32.0218 1.872 31.7338 1.872Z" fill="url(#paint4_linear_66_52)"/>
<path d="M23.0813 9.80406C22.9693 9.80406 22.9133 9.74806 22.9133 9.63606V0.228058C22.9133 0.116058 22.9693 0.0600586 23.0813 0.0600586H24.4253C24.5373 0.0600586 24.5933 0.116058 24.5933 0.228058V3.90006C24.8413 3.58806 25.1493 3.35206 25.5173 3.19206C25.8933 3.02406 26.2933 2.94006 26.7173 2.94006C27.4933 2.94006 28.0973 3.16006 28.5293 3.60006C28.9613 4.04006 29.1773 4.64806 29.1773 5.42406V9.63606C29.1773 9.69206 29.1613 9.73206 29.1293 9.75606C29.0973 9.78806 29.0573 9.80406 29.0093 9.80406H27.6533C27.5413 9.80406 27.4853 9.74806 27.4853 9.63606V6.10806C27.4853 5.54806 27.3813 5.13606 27.1733 4.87206C26.9653 4.60806 26.6413 4.47606 26.2013 4.47606C25.7533 4.47606 25.3733 4.64006 25.0613 4.96806C24.7493 5.29606 24.5933 5.76406 24.5933 6.37206V9.63606C24.5933 9.74806 24.5373 9.80406 24.4253 9.80406H23.0813Z" fill="url(#paint5_linear_66_52)"/>
<path d="M18.962 9.93619C18.226 9.93619 17.606 9.78019 17.102 9.46819C16.606 9.16419 16.25 8.72019 16.034 8.13619C16.034 8.11219 16.03 8.09219 16.022 8.07619C16.022 8.00419 16.066 7.95619 16.154 7.93219L17.39 7.59619C17.47 7.59619 17.522 7.63619 17.546 7.71619C17.698 7.97219 17.886 8.15619 18.11 8.26819C18.334 8.38019 18.598 8.43619 18.902 8.43619C19.214 8.43619 19.454 8.40019 19.622 8.32819C19.798 8.25619 19.886 8.12819 19.886 7.94419C19.886 7.80819 19.81 7.69219 19.658 7.59619C19.514 7.50019 19.258 7.40019 18.89 7.29619L18.566 7.20019C17.782 6.97619 17.21 6.67619 16.85 6.30019C16.498 5.91619 16.322 5.45619 16.322 4.92019C16.322 4.53619 16.43 4.19619 16.646 3.90019C16.862 3.59619 17.162 3.36019 17.546 3.19219C17.938 3.02419 18.386 2.94019 18.89 2.94019C19.546 2.94019 20.098 3.08419 20.546 3.37219C20.994 3.65219 21.318 4.07219 21.518 4.63218C21.526 4.65618 21.534 4.68419 21.542 4.71619C21.542 4.78019 21.502 4.82019 21.422 4.83619L20.234 5.22019C20.218 5.22819 20.194 5.23219 20.162 5.23219C20.106 5.23219 20.058 5.19619 20.018 5.12419C19.754 4.66819 19.366 4.44019 18.854 4.44019C18.622 4.44019 18.43 4.48019 18.278 4.56019C18.134 4.63219 18.062 4.75218 18.062 4.92019C18.062 5.07219 18.142 5.20019 18.302 5.30418C18.462 5.40819 18.73 5.50419 19.106 5.59219L19.418 5.67619C20.218 5.87619 20.786 6.15619 21.122 6.51619C21.458 6.86819 21.626 7.33219 21.626 7.90819C21.626 8.31619 21.51 8.67219 21.278 8.97619C21.054 9.28019 20.738 9.51619 20.33 9.68419C19.93 9.85219 19.474 9.93619 18.962 9.93619Z" fill="url(#paint6_linear_66_52)"/>
<path d="M11.6087 9.93619C10.8967 9.93619 10.2727 9.78819 9.73668 9.49219C9.20068 9.19619 8.78468 8.78419 8.48868 8.25619C8.19268 7.72819 8.04468 7.12419 8.04468 6.44419C8.04468 5.76419 8.19268 5.16019 8.48868 4.63218C8.78468 4.09618 9.20068 3.68019 9.73668 3.38419C10.2727 3.08819 10.8967 2.94019 11.6087 2.94019C12.3207 2.94019 12.9447 3.08819 13.4807 3.38419C14.0167 3.68019 14.4327 4.09618 14.7287 4.63218C15.0247 5.16019 15.1727 5.76419 15.1727 6.44419C15.1727 7.12419 15.0247 7.72819 14.7287 8.25619C14.4327 8.78419 14.0167 9.19619 13.4807 9.49219C12.9447 9.78819 12.3207 9.93619 11.6087 9.93619ZM9.78468 6.44419C9.78468 7.02019 9.95268 7.49219 10.2887 7.86019C10.6327 8.22019 11.0727 8.40019 11.6087 8.40019C12.1447 8.40019 12.5807 8.22019 12.9167 7.86019C13.2607 7.49219 13.4327 7.02019 13.4327 6.44419C13.4327 5.86019 13.2607 5.38819 12.9167 5.02818C12.5807 4.66019 12.1447 4.47619 11.6087 4.47619C11.0727 4.47619 10.6327 4.66019 10.2887 5.02818C9.95268 5.38819 9.78468 5.86019 9.78468 6.44419Z" fill="url(#paint7_linear_66_52)"/>
<path d="M3.66 9.80416C3.548 9.80416 3.492 9.74816 3.492 9.63616V6.18016L0.036 0.46816C0.012 0.42816 0 0.40016 0 0.38416C0 0.30416 0.052 0.26416 0.156 0.26416H1.788C1.884 0.26416 1.948 0.30416 1.98 0.38416L4.392 4.59616L6.78 0.38416C6.812 0.30416 6.876 0.26416 6.972 0.26416H8.58C8.644 0.26416 8.688 0.28416 8.712 0.32416C8.736 0.36416 8.732 0.41216 8.7 0.46816L5.244 6.16816V9.63616C5.244 9.74816 5.188 9.80416 5.076 9.80416H3.66Z" fill="url(#paint8_linear_66_52)"/>
<defs>
<linearGradient id="paint0_linear_66_52" x1="29.248" y1="-4.63989" x2="29.248" y2="14.3601" gradientUnits="userSpaceOnUse">
<stop stop-color="#505050"/>
<stop offset="1" stop-color="#0F0F0F"/>
</linearGradient>
<linearGradient id="paint1_linear_66_52" x1="29.248" y1="-4.63989" x2="29.248" y2="14.3601" gradientUnits="userSpaceOnUse">
<stop stop-color="#505050"/>
<stop offset="1" stop-color="#0F0F0F"/>
</linearGradient>
<linearGradient id="paint2_linear_66_52" x1="29.248" y1="-4.63989" x2="29.248" y2="14.3601" gradientUnits="userSpaceOnUse">
<stop stop-color="#505050"/>
<stop offset="1" stop-color="#0F0F0F"/>
</linearGradient>
<linearGradient id="paint3_linear_66_52" x1="29.248" y1="-4.63989" x2="29.248" y2="14.3601" gradientUnits="userSpaceOnUse">
<stop stop-color="#505050"/>
<stop offset="1" stop-color="#0F0F0F"/>
</linearGradient>
<linearGradient id="paint4_linear_66_52" x1="29.248" y1="-4.63989" x2="29.248" y2="14.3601" gradientUnits="userSpaceOnUse">
<stop stop-color="#505050"/>
<stop offset="1" stop-color="#0F0F0F"/>
</linearGradient>
<linearGradient id="paint5_linear_66_52" x1="29.248" y1="-4.63989" x2="29.248" y2="14.3601" gradientUnits="userSpaceOnUse">
<stop stop-color="#505050"/>
<stop offset="1" stop-color="#0F0F0F"/>
</linearGradient>
<linearGradient id="paint6_linear_66_52" x1="29.248" y1="-4.63989" x2="29.248" y2="14.3601" gradientUnits="userSpaceOnUse">
<stop stop-color="#505050"/>
<stop offset="1" stop-color="#0F0F0F"/>
</linearGradient>
<linearGradient id="paint7_linear_66_52" x1="29.248" y1="-4.63989" x2="29.248" y2="14.3601" gradientUnits="userSpaceOnUse">
<stop stop-color="#505050"/>
<stop offset="1" stop-color="#0F0F0F"/>
</linearGradient>
<linearGradient id="paint8_linear_66_52" x1="29.248" y1="-4.63989" x2="29.248" y2="14.3601" gradientUnits="userSpaceOnUse">
<stop stop-color="#505050"/>
<stop offset="1" stop-color="#0F0F0F"/>
</linearGradient>
</defs>
</svg>
