<svg width="66" height="12" viewBox="0 0 66 12" fill="none" xmlns="http://www.w3.org/2000/svg">
<path d="M65.2568 7.24805C65.2568 6.62503 65.1347 6.06301 64.8896 5.5625L64.7764 5.35254C64.4964 4.86255 64.1159 4.46978 63.6338 4.17578L63.4209 4.05664C62.9099 3.78362 62.3251 3.62981 61.667 3.5957L61.3809 3.58789C60.6049 3.58789 59.9248 3.74464 59.3408 4.05664L59.1279 4.17578C58.6457 4.4698 58.2644 4.86246 57.9844 5.35254L57.8721 5.5625C57.627 6.06304 57.5049 6.62497 57.5049 7.24805L57.5117 7.51465C57.5467 8.12695 57.7045 8.67809 57.9844 9.16797C58.3044 9.71997 58.7568 10.1481 59.3408 10.4521C59.8517 10.7251 60.436 10.8789 61.0938 10.9131L61.3809 10.9199C62.1568 10.9199 62.8369 10.7641 63.4209 10.4521C64.0048 10.1482 64.4564 9.71991 64.7764 9.16797C65.0563 8.67804 65.214 8.12705 65.249 7.51465L65.2568 7.24805ZM62.5322 7.24805C62.5322 6.89684 62.4444 6.62485 62.2812 6.41309L62.207 6.32617L62.2031 6.32324C62.0023 6.10421 61.7386 5.98832 61.3809 5.98828C61.0248 5.98828 60.7553 6.10305 60.5459 6.32324L60.4736 6.41016C60.3154 6.62194 60.2285 6.89478 60.2285 7.24805C60.2285 7.65114 60.3416 7.95573 60.5479 8.1875C60.757 8.40624 61.026 8.52051 61.3809 8.52051V8.82031L61.2227 8.81348C60.8621 8.78202 60.5623 8.63975 60.3242 8.3877C60.0934 8.12871 59.9634 7.80548 59.9346 7.41797L59.9287 7.24805C59.9287 6.78421 60.0604 6.40806 60.3242 6.12012C60.5962 5.83212 60.9489 5.68848 61.3809 5.68848L61.5391 5.69531C61.8985 5.72687 62.1939 5.8682 62.4248 6.12012C62.6968 6.40809 62.833 6.78412 62.833 7.24805L62.8262 7.41797C62.7965 7.80555 62.6627 8.12869 62.4248 8.3877L62.3213 8.48926C62.072 8.70962 61.7587 8.82028 61.3809 8.82031V8.52051C61.7384 8.52047 62.0024 8.40442 62.2031 8.18555H62.2041L62.2793 8.09473C62.4443 7.87562 62.5322 7.59907 62.5322 7.24805ZM65.5566 7.24805C65.5566 8.01405 65.3859 8.70695 65.0371 9.31738L65.0361 9.31836C64.6866 9.92124 64.1914 10.3884 63.5586 10.7178C62.9249 11.0556 62.1963 11.2197 61.3809 11.2197C60.5652 11.2197 59.836 11.0558 59.2021 10.7178C58.6485 10.4295 58.2007 10.0359 57.8633 9.53809L57.7256 9.31836L57.7246 9.31738C57.3758 8.70695 57.2051 8.01405 57.2051 7.24805C57.2051 6.48958 57.3762 5.80493 57.7256 5.20215C58.0747 4.5918 58.5687 4.11976 59.2021 3.79004C59.8359 3.45213 60.5653 3.28809 61.3809 3.28809C62.1962 3.28811 62.925 3.45233 63.5586 3.79004C64.1921 4.11979 64.687 4.59173 65.0361 5.20215C65.3855 5.80489 65.5566 6.48964 65.5566 7.24805Z" fill="#ccc"/>
<path d="M53.9922 10.6182C53.9997 10.6615 54.0179 10.6986 54.0479 10.7285C54.0778 10.7584 54.1148 10.7767 54.1582 10.7842L54.2041 10.7881H56.1719C56.2198 10.7881 56.2614 10.7773 56.2959 10.7549L56.3281 10.7285C56.3581 10.6986 56.3763 10.6615 56.3838 10.6182L56.3877 10.5723V6.18066C56.3877 5.4665 56.2135 4.88959 55.8643 4.45117L55.7041 4.27246C55.2481 3.81646 54.6119 3.58789 53.7959 3.58789C52.9401 3.58792 52.272 3.86792 51.792 4.42773V1.02051C51.792 0.956635 51.7723 0.904226 51.7324 0.864258C51.7025 0.834312 51.6655 0.815144 51.6221 0.807617L51.5762 0.803711V0.503906C51.6752 0.503931 51.7742 0.528865 51.8613 0.584961L51.9443 0.652344C52.0222 0.73029 52.0668 0.824027 52.084 0.921875L52.0918 1.02051V3.76172C52.5643 3.44358 53.1369 3.28811 53.7959 3.28809C54.6691 3.28809 55.3898 3.53355 55.916 4.05957C56.4422 4.5858 56.6885 5.30731 56.6885 6.18066V10.5723L56.6797 10.6709C56.6624 10.7687 56.6179 10.8626 56.54 10.9404C56.4362 11.0442 56.304 11.0879 56.1719 11.0879H54.2041C54.105 11.0879 54.0061 11.063 53.9189 11.0068L53.8359 10.9404C53.7321 10.8366 53.6885 10.7044 53.6885 10.5723V7.08008C53.6885 6.66951 53.627 6.41071 53.5439 6.26074L53.5068 6.20312L53.5039 6.19824C53.4157 6.07485 53.2651 5.98837 52.9805 5.98828C52.7081 5.98828 52.5073 6.08585 52.3506 6.2832L52.3486 6.28613C52.1932 6.47612 52.0918 6.78141 52.0918 7.24805V10.5723L52.084 10.6709C52.0667 10.7687 52.0222 10.8625 51.9443 10.9404C51.8405 11.0442 51.7083 11.0879 51.5762 11.0879H49.6084C49.5091 11.0879 49.4095 11.0632 49.3223 11.0068L49.2402 10.9404C49.1364 10.8366 49.0918 10.7044 49.0918 10.5723V1.02051C49.0918 0.888333 49.1364 0.756178 49.2402 0.652344L49.3223 0.584961C49.4095 0.528691 49.5092 0.503906 49.6084 0.503906V0.803711L49.5625 0.807617C49.5189 0.815084 49.4822 0.834209 49.4521 0.864258C49.4121 0.904258 49.3916 0.956508 49.3916 1.02051V10.5723C49.3916 10.6362 49.4122 10.6885 49.4521 10.7285C49.4821 10.7584 49.519 10.7767 49.5625 10.7842L49.6084 10.7881H51.5762L51.6221 10.7842C51.651 10.7792 51.6773 10.7699 51.7002 10.7549L51.7324 10.7285C51.7623 10.6986 51.7806 10.6615 51.7881 10.6182L51.792 10.5723V7.24805C51.792 6.80727 51.8748 6.45837 52.04 6.20117L52.1162 6.0957C52.3322 5.82396 52.6206 5.68848 52.9805 5.68848L53.1074 5.69336C53.3945 5.71784 53.608 5.82839 53.748 6.02441C53.908 6.24041 53.9883 6.59225 53.9883 7.08008V10.5723L53.9922 10.6182ZM51.5762 0.503906V0.803711H49.6084V0.503906H51.5762Z" fill="#ccc"/>
<path d="M45.458 10.6182C45.4655 10.6616 45.4847 10.6986 45.5146 10.7285C45.5446 10.7584 45.5815 10.7767 45.625 10.7842L45.6709 10.7881H47.6387L47.6846 10.7842C47.7135 10.7792 47.7398 10.7699 47.7627 10.7549L47.7949 10.7285C47.8248 10.6986 47.8431 10.6615 47.8506 10.6182L47.8545 10.5723V3.92383C47.8544 3.86016 47.8347 3.81221 47.7949 3.78027C47.765 3.75033 47.728 3.73116 47.6846 3.72363L47.6387 3.71973V3.41992C47.7606 3.41995 47.8808 3.45955 47.9805 3.54688L47.9814 3.5459C48.1099 3.64867 48.1542 3.79371 48.1543 3.92383V10.5723L48.1465 10.6709C48.1292 10.7687 48.0847 10.8625 48.0068 10.9404C47.903 11.0442 47.7708 11.0879 47.6387 11.0879H45.6709C45.5716 11.0879 45.472 11.0632 45.3848 11.0068L45.3027 10.9404C45.1989 10.8366 45.1543 10.7044 45.1543 10.5723V3.92383C45.1544 3.79371 45.1987 3.64867 45.3271 3.5459L45.3281 3.54688C45.4279 3.45935 45.5488 3.41992 45.6709 3.41992V3.71973L45.625 3.72363C45.5814 3.7311 45.5447 3.75022 45.5146 3.78027C45.4747 3.81222 45.4542 3.86 45.4541 3.92383V10.5723L45.458 10.6182ZM47.6387 3.41992V3.71973H45.6709V3.41992H47.6387ZM47.9746 1.54785C47.9745 1.22601 47.8766 0.956078 47.6807 0.738281L47.5908 0.648438C47.3428 0.416438 47.0303 0.299805 46.6543 0.299805C46.2784 0.299851 45.962 0.416484 45.7061 0.648438C45.4584 0.88032 45.335 1.18019 45.335 1.54785L45.3408 1.68262C45.3679 1.98979 45.4891 2.2452 45.7061 2.44824C45.962 2.6722 46.2784 2.78413 46.6543 2.78418C46.9831 2.78418 47.2632 2.69862 47.4941 2.52734L47.5908 2.44824C47.8148 2.24518 47.9408 1.98986 47.9688 1.68262L47.9746 1.54785ZM48.2744 1.54785C48.2744 1.99432 48.1152 2.37799 47.792 2.6709C47.4819 2.95101 47.0946 3.08398 46.6543 3.08398C46.214 3.08394 45.8253 2.95079 45.5088 2.67383L45.501 2.66699V2.66602C45.1875 2.37233 45.0342 1.9907 45.0342 1.54785C45.0343 1.1047 45.188 0.722447 45.502 0.428711L45.5049 0.425781C45.8211 0.139226 46.2111 4.73919e-05 46.6543 0C47.0975 0 47.4862 0.138969 47.7959 0.428711H47.7949C48.116 0.721198 48.2743 1.10291 48.2744 1.54785Z" fill="#ccc"/>
<path d="M41.582 10.6182C41.5896 10.6615 41.6078 10.6986 41.6377 10.7285C41.6677 10.7584 41.7046 10.7767 41.748 10.7842L41.7939 10.7881H43.7617C43.8097 10.7881 43.8513 10.7773 43.8857 10.7549L43.918 10.7285C43.9479 10.6986 43.9661 10.6615 43.9736 10.6182L43.9775 10.5723V6.18066C43.9775 5.4665 43.8034 4.88959 43.4541 4.45117L43.2939 4.27246C42.8379 3.81646 42.2017 3.58789 41.3857 3.58789C40.5299 3.58792 39.8618 3.86792 39.3818 4.42773V1.02051C39.3818 0.956635 39.3621 0.904226 39.3223 0.864258C39.2923 0.834312 39.2553 0.815144 39.2119 0.807617L39.166 0.803711V0.503906C39.265 0.503931 39.3641 0.528865 39.4512 0.584961L39.5342 0.652344C39.612 0.73029 39.6566 0.824027 39.6738 0.921875L39.6816 1.02051V3.76172C40.1541 3.44358 40.7268 3.28811 41.3857 3.28809C42.2589 3.28809 42.9797 3.53355 43.5059 4.05957C44.0321 4.5858 44.2783 5.30731 44.2783 6.18066V10.5723L44.2695 10.6709C44.2523 10.7687 44.2078 10.8626 44.1299 10.9404C44.0261 11.0442 43.8938 11.0879 43.7617 11.0879H41.7939C41.6948 11.0879 41.5959 11.063 41.5088 11.0068L41.4258 10.9404C41.322 10.8366 41.2783 10.7044 41.2783 10.5723V7.08008C41.2783 6.66951 41.2168 6.41071 41.1338 6.26074L41.0967 6.20312L41.0938 6.19824C41.0055 6.07485 40.855 5.98837 40.5703 5.98828C40.298 5.98828 40.0972 6.08585 39.9404 6.2832L39.9385 6.28613C39.783 6.47612 39.6817 6.78141 39.6816 7.24805V10.5723L39.6738 10.6709C39.6566 10.7687 39.612 10.8625 39.5342 10.9404C39.4304 11.0442 39.2981 11.0879 39.166 11.0879H37.1982C37.0989 11.0879 36.9994 11.0632 36.9121 11.0068L36.8301 10.9404C36.7263 10.8366 36.6817 10.7044 36.6816 10.5723V1.02051C36.6816 0.888333 36.7262 0.756178 36.8301 0.652344L36.9121 0.584961C36.9993 0.528691 37.099 0.503906 37.1982 0.503906V0.803711L37.1523 0.807617C37.1087 0.815084 37.0721 0.834209 37.042 0.864258C37.002 0.904258 36.9814 0.956508 36.9814 1.02051V10.5723C36.9815 10.6362 37.002 10.6885 37.042 10.7285C37.072 10.7584 37.1089 10.7767 37.1523 10.7842L37.1982 10.7881H39.166L39.2119 10.7842C39.2408 10.7792 39.2671 10.7699 39.29 10.7549L39.3223 10.7285C39.3522 10.6986 39.3704 10.6615 39.3779 10.6182L39.3818 10.5723V7.24805C39.3819 6.80727 39.4646 6.45837 39.6299 6.20117L39.7061 6.0957C39.922 5.82396 40.2105 5.68848 40.5703 5.68848L40.6973 5.69336C40.9843 5.71784 41.1979 5.82839 41.3379 6.02441C41.4978 6.24041 41.5781 6.59225 41.5781 7.08008V10.5723L41.582 10.6182ZM39.166 0.503906V0.803711H37.1982V0.503906H39.166Z" fill="#ccc"/>
<path d="M33.0479 10.6182C33.0554 10.6616 33.0745 10.6986 33.1045 10.7285C33.1345 10.7584 33.1714 10.7767 33.2148 10.7842L33.2607 10.7881H35.2285L35.2744 10.7842C35.3033 10.7792 35.3296 10.7699 35.3525 10.7549L35.3848 10.7285C35.4147 10.6986 35.4329 10.6615 35.4404 10.6182L35.4443 10.5723V3.92383C35.4443 3.86016 35.4245 3.81221 35.3848 3.78027C35.3548 3.75033 35.3178 3.73116 35.2744 3.72363L35.2285 3.71973V3.41992C35.3504 3.41995 35.4707 3.45955 35.5703 3.54688L35.5713 3.5459C35.6998 3.64867 35.7441 3.79371 35.7441 3.92383V10.5723L35.7363 10.6709C35.7191 10.7687 35.6745 10.8625 35.5967 10.9404C35.4929 11.0442 35.3606 11.0879 35.2285 11.0879H33.2607C33.1614 11.0879 33.0619 11.0632 32.9746 11.0068L32.8926 10.9404C32.7888 10.8366 32.7442 10.7044 32.7441 10.5723V3.92383C32.7442 3.79371 32.7885 3.64867 32.917 3.5459L32.918 3.54688C33.0177 3.45935 33.1387 3.41992 33.2607 3.41992V3.71973L33.2148 3.72363C33.1712 3.7311 33.1346 3.75022 33.1045 3.78027C33.0646 3.81222 33.044 3.86 33.0439 3.92383V10.5723L33.0479 10.6182ZM35.2285 3.41992V3.71973H33.2607V3.41992H35.2285ZM35.5645 1.54785C35.5644 1.22601 35.4664 0.956078 35.2705 0.738281L35.1807 0.648438C34.9327 0.416438 34.6201 0.299805 34.2441 0.299805C33.8682 0.299851 33.5518 0.416484 33.2959 0.648438C33.0482 0.88032 32.9249 1.18019 32.9248 1.54785L32.9307 1.68262C32.9577 1.98979 33.079 2.2452 33.2959 2.44824C33.5518 2.6722 33.8682 2.78413 34.2441 2.78418C34.5729 2.78418 34.8531 2.69862 35.084 2.52734L35.1807 2.44824C35.4047 2.24518 35.5307 1.98986 35.5586 1.68262L35.5645 1.54785ZM35.8643 1.54785C35.8643 1.99432 35.7051 2.37799 35.3818 2.6709C35.0717 2.95101 34.6844 3.08398 34.2441 3.08398C33.8038 3.08394 33.4152 2.95079 33.0986 2.67383L33.0908 2.66699V2.66602C32.7774 2.37233 32.624 1.9907 32.624 1.54785C32.6241 1.1047 32.7778 0.722447 33.0918 0.428711L33.0947 0.425781C33.4109 0.139226 33.8009 4.73919e-05 34.2441 0C34.6874 0 35.076 0.138969 35.3857 0.428711H35.3848C35.7059 0.721198 35.8642 1.10291 35.8643 1.54785Z" fill="#ccc"/>
<path d="M29.1719 10.6182C29.1794 10.6615 29.1976 10.6986 29.2275 10.7285C29.2575 10.7584 29.2945 10.7767 29.3379 10.7842L29.3838 10.7881H31.3516C31.3995 10.7881 31.4411 10.7773 31.4756 10.7549L31.5078 10.7285C31.5377 10.6986 31.5559 10.6615 31.5635 10.6182L31.5674 10.5723V6.18066C31.5674 5.4665 31.3932 4.88959 31.0439 4.45117L30.8838 4.27246C30.4278 3.81646 29.7916 3.58789 28.9756 3.58789C28.1198 3.58792 27.4516 3.86792 26.9717 4.42773V1.02051C26.9717 0.956635 26.952 0.904226 26.9121 0.864258C26.8822 0.834312 26.8452 0.815144 26.8018 0.807617L26.7559 0.803711V0.503906C26.8549 0.503931 26.9539 0.528865 27.041 0.584961L27.124 0.652344C27.2019 0.73029 27.2465 0.824027 27.2637 0.921875L27.2715 1.02051V3.76172C27.7439 3.44358 28.3166 3.28811 28.9756 3.28809C29.8488 3.28809 30.5695 3.53355 31.0957 4.05957C31.6219 4.5858 31.8682 5.30731 31.8682 6.18066V10.5723L31.8594 10.6709C31.8421 10.7687 31.7976 10.8626 31.7197 10.9404C31.6159 11.0442 31.4837 11.0879 31.3516 11.0879H29.3838C29.2847 11.0879 29.1858 11.063 29.0986 11.0068L29.0156 10.9404C28.9118 10.8366 28.8682 10.7044 28.8682 10.5723V7.08008C28.8682 6.66951 28.8067 6.41071 28.7236 6.26074L28.6865 6.20312L28.6836 6.19824C28.5954 6.07485 28.4448 5.98837 28.1602 5.98828C27.8878 5.98828 27.687 6.08585 27.5303 6.2832L27.5283 6.28613C27.3729 6.47612 27.2715 6.78141 27.2715 7.24805V10.5723L27.2637 10.6709C27.2464 10.7687 27.2019 10.8625 27.124 10.9404C27.0202 11.0442 26.888 11.0879 26.7559 11.0879H24.7881C24.6888 11.0879 24.5892 11.0632 24.502 11.0068L24.4199 10.9404C24.3161 10.8366 24.2715 10.7044 24.2715 10.5723V1.02051C24.2715 0.888333 24.3161 0.756178 24.4199 0.652344L24.502 0.584961C24.5892 0.528691 24.6889 0.503906 24.7881 0.503906V0.803711L24.7422 0.807617C24.6986 0.815084 24.6619 0.834209 24.6318 0.864258C24.5918 0.904258 24.5713 0.956508 24.5713 1.02051V10.5723C24.5713 10.6362 24.5919 10.6885 24.6318 10.7285C24.6618 10.7584 24.6987 10.7767 24.7422 10.7842L24.7881 10.7881H26.7559L26.8018 10.7842C26.8307 10.7792 26.8569 10.7699 26.8799 10.7549L26.9121 10.7285C26.942 10.6986 26.9602 10.6615 26.9678 10.6182L26.9717 10.5723V7.24805C26.9717 6.80727 27.0545 6.45837 27.2197 6.20117L27.2959 6.0957C27.5119 5.82396 27.8003 5.68848 28.1602 5.68848L28.2871 5.69336C28.5742 5.71784 28.7877 5.82839 28.9277 6.02441C29.0876 6.24041 29.168 6.59225 29.168 7.08008V10.5723L29.1719 10.6182ZM26.7559 0.503906V0.803711H24.7881V0.503906H26.7559Z" fill="#ccc"/>
<path d="M23.5449 8.68848C23.5449 8.06449 23.3612 7.56819 22.9932 7.2002C22.6252 6.8242 21.989 6.52009 21.085 6.28809L20.833 6.22852C20.629 6.18051 20.4658 6.12499 20.3428 6.06348L20.2334 6C20.1374 5.93402 20.0768 5.85936 20.0527 5.77539L20.041 5.68848C20.041 5.5986 20.0706 5.52663 20.1289 5.47266L20.1973 5.42383C20.3012 5.35993 20.4376 5.32812 20.6055 5.32812L20.749 5.33691C20.8871 5.35341 21.0074 5.39395 21.1094 5.45996C21.2533 5.53996 21.3775 5.66406 21.4814 5.83203C21.5175 5.90404 21.5645 5.9488 21.623 5.9668L21.6855 5.97656H21.7334L23.2812 5.61621C23.3653 5.59818 23.4176 5.56194 23.4385 5.50781L23.4492 5.44824L23.4248 5.36426C23.2288 4.83934 22.9322 4.43357 22.5342 4.14746L22.3574 4.03223C21.8774 3.73623 21.2608 3.58789 20.5088 3.58789C19.9409 3.58793 19.437 3.6803 18.9971 3.86426L18.8369 3.93652C18.4728 4.11417 18.1819 4.35045 17.9648 4.64453C17.725 4.97244 17.6055 5.34862 17.6055 5.77246L17.6152 5.99414C17.7123 7.0811 18.5365 7.82741 20.0889 8.23242L20.3535 8.30371C20.6332 8.37564 20.8247 8.45232 20.9287 8.53223L20.7461 8.76953C20.6942 8.72975 20.5545 8.66576 20.2783 8.59473L20.2744 8.59375L20.0098 8.52148V8.52051C19.8447 8.47735 19.6866 8.42931 19.5352 8.37793L19.5879 8.43945L19.5947 8.44922L19.6016 8.45996C19.665 8.56424 19.7414 8.64756 19.832 8.71191L19.9277 8.77051C20.064 8.84162 20.2237 8.87987 20.4131 8.87988V9.18066L20.2432 9.1709C20.0784 9.15286 19.9269 9.10806 19.7891 9.03613C19.6051 8.94013 19.4567 8.80018 19.3447 8.61621C19.2809 8.52852 19.2134 8.48456 19.1416 8.48438L19.0693 8.49609L17.4736 8.83203C17.3696 8.85603 17.3174 8.90828 17.3174 8.98828L17.3203 9.03906C17.3223 9.05311 17.3251 9.06425 17.3291 9.07227C17.5531 9.67224 17.9375 10.1284 18.4814 10.4404C19.0254 10.7603 19.6973 10.9199 20.4971 10.9199C21.0891 10.9199 21.6133 10.8285 22.0693 10.6445C22.4753 10.4835 22.8011 10.2637 23.0479 9.98633L23.1494 9.86426C23.3804 9.57026 23.5102 9.23325 23.5391 8.85352L23.5449 8.68848ZM21.0029 8.59473C21.0657 8.65915 21.0967 8.73071 21.0967 8.80859L21.0859 8.89258C21.0635 8.97223 21.0071 9.03592 20.917 9.08398C20.797 9.14797 20.6291 9.18066 20.4131 9.18066V8.87988C20.6059 8.87988 20.7181 8.85041 20.7764 8.81934C20.7824 8.81611 20.7864 8.81203 20.79 8.80957L20.7549 8.77637L20.7461 8.77051L20.9287 8.53223L21.0029 8.59473ZM20.6055 5.62793C20.473 5.62793 20.3966 5.65377 20.3545 5.67969L20.3467 5.68457L20.3408 5.6875V5.68848L20.3447 5.69922L20.4033 5.75293C20.4648 5.79514 20.5682 5.84278 20.7256 5.88965L20.9023 5.93652L21.1543 5.99609L21.1602 5.99707V5.99805C21.1897 6.00564 21.2189 6.01372 21.248 6.02148C21.241 6.01015 21.2328 5.99977 21.2266 5.98828L21.2256 5.99023C21.1637 5.89036 21.0986 5.81779 21.0312 5.7666L20.9639 5.72266L20.9551 5.71777L20.9463 5.71191C20.8692 5.66202 20.7611 5.62798 20.6055 5.62793ZM23.7412 5.5332C23.726 5.61805 23.6873 5.70043 23.6191 5.76855C23.5371 5.8505 23.4353 5.88795 23.3477 5.90723L23.3486 5.9082L21.9316 6.2373C22.4785 6.43997 22.9107 6.6865 23.208 6.99023H23.207C23.6409 7.42522 23.8447 8.0029 23.8447 8.68848L23.8379 8.87793C23.8046 9.31206 23.654 9.70328 23.3867 10.0449L23.3877 10.0459C23.0933 10.4323 22.6855 10.7215 22.1807 10.9219C21.6826 11.1228 21.1197 11.2197 20.4971 11.2197C19.6578 11.2197 18.9299 11.0526 18.3291 10.6992V10.6982C17.7246 10.3507 17.2953 9.83968 17.0479 9.17676L17.0488 9.17578C17.0196 9.10069 17.0176 9.02592 17.0176 8.98828C17.0176 8.87646 17.0561 8.76423 17.1436 8.67676C17.2233 8.59705 17.3219 8.55933 17.4053 8.54004L17.4111 8.53809L19.0078 8.20215L19.0195 8.2002L19.0596 8.19336C18.6415 8.00646 18.2905 7.77904 18.0146 7.50586C17.5418 7.03739 17.3048 6.45292 17.3047 5.77246C17.3047 5.28772 17.4434 4.84852 17.7227 4.4668L17.7236 4.46582C18.0082 4.08032 18.3991 3.78977 18.8818 3.58789C19.3646 3.38602 19.9087 3.28812 20.5088 3.28809C21.2959 3.28809 21.97 3.44218 22.5098 3.77344C23.0645 4.1008 23.4613 4.60352 23.7061 5.25879L23.7139 5.28223L23.7373 5.36621L23.749 5.40625V5.44824L23.7412 5.5332Z" fill="#ccc"/>
<path d="M16.6709 7.24805C16.6709 6.62503 16.5487 6.06301 16.3037 5.5625L16.1904 5.35254C15.9104 4.86255 15.53 4.46978 15.0479 4.17578L14.835 4.05664C14.3239 3.78362 13.7391 3.62981 13.0811 3.5957L12.7949 3.58789C12.0189 3.58789 11.3389 3.74464 10.7549 4.05664L10.542 4.17578C10.0598 4.4698 9.67848 4.86246 9.39844 5.35254L9.28613 5.5625C9.04105 6.06304 8.91896 6.62497 8.91895 7.24805L8.92578 7.51465C8.9608 8.12695 9.11857 8.67809 9.39844 9.16797C9.71844 9.71997 10.1709 10.1481 10.7549 10.4521C11.2658 10.7251 11.85 10.8789 12.5078 10.9131L12.7949 10.9199C13.5708 10.9199 14.251 10.7641 14.835 10.4521C15.4189 10.1482 15.8705 9.71991 16.1904 9.16797C16.4704 8.67804 16.6281 8.12705 16.6631 7.51465L16.6709 7.24805ZM13.9463 7.24805C13.9463 6.89684 13.8585 6.62485 13.6953 6.41309L13.6211 6.32617L13.6172 6.32324C13.4164 6.10421 13.1526 5.98832 12.7949 5.98828C12.4388 5.98828 12.1694 6.10305 11.96 6.32324L11.8877 6.41016C11.7294 6.62194 11.6426 6.89478 11.6426 7.24805C11.6426 7.65114 11.7556 7.95573 11.9619 8.1875C12.1711 8.40624 12.44 8.52051 12.7949 8.52051V8.82031L12.6367 8.81348C12.2761 8.78202 11.9763 8.63975 11.7383 8.3877C11.5075 8.12871 11.3774 7.80548 11.3486 7.41797L11.3428 7.24805C11.3428 6.78421 11.4744 6.40806 11.7383 6.12012C12.0103 5.83212 12.3629 5.68848 12.7949 5.68848L12.9531 5.69531C13.3126 5.72687 13.6079 5.8682 13.8389 6.12012C14.1108 6.40809 14.247 6.78412 14.2471 7.24805L14.2402 7.41797C14.2105 7.80555 14.0767 8.12869 13.8389 8.3877L13.7354 8.48926C13.486 8.70962 13.1728 8.82028 12.7949 8.82031V8.52051C13.1525 8.52047 13.4164 8.40442 13.6172 8.18555H13.6182L13.6934 8.09473C13.8584 7.87562 13.9463 7.59907 13.9463 7.24805ZM16.9707 7.24805C16.9707 8.01405 16.8 8.70695 16.4512 9.31738L16.4502 9.31836C16.1007 9.92124 15.6055 10.3884 14.9727 10.7178C14.339 11.0556 13.6103 11.2197 12.7949 11.2197C11.9792 11.2197 11.25 11.0558 10.6162 10.7178C10.0626 10.4295 9.61478 10.0359 9.27734 9.53809L9.13965 9.31836L9.13867 9.31738C8.78986 8.70695 8.61914 8.01405 8.61914 7.24805C8.61916 6.48958 8.79024 5.80493 9.13965 5.20215C9.48878 4.5918 9.98279 4.11976 10.6162 3.79004C11.25 3.45213 11.9793 3.28809 12.7949 3.28809C13.6102 3.28811 14.3391 3.45233 14.9727 3.79004C15.6061 4.11979 16.1011 4.59173 16.4502 5.20215C16.7995 5.80489 16.9707 6.48964 16.9707 7.24805Z" fill="#ccc"/>
<path d="M3.80762 10.6182C3.81514 10.6616 3.8343 10.6986 3.86426 10.7285C3.89426 10.7584 3.93114 10.7767 3.97461 10.7842L4.02051 10.7881H6.08398C6.13193 10.7881 6.17353 10.7773 6.20801 10.7549L6.24023 10.7285C6.27016 10.6986 6.28836 10.6615 6.2959 10.6182L6.2998 10.5723V7.16406L9.76855 1.27246C9.79255 1.23246 9.80371 1.19606 9.80371 1.16406C9.80367 1.12415 9.78404 1.09233 9.74414 1.06836C9.72823 1.05244 9.70935 1.04023 9.6875 1.03223L9.6123 1.02051V0.719727C9.71067 0.719759 9.81624 0.747515 9.9082 0.817383C10.0023 0.87716 10.0809 0.974718 10.0996 1.10449L10.1045 1.16406L10.0977 1.24023C10.0851 1.31241 10.055 1.37416 10.0254 1.42383L10.0264 1.4248L6.60059 7.24414V10.5723L6.5918 10.6709C6.57454 10.7687 6.53002 10.8626 6.45215 10.9404C6.34833 11.0442 6.21611 11.0879 6.08398 11.0879H4.02051C3.92122 11.0879 3.82164 11.0632 3.73438 11.0068L3.65234 10.9404C3.54853 10.8366 3.50393 10.7044 3.50391 10.5723V7.29297L0.0771484 1.42383L0.078125 1.42285C0.0487749 1.37336 0.0193472 1.31189 0.00683594 1.24023L0 1.16406L0.0117188 1.06641C0.0306013 0.985475 0.0742523 0.914597 0.136719 0.857422L0.135742 0.856445C0.140243 0.851945 0.145788 0.847991 0.150391 0.84375C0.156369 0.838748 0.161664 0.832855 0.167969 0.828125L0.168945 0.829102C0.264189 0.750107 0.376639 0.719727 0.480469 0.719727V1.02051L0.405273 1.03223C0.383221 1.04023 0.363686 1.05233 0.347656 1.06836C0.315941 1.0923 0.299836 1.12428 0.299805 1.16406C0.299805 1.19606 0.311937 1.23246 0.335938 1.27246L3.80371 7.21191V10.5723L3.80762 10.6182ZM7.27246 0.719727V1.02051L7.18555 1.0293C7.10738 1.04723 7.05628 1.09203 7.03223 1.16406L5.08789 4.96777L3.12012 1.16406C3.07818 1.09221 3.01824 1.04734 2.94043 1.0293L2.85645 1.02051V0.719727C3.07252 0.719823 3.26416 0.81629 3.37891 1.0127L3.38672 1.02637L5.08594 4.31152L6.76465 1.02734C6.80427 0.935264 6.86911 0.85451 6.96191 0.798828C7.06273 0.738385 7.17356 0.719727 7.27246 0.719727ZM9.6123 0.719727V1.02051H7.27246V0.719727H9.6123ZM2.85645 0.719727V1.02051H0.480469V0.719727H2.85645Z" fill="#ccc"/>
</svg>
